<?xml version="1.0" standalone="no"?>
<!DOCTYPE svg PUBLIC "-//W3C//DTD SVG 1.1//EN" "http://www.w3.org/Graphics/SVG/1.1/DTD/svg11.dtd" >
<svg xmlns="http://www.w3.org/2000/svg" xmlns:xlink="http://www.w3.org/1999/xlink" version="1.1">
<metadata>
Created by FontForge 20200427 at Mon Oct 15 19:55:47 2012
 By www
2012 Daniel Utz published by FSI FontShop International GmbH
</metadata>
<defs>
<font id="NettoOT" horiz-adv-x="531" >
  <font-face 
    font-family="NettoOT"
    font-weight="400"
    font-stretch="normal"
    units-per-em="1000"
    panose-1="2 11 5 4 2 1 1 1 1 2"
    ascent="777"
    descent="-223"
    x-height="500"
    cap-height="711"
    bbox="-590 -224 1145 962"
    underline-thickness="65"
    underline-position="-114"
    unicode-range="U+000D-FEFF"
  />
<missing-glyph 
d="M143 701h245q20 0 33 -12.5t13 -31.5v-613q0 -19 -13 -31.5t-33 -12.5h-245q-20 0 -32.5 12t-12.5 32v613q0 20 12.5 32t32.5 12zM366 636h-200v-571h200v571z" />
    <glyph glyph-name=".notdef" 
d="M143 701h245q20 0 33 -12.5t13 -31.5v-613q0 -19 -13 -31.5t-33 -12.5h-245q-20 0 -32.5 12t-12.5 32v613q0 20 12.5 32t32.5 12zM366 636h-200v-571h200v571z" />
    <glyph glyph-name=".null" horiz-adv-x="0" 
 />
    <glyph glyph-name=".null" horiz-adv-x="0" 
 />
    <glyph glyph-name="nonmarkingreturn" horiz-adv-x="333" 
 />
    <glyph glyph-name="CR" unicode="&#xd;" horiz-adv-x="262" 
 />
    <glyph glyph-name="space" unicode=" " horiz-adv-x="262" 
 />
    <glyph glyph-name="exclam" unicode="!" horiz-adv-x="385" 
d="M193 711q14 0 24 -9.5t10 -24.5v-452q0 -14 -10 -23.5t-24 -9.5q-15 0 -24.5 9.5t-9.5 23.5v452q0 15 9.5 24.5t24.5 9.5zM193 88q20 0 34.5 -14.5t14.5 -34.5t-14.5 -34.5t-34.5 -14.5t-34.5 14.5t-14.5 34.5t14.5 34.5t34.5 14.5z" />
    <glyph glyph-name="quotedbl" unicode="&#x22;" horiz-adv-x="423" 
d="M287 711q14 0 24 -9.5t10 -24.5v-162q0 -15 -10 -24.5t-24 -9.5t-24 9.5t-10 24.5v162q0 15 10 24.5t24 9.5zM136 711q14 0 24 -9.5t10 -24.5v-162q0 -15 -10 -24.5t-24 -9.5t-24 9.5t-10 24.5v162q0 15 10 24.5t24 9.5z" />
    <glyph glyph-name="numbersign" unicode="#" 
d="M431 711q12 0 20.5 -8.5t8.5 -19.5q0 -5 -2 -15l-32 -165h67q13 0 21 -8.5t8 -21.5q0 -14 -9.5 -23t-23.5 -9h-75l-35 -181h66q13 0 21 -8.5t8 -22.5q0 -13 -9 -22t-23 -9h-75l-34 -176q-7 -32 -36 -32q-13 0 -21.5 8.5t-8.5 19.5q0 5 2 15l32 165h-132l-34 -176
q-5 -32 -35 -32q-13 0 -21.5 8.5t-8.5 19.5q0 5 2 15l32 165h-66q-14 0 -22 8t-8 22q0 13 9.5 22.5t23.5 9.5h75l36 181h-67q-13 0 -21 8.5t-8 21.5q0 14 9 23t23 9h76l34 176q7 32 35 32q13 0 21.5 -8.5t8.5 -19.5q0 -5 -2 -15l-32 -165h132l34 176q7 32 36 32zM349 441
h-132l-36 -181h132z" />
    <glyph glyph-name="dollar" unicode="$" horiz-adv-x="501" 
d="M262 841q14 0 24 -9.5t10 -24.5v-98q65 -6 122 -32q20 -10 20 -32q0 -14 -8.5 -23t-21.5 -9q-8 0 -30 8q-68 25 -132 25q-55 0 -93 -31t-38 -76q0 -43 21.5 -69t69.5 -49l116 -57q40 -21 65.5 -39.5t47.5 -57.5t22 -91q0 -72 -45 -120t-116 -61v-100q0 -15 -10 -24.5
t-24 -9.5t-24 9.5t-10 24.5v95q-85 3 -161 38q-22 10 -22 32q0 14 9 23.5t23 9.5q11 0 30 -9q62 -29 138 -29q61 0 101.5 31.5t40.5 87.5q0 49 -25 77.5t-79 55.5l-117 58q-121 60 -121 172q0 71 51 119t132 54v97q0 15 10 24.5t24 9.5z" />
    <glyph glyph-name="percent" unicode="%" horiz-adv-x="885" 
d="M674 711q12 0 19 -7.5t7 -18.5t-5 -18l-460 -664q-10 -13 -23 -13q-12 0 -19.5 7.5t-7.5 18.5q0 9 6 18l459 664q9 13 24 13zM221 655q-37 0 -57 -21t-20 -59v-86q0 -38 20 -59t57 -21q36 0 56 21t20 59v86q0 38 -19.5 59t-56.5 21zM221 711q62 0 98 -36.5t36 -96.5v-91
q0 -61 -37 -97t-97 -36q-62 0 -98.5 36t-36.5 97v91q0 61 36.5 97t98.5 36zM665 291q-78 0 -78 -80v-86q0 -38 20 -59t58 -21q36 0 56 21t20 59v86q0 38 -19.5 59t-56.5 21zM665 347q62 0 98 -36.5t36 -96.5v-91q0 -61 -37 -97t-97 -36q-62 0 -98.5 36t-36.5 97v91
q0 61 36.5 97t98.5 36z" />
    <glyph glyph-name="ampersand" unicode="&#x26;" horiz-adv-x="690" 
d="M293 711q71 0 112 -41.5t41 -111.5q0 -14 -8.5 -23t-22.5 -9t-23 9t-9 23q0 41 -24 66.5t-66 25.5q-40 0 -66.5 -26t-26.5 -68q0 -43 42 -90l239 -266l92 109q11 12 25 12t22.5 -8.5t8.5 -22.5t-9 -24l-97 -113l97 -109q9 -10 9 -22q0 -14 -8.5 -23t-22.5 -9
q-13 0 -23 10l-94 105q-101 -115 -215 -115q-76 0 -130.5 52.5t-54.5 130.5q0 121 148 215l-22 24q-70 77 -70 143q0 69 43.5 112.5t112.5 43.5zM440 151l-169 189q-125 -75 -125 -166q0 -53 34.5 -88t83.5 -35q90 0 176 100z" />
    <glyph glyph-name="quotesingle" unicode="'" horiz-adv-x="272" 
d="M136 711q14 0 24 -9.5t10 -24.5v-162q0 -15 -10 -24.5t-24 -9.5t-24 9.5t-10 24.5v162q0 15 10 24.5t24 9.5z" />
    <glyph glyph-name="parenleft" unicode="(" horiz-adv-x="309" 
d="M199 779q15 0 24.5 -9t9.5 -25q0 -7 -4 -15q-96 -190 -96 -413t96 -413q4 -8 4 -15q0 -34 -34 -34q-22 0 -31 20q-103 211 -103 442t103 442q9 20 31 20z" />
    <glyph glyph-name="parenright" unicode=")" horiz-adv-x="309" 
d="M110 779q22 0 31 -20q103 -211 103 -442t-103 -442q-9 -20 -31 -20q-15 0 -24.5 9t-9.5 25q0 7 4 15q96 190 96 413t-96 413q-4 8 -4 15q0 34 34 34z" />
    <glyph glyph-name="asterisk" unicode="*" horiz-adv-x="449" 
d="M225 711q12 0 20.5 -8.5t8.5 -20.5v-103l92 31q9 3 14 3q13 0 21 -9t8 -20q0 -20 -21 -28l-96 -32l60 -82q6 -9 6 -18q0 -11 -8.5 -20t-20.5 -9q-14 0 -24 14l-60 81l-60 -82q-10 -13 -24 -13q-11 0 -19.5 9t-8.5 20t5 18l60 82l-97 32q-21 8 -21 28q0 11 8 20t21 9
q5 0 14 -3l93 -31v103q0 12 8.5 20.5t20.5 8.5z" />
    <glyph glyph-name="plus" unicode="+" 
d="M266 510q14 0 24 -9.5t10 -24.5v-192h166q14 0 23 -9t9 -23t-9 -23.5t-23 -9.5h-166v-195q0 -15 -10 -24.5t-24 -9.5t-24 9.5t-10 24.5v195h-166q-14 0 -23.5 9.5t-9.5 23.5t9.5 23t23.5 9h166v192q0 15 10 24.5t24 9.5z" />
    <glyph glyph-name="comma" unicode="," horiz-adv-x="222" 
d="M129 94q14 0 23.5 -9t9.5 -24q0 -5 -3 -16l-54 -156q-8 -24 -33 -24q-14 0 -23.5 9t-9.5 24q0 7 3 16l54 157q8 23 33 23z" />
    <glyph glyph-name="hyphen" unicode="-" horiz-adv-x="434" 
d="M103 328h228q14 0 23 -9t9 -23t-9 -23.5t-23 -9.5h-228q-14 0 -23 9.5t-9 23.5t9 23t23 9z" />
    <glyph glyph-name="period" unicode="." horiz-adv-x="226" 
d="M109 88q20 0 34.5 -14.5t14.5 -34.5t-14.5 -34.5t-34.5 -14.5t-34.5 14.5t-14.5 34.5t14.5 34.5t34.5 14.5z" />
    <glyph glyph-name="slash" unicode="/" horiz-adv-x="575" 
d="M420 711q14 0 23 -9.5t9 -23.5q0 -9 -3 -16l-261 -651q-9 -21 -33 -21q-14 0 -23 9.5t-9 23.5q0 8 3 16l261 650q9 22 33 22z" />
    <glyph glyph-name="zero" unicode="0" horiz-adv-x="570" 
d="M285 711q95 0 149.5 -53.5t54.5 -148.5v-317q0 -92 -54.5 -147t-149.5 -55q-94 0 -149 54t-55 148v317q0 92 54.5 147t149.5 55zM285 648q-64 0 -100 -35t-36 -98v-329q0 -63 36 -98t100 -35t100 35t36 98v329q0 63 -36 98t-100 35z" />
    <glyph glyph-name="one" unicode="1" horiz-adv-x="382" 
d="M230 711q17 0 28 -11.5t11 -28.5v-647q0 -15 -9.5 -24.5t-23.5 -9.5q-15 0 -25 9.5t-10 24.5v602l-118 -67q-10 -5 -19 -5q-15 0 -24 9t-9 23q0 19 17 28l161 91q11 6 21 6z" />
    <glyph glyph-name="two" unicode="2" horiz-adv-x="501" 
d="M225 711q91 0 145.5 -49t54.5 -133q0 -79 -68 -166l-216 -298h257q14 0 23.5 -9.5t9.5 -23.5t-9.5 -23t-23.5 -9h-314q-17 0 -28.5 11t-11.5 28q0 14 11 29l248 332q53 73 53 125q0 58 -36 90.5t-95 32.5t-124 -29q-7 -4 -14 -4q-14 0 -22.5 9t-8.5 23q0 19 17 28
q69 36 152 36z" />
    <glyph glyph-name="three" unicode="3" horiz-adv-x="515" 
d="M225 711q90 0 142.5 -52.5t52.5 -134.5q0 -52 -28 -95t-73 -63q57 -21 89 -69t32 -105q0 -91 -57 -146.5t-154 -55.5t-165 35q-20 10 -20 30q0 13 9 22t22 9q7 0 14 -3q65 -30 140 -30q67 0 105 37.5t38 102.5q0 60 -43.5 99.5t-110.5 39.5h-22q-14 0 -22.5 9t-8.5 22
t8.5 22t22.5 9h22q58 0 96 36.5t38 92.5q0 57 -34.5 91t-94.5 34q-62 0 -127 -31q-7 -3 -14 -3q-13 0 -22 9t-9 23q0 20 16 27q72 38 158 38z" />
    <glyph glyph-name="four" unicode="4" horiz-adv-x="501" 
d="M240 711q14 0 23.5 -9t9.5 -23q0 -7 -3 -15l-153 -432h190v143q0 15 9.5 24t23.5 9t23.5 -9t9.5 -24v-143h78q14 0 23 -9.5t9 -23.5t-9 -23t-23 -9h-78v-144q0 -14 -9.5 -23.5t-23.5 -9.5t-23.5 9.5t-9.5 23.5v144h-228q-17 0 -28.5 11t-11.5 28q0 6 3 14l168 471
q8 20 30 20z" />
    <glyph glyph-name="five" unicode="5" horiz-adv-x="534" 
d="M128 701h279q14 0 23 -9.5t9 -22.5q0 -14 -9 -23.5t-23 -9.5h-253v-232q54 23 107 23q84 0 140.5 -54t56.5 -134v-60q0 -81 -56.5 -135t-140.5 -54q-95 0 -165 35q-20 9 -20 30q0 13 8.5 22t22.5 9q5 0 13 -3q68 -30 141 -30q55 0 92 36t37 90v60q0 54 -37 89.5t-94 35.5
q-49 0 -116 -29q-7 -3 -17 -3q-17 0 -28.5 11.5t-11.5 28.5v286q0 19 11.5 31t30.5 12z" />
    <glyph glyph-name="six" unicode="6" horiz-adv-x="536" 
d="M339 711q37 0 68 -7q25 -6 25 -32q0 -14 -8.5 -22t-22.5 -8q-1 0 -13 2q-24 4 -49 4q-105 0 -150.5 -62t-45.5 -185v-33q22 30 59 46.5t74 16.5q82 0 138.5 -54t56.5 -135v-63q0 -81 -56.5 -135t-141.5 -54t-141 54t-56 135v220q0 65 13 118.5t41.5 98.5t81.5 70t127 25z
M273 368q-55 0 -92 -35.5t-37 -88.5v-67q0 -53 37 -88.5t92 -35.5t92.5 35.5t37.5 88.5v67q0 53 -37 88.5t-93 35.5z" />
    <glyph glyph-name="seven" unicode="7" horiz-adv-x="472" 
d="M56 701h336q17 0 29 -11.5t12 -29.5q0 -8 -3 -17l-249 -628q-10 -25 -33 -25q-34 0 -34 34q0 7 4 16l235 596h-297q-15 0 -24 9.5t-9 23.5t9 23t24 9z" />
    <glyph glyph-name="eight" unicode="8" horiz-adv-x="561" 
d="M281 711q84 0 136 -52t52 -134q0 -51 -25.5 -92t-69.5 -63q53 -23 82.5 -70t29.5 -105q0 -93 -57 -149t-148 -56t-148 56t-57 149q0 58 29 105t82 70q-43 22 -68.5 63.5t-25.5 91.5q0 82 52 134t136 52zM281 336q-61 0 -99.5 -39.5t-38.5 -102.5q0 -65 38 -103t100 -38
t99.5 38t37.5 103q0 63 -38 102.5t-99 39.5zM281 648q-54 0 -87.5 -34t-33.5 -89q0 -53 35 -89.5t86 -36.5q50 0 85.5 36.5t35.5 89.5q0 55 -34 89t-87 34z" />
    <glyph glyph-name="nine" unicode="9" horiz-adv-x="536" 
d="M257 711q85 0 141.5 -54t56.5 -135v-220q0 -65 -13 -118.5t-42 -98.5t-82 -70t-126 -25q-37 0 -69 7q-25 7 -25 32q0 13 8.5 21.5t22.5 8.5q4 0 14 -2q26 -4 49 -4q105 0 150 62t45 185v32q-22 -30 -59.5 -46t-73.5 -16q-82 0 -138 54t-56 135v63q0 81 56.5 135t140.5 54
zM257 648q-55 0 -92 -35.5t-37 -88.5v-67q0 -53 37 -88.5t92 -35.5q56 0 93 35.5t37 88.5v67q0 53 -37.5 88.5t-92.5 35.5z" />
    <glyph glyph-name="colon" unicode=":" horiz-adv-x="248" 
d="M139 505q20 0 34.5 -14.5t14.5 -34.5t-14.5 -34.5t-34.5 -14.5t-34.5 14.5t-14.5 34.5t14.5 34.5t34.5 14.5zM139 88q20 0 34.5 -14.5t14.5 -34.5t-14.5 -34.5t-34.5 -14.5t-34.5 14.5t-14.5 34.5t14.5 34.5t34.5 14.5z" />
    <glyph glyph-name="semicolon" unicode=";" horiz-adv-x="253" 
d="M144 505q20 0 34.5 -14.5t14.5 -34.5t-14.5 -34.5t-34.5 -14.5t-34.5 14.5t-14.5 34.5t14.5 34.5t34.5 14.5zM149 94q14 0 23.5 -9t9.5 -24q0 -5 -3 -16l-54 -156q-8 -24 -33 -24q-14 0 -23.5 9t-9.5 24q0 7 3 16l54 157q8 23 33 23z" />
    <glyph glyph-name="less" unicode="&#x3c;" 
d="M441 510q14 0 23.5 -9.5t9.5 -22.5q0 -19 -18 -30l-313 -198l316 -200q15 -9 15 -28q0 -13 -9.5 -22.5t-23.5 -9.5q-9 0 -20 7l-344 218q-20 13 -20 35q0 23 20 35l344 218q11 7 20 7z" />
    <glyph glyph-name="equal" unicode="=" 
d="M66 374h400q14 0 23 -9t9 -23t-9 -23.5t-23 -9.5h-400q-14 0 -23.5 9.5t-9.5 23.5t9.5 23t23.5 9zM66 191h400q14 0 23 -9.5t9 -22.5q0 -14 -9 -23.5t-23 -9.5h-400q-14 0 -23.5 9.5t-9.5 23.5t9.5 23t23.5 9z" />
    <glyph glyph-name="greater" unicode="&#x3e;" 
d="M90 510q10 0 20 -7l344 -218q20 -12 20 -35q0 -22 -20 -35l-344 -218q-10 -7 -20 -7q-14 0 -23.5 9.5t-9.5 22.5q0 19 15 28l316 200l-313 198q-18 11 -18 30q0 13 9.5 22.5t23.5 9.5z" />
    <glyph glyph-name="question" unicode="?" horiz-adv-x="481" 
d="M230 711q86 0 138.5 -47.5t52.5 -122.5q0 -52 -21 -85.5t-59 -65.5q-41 -33 -59.5 -61t-18.5 -65v-47q0 -14 -10 -24t-24 -10t-24 10t-10 24v46q0 95 90 168q32 26 50 51.5t18 60.5q0 47 -35 76t-94 29q-48 0 -103 -26q-10 -5 -19 -5q-14 0 -22.5 8.5t-8.5 22.5
q0 22 20 31q72 32 139 32zM227 88q20 0 34.5 -14.5t14.5 -34.5t-14.5 -34.5t-34.5 -14.5t-34.5 14.5t-14.5 34.5t14.5 34.5t34.5 14.5z" />
    <glyph glyph-name="at" unicode="@" horiz-adv-x="756" 
d="M383 711q106 0 178 -69t72 -178v-285q0 -32 -30 -43q-61 -22 -127 -22q-70 0 -118 47t-48 115q0 66 46.5 114.5t119.5 48.5h89v30q0 78 -53.5 128.5t-128.5 50.5q-76 0 -129 -50t-53 -129v-385q0 -65 44 -117t108 -59q31 -5 31 -31q0 -13 -9 -22.5t-24 -9.5q-17 0 -33 4
q-77 18 -131 85t-54 155v375q0 109 72 178t178 69zM565 377h-89q-42 0 -71 -29t-29 -72t28.5 -71.5t71.5 -28.5q45 0 89 14v187z" />
    <glyph glyph-name="A" unicode="A" horiz-adv-x="567" 
d="M284 711q28 0 38 -26l218 -646q3 -9 3 -16q0 -14 -9.5 -23.5t-24.5 -9.5q-25 0 -33 23l-56 173h-273l-56 -173q-8 -23 -33 -23q-15 0 -24.5 9.5t-9.5 23.5q0 7 3 16l218 646q10 26 39 26zM284 605l-116 -355h231z" />
    <glyph glyph-name="B" unicode="B" horiz-adv-x="561" 
d="M130 701h157q90 0 141.5 -50t51.5 -135q0 -50 -26 -88.5t-69 -60.5q55 -23 85.5 -68t30.5 -103q0 -90 -55.5 -143t-152.5 -53h-163q-18 0 -31 12.5t-13 30.5v615q0 18 13 30.5t31 12.5zM282 331h-126v-266h137q63 0 100.5 36t37.5 97q0 59 -43 96t-106 37zM287 636h-131
v-240h120q58 0 96 33t38 86q0 55 -33.5 88t-89.5 33z" />
    <glyph glyph-name="C" unicode="C" horiz-adv-x="514" 
d="M304 711q69 0 142 -39q25 -14 25 -33q0 -12 -9.5 -22t-23.5 -10q-10 0 -22 7q-55 32 -112 32q-78 0 -123.5 -44.5t-45.5 -121.5v-259q0 -77 45.5 -121.5t123.5 -44.5q53 0 107 30q18 9 27 9q13 0 23 -9t10 -23q0 -18 -18 -30q-62 -42 -149 -42q-107 0 -173 63t-66 172
v251q0 110 65.5 172.5t173.5 62.5z" />
    <glyph glyph-name="D" unicode="D" horiz-adv-x="594" 
d="M130 701h138q121 0 191 -67t70 -188v-191q0 -121 -69.5 -188t-191.5 -67h-138q-18 0 -31 12.5t-13 30.5v615q0 18 13 30.5t31 12.5zM271 635h-115v-569h115q88 0 138 50t50 138v193q0 89 -50 138.5t-138 49.5z" />
    <glyph glyph-name="E" unicode="E" horiz-adv-x="518" 
d="M130 701h299q15 0 24 -9.5t9 -23.5q0 -15 -9 -24.5t-24 -9.5h-273v-237h260q15 0 24.5 -9.5t9.5 -23.5t-9.5 -24t-24.5 -10h-260v-263h280q15 0 24 -9.5t9 -23.5q0 -15 -9 -24.5t-24 -9.5h-306q-18 0 -31 12.5t-13 30.5v615q0 18 13 30.5t31 12.5z" />
    <glyph glyph-name="F" unicode="F" horiz-adv-x="480" 
d="M130 701h297q15 0 24.5 -9.5t9.5 -23.5t-9.5 -24t-24.5 -10h-271v-237h258q15 0 24.5 -9.5t9.5 -23.5t-9.5 -24t-24.5 -10h-258v-305q0 -16 -10 -25.5t-25 -9.5t-25 9.5t-10 25.5v633q0 18 13 30.5t31 12.5z" />
    <glyph glyph-name="G" unicode="G" horiz-adv-x="576" 
d="M309 711q79 0 154 -40q21 -11 21 -32q0 -13 -10 -22t-24 -9q-9 0 -21 6q-71 32 -120 32q-83 0 -128.5 -45.5t-45.5 -127.5v-245q0 -82 46 -127.5t128 -45.5q71 0 132 23v230h-113q-15 0 -24 9.5t-9 24.5q0 14 9 23.5t24 9.5h140q18 0 30.5 -12t12.5 -30v-269
q0 -29 -26 -40q-84 -34 -176 -34q-113 0 -178.5 63.5t-65.5 177.5v239q0 115 65 178t179 63z" />
    <glyph glyph-name="H" unicode="H" horiz-adv-x="614" 
d="M493 711q14 0 24 -9.5t10 -24.5v-653q0 -15 -10 -24.5t-24 -9.5q-15 0 -25 9.5t-10 24.5v307h-302v-307q0 -15 -10 -24.5t-25 -9.5t-25 9.5t-10 24.5v653q0 15 10 24.5t25 9.5t25 -9.5t10 -24.5v-279h302v279q0 15 10 24.5t25 9.5z" />
    <glyph glyph-name="I" unicode="I" horiz-adv-x="242" 
d="M121 711q15 0 25 -9.5t10 -24.5v-653q0 -15 -10 -24.5t-25 -9.5t-25 9.5t-10 24.5v653q0 15 10 24.5t25 9.5z" />
    <glyph glyph-name="J" unicode="J" horiz-adv-x="389" 
d="M272 711q15 0 25 -9.5t10 -24.5v-508q0 -77 -52 -128t-128 -51q-28 0 -63 7q-30 5 -30 31q0 15 9.5 24t23.5 9q3 0 23 -3t37 -3q47 0 79 34t32 80v508q0 15 10 24.5t24 9.5z" />
    <glyph glyph-name="K" unicode="K" horiz-adv-x="530" 
d="M458 711q14 0 24 -9.5t10 -23.5q0 -15 -11 -26l-269 -289l281 -312q12 -15 12 -28t-10 -23t-24 -10q-16 0 -29 15l-286 321v-302q0 -15 -10 -24.5t-25 -9.5t-25 9.5t-10 24.5v653q0 15 10 24.5t25 9.5t25 -9.5t10 -24.5v-279l273 298q13 15 29 15z" />
    <glyph glyph-name="L" unicode="L" horiz-adv-x="493" 
d="M121 711q14 0 24.5 -10t10.5 -25v-609h280q15 0 24 -9.5t9 -23.5q0 -15 -9 -24.5t-24 -9.5h-306q-18 0 -31 12.5t-13 30.5v633q0 15 10.5 25t24.5 10z" />
    <glyph glyph-name="M" unicode="M" horiz-adv-x="758" 
d="M633 711q17 0 27.5 -10.5t10.5 -27.5v-648q0 -15 -10.5 -25t-24.5 -10t-24 10t-10 25v536l-190 -363q-10 -19 -33 -19q-25 0 -34 19l-189 363v-536q0 -15 -10.5 -25t-24.5 -10t-24.5 10t-10.5 25v648q0 17 10.5 27.5t27.5 10.5q25 0 37 -23l218 -411l218 411q12 23 36 23
z" />
    <glyph glyph-name="N" unicode="N" horiz-adv-x="621" 
d="M500 711q14 0 24 -10t10 -25v-648q0 -16 -11 -27t-27 -11q-24 0 -36 23l-304 551v-539q0 -15 -10.5 -25t-24.5 -10t-24.5 10t-10.5 25v648q0 16 11 27t27 11q23 0 37 -23l304 -551v539q0 15 10.5 25t24.5 10z" />
    <glyph glyph-name="O" unicode="O" horiz-adv-x="593" 
d="M296 711q106 0 168.5 -61t62.5 -166v-266q0 -105 -62.5 -166.5t-168.5 -61.5t-168.5 61.5t-62.5 166.5v266q0 105 62.5 166t168.5 61zM296 646q-74 0 -117.5 -42t-43.5 -115v-277q0 -72 43.5 -114.5t117.5 -42.5t118 42.5t44 114.5v277q0 73 -44 115t-118 42z" />
    <glyph glyph-name="P" unicode="P" horiz-adv-x="536" 
d="M130 701h159q100 0 155.5 -57.5t55.5 -147.5q0 -93 -53.5 -146t-149.5 -53h-141v-272q0 -16 -10 -25.5t-25 -9.5t-25 9.5t-10 25.5v633q0 18 13 30.5t31 12.5zM289 636h-133v-275h133q69 0 105.5 36.5t36.5 98.5q0 63 -39 101.5t-103 38.5z" />
    <glyph glyph-name="Q" unicode="Q" horiz-adv-x="599" 
d="M296 711q106 0 168.5 -61t62.5 -166v-266q0 -72 -34.5 -126t-93.5 -73l202 -55q28 -7 28 -33q0 -13 -9.5 -22.5t-22.5 -9.5q-10 0 -25 4l-341 94q-166 46 -166 221v266q0 105 62.5 166t168.5 61zM296 646q-74 0 -117.5 -42.5t-43.5 -114.5v-277q0 -72 43.5 -114.5
t117.5 -42.5t118 42.5t44 114.5v277q0 73 -44 115t-118 42z" />
    <glyph glyph-name="R" unicode="R" horiz-adv-x="569" 
d="M130 701h180q95 0 148.5 -55t53.5 -143q0 -76 -42 -124.5t-114 -59.5l157 -273q7 -11 7 -21q0 -14 -10.5 -24.5t-24.5 -10.5q-18 0 -28 15l-178 305h-123v-285q0 -16 -10 -25.5t-25 -9.5t-25 9.5t-10 25.5v633q0 18 13 30.5t31 12.5zM310 636h-154v-261h154q61 0 97 33.5
t36 93.5t-35.5 97t-97.5 37z" />
    <glyph glyph-name="S" unicode="S" horiz-adv-x="501" 
d="M250 711q99 0 168 -34q20 -10 20 -32q0 -14 -8.5 -23t-21.5 -9q-8 0 -30 8q-68 25 -132 25q-55 0 -93 -31t-38 -76q0 -43 21.5 -69t69.5 -49l116 -57q40 -21 65.5 -39.5t47.5 -57.5t22 -91q0 -86 -61 -136t-151 -50q-94 0 -178 38q-22 10 -22 32q0 14 9 23.5t23 9.5
q11 0 30 -9q62 -29 138 -29q61 0 101.5 31.5t40.5 87.5q0 49 -25 77.5t-79 55.5l-117 58q-121 60 -121 172q0 76 57.5 125t147.5 49z" />
    <glyph glyph-name="T" unicode="T" horiz-adv-x="501" 
d="M47 701h407q14 0 24 -9.5t10 -23.5t-10 -24t-24 -10h-169v-609q0 -15 -10.5 -25t-24.5 -10t-24.5 10t-10.5 25v609h-168q-15 0 -24.5 10t-9.5 24t9.5 23.5t24.5 9.5z" />
    <glyph glyph-name="U" unicode="U" horiz-adv-x="618" 
d="M508 711q14 0 24 -10t10 -25v-455q0 -109 -61 -170t-172 -61q-113 0 -173 61t-60 170v455q0 15 10.5 25t24.5 10t24 -10t10 -25v-458q0 -76 43.5 -119.5t120.5 -43.5q78 0 121 43.5t43 119.5v458q0 15 10 25t25 10z" />
    <glyph glyph-name="V" unicode="V" horiz-adv-x="527" 
d="M264 102l180 584q8 25 34 25q14 0 24 -9.5t10 -22.5q0 -7 -4 -21l-198 -630q-12 -38 -46 -38t-46 38l-198 630q-4 14 -4 21q0 13 10 22.5t24 9.5q26 0 34 -25z" />
    <glyph glyph-name="W" unicode="W" horiz-adv-x="784" 
d="M726 711q14 0 24 -9.5t10 -21.5q0 -10 -3 -19l-151 -634q-9 -37 -45 -37t-45 38l-124 542l-124 -542q-9 -38 -45 -38t-45 37l-151 634q-3 9 -3 19q0 12 10 21.5t24 9.5q28 0 33 -25l132 -560l124 547q9 38 45 38t45 -38l124 -547l132 560q5 25 33 25z" />
    <glyph glyph-name="X" unicode="X" horiz-adv-x="514" 
d="M461 711q13 0 23 -9.5t10 -24.5q0 -9 -7 -20l-190 -303l194 -309q8 -11 8 -22q0 -14 -10 -23.5t-24 -9.5q-18 0 -27 14l-181 295l-180 -295q-9 -14 -28 -14q-14 0 -24 9.5t-10 23.5q0 11 8 22l194 309l-190 303q-7 12 -7 20q0 15 10 24.5t24 9.5q19 0 27 -14l176 -288
l175 287q8 15 29 15z" />
    <glyph glyph-name="Y" unicode="Y" horiz-adv-x="496" 
d="M283 312v-287q0 -15 -10 -25t-25 -10q-16 0 -25.5 10t-9.5 25v287l-191 345q-7 12 -7 21q0 14 10 23.5t24 9.5q20 0 29 -16l170 -314l170 314q9 16 29 16q14 0 24 -9.5t10 -23.5q0 -9 -7 -21z" />
    <glyph glyph-name="Z" unicode="Z" horiz-adv-x="517" 
d="M67 701h373q19 0 30.5 -11.5t11.5 -27.5q0 -11 -8 -22l-352 -574h331q14 0 23.5 -9t9.5 -24t-9.5 -24t-23.5 -9h-381q-18 0 -29 11t-11 27q0 13 8 25l352 572h-325q-14 0 -23.5 9t-9.5 24q0 14 9.5 23.5t23.5 9.5z" />
    <glyph glyph-name="bracketleft" unicode="[" horiz-adv-x="362" 
d="M114 779h134q15 0 24 -9t9 -23t-9 -23.5t-24 -9.5h-104v-794h104q15 0 24 -9.5t9 -23.5t-9 -23t-24 -9h-134q-15 0 -26.5 10.5t-11.5 26.5v849q0 15 11 26.5t27 11.5z" />
    <glyph glyph-name="backslash" unicode="\" horiz-adv-x="575" 
d="M155 711q24 0 33 -22l261 -650q3 -8 3 -16q0 -14 -9 -23.5t-23 -9.5q-24 0 -33 21l-261 651q-3 7 -3 16q0 14 9 23.5t23 9.5z" />
    <glyph glyph-name="bracketright" unicode="]" horiz-adv-x="362" 
d="M114 779h134q15 0 26.5 -10.5t11.5 -26.5v-849q0 -15 -11 -26.5t-27 -11.5h-134q-15 0 -24 9t-9 23t9 23.5t24 9.5h104v794h-104q-15 0 -24 9.5t-9 23.5t9 23t24 9z" />
    <glyph glyph-name="asciicircum" unicode="^" 
d="M265 711q20 0 31 -18l178 -279q6 -9 6 -19q0 -13 -9.5 -22.5t-23.5 -9.5q-18 0 -28 16l-154 245l-154 -245q-10 -16 -28 -16q-14 0 -23.5 10t-9.5 23q0 8 6 18l177 279q11 18 32 18z" />
    <glyph glyph-name="underscore" unicode="_" horiz-adv-x="565" 
d="M61 -82h443q14 0 23 -9.5t9 -23.5t-9 -23t-23 -9h-443q-14 0 -23 9t-9 23t9 23.5t23 9.5z" />
    <glyph glyph-name="grave" unicode="`" horiz-adv-x="508" 
d="M171 723q6 0 14 -4l121 -60q21 -11 21 -29q0 -13 -9 -22t-22 -9q-5 0 -13 4l-121 60q-21 11 -21 29q0 13 9 22t21 9z" />
    <glyph glyph-name="a" unicode="a" horiz-adv-x="492" 
d="M241 510q77 0 127 -38.5t50 -110.5v-307q0 -31 -29 -41q-66 -23 -144 -23q-197 0 -197 153q0 78 55 115t141 37h106v66q0 39 -28 62.5t-78 23.5q-54 0 -100 -23q-22 -11 -34 -11t-21.5 9t-9.5 22q0 18 16 28q66 38 146 38zM350 232h-108q-126 0 -126 -90q0 -50 33 -69.5
t96 -19.5q49 0 105 16v163z" />
    <glyph glyph-name="b" unicode="b" horiz-adv-x="518" 
d="M115 711q15 0 24.5 -9.5t9.5 -24.5v-206q56 39 123 39q81 0 130 -47t49 -135v-155q0 -89 -49.5 -136t-135.5 -47q-85 0 -156 26q-29 10 -29 41v620q0 15 10 24.5t24 9.5zM266 447q-65 0 -117 -44v-333q52 -17 117 -17q56 0 86.5 30.5t30.5 84.5v164q0 55 -30.5 85
t-86.5 30z" />
    <glyph glyph-name="c" unicode="c" horiz-adv-x="420" 
d="M245 510q73 0 134 -32q19 -10 19 -29q0 -13 -9 -22t-22 -9q-9 0 -35 11q-43 18 -89 18q-53 0 -84 -32t-31 -89v-152q0 -57 31 -89t84 -32q46 0 89 18q26 11 34 11q14 0 23 -9t9 -23q0 -18 -19 -29q-54 -31 -134 -31q-85 0 -135 49.5t-50 134.5v152q0 85 50.5 134.5
t134.5 49.5z" />
    <glyph glyph-name="d" unicode="d" horiz-adv-x="518" 
d="M403 711q14 0 24 -9.5t10 -24.5v-620q0 -31 -30 -41q-71 -26 -155 -26q-86 0 -136 46.5t-50 135.5v156q0 88 49.5 135t129.5 47q68 0 124 -39v206q0 15 9.5 24.5t24.5 9.5zM252 447q-56 0 -87 -30t-31 -85v-165q0 -54 31 -84t87 -30q65 0 117 17v333q-53 44 -117 44z" />
    <glyph glyph-name="e" unicode="e" horiz-adv-x="490" 
d="M245 510q85 0 135 -50.5t50 -133.5v-58q0 -17 -12 -30t-32 -13h-258v-54q0 -52 30 -85t87 -33q53 0 111 23q16 6 24 6q13 0 22.5 -9t9.5 -22q0 -20 -19 -29q-70 -32 -148 -32q-86 0 -135.5 51t-49.5 133v152q0 84 50 134t135 50zM245 447q-57 0 -87 -31.5t-30 -86.5v-40
h234v38q0 56 -30 88t-87 32z" />
    <glyph glyph-name="f" unicode="f" horiz-adv-x="308" 
d="M216 711q28 0 56 -5q28 -7 28 -31q0 -13 -9 -21t-22 -8q-5 0 -20 2.5t-30 2.5q-31 0 -50.5 -19.5t-19.5 -47.5v-84h117q16 0 25 -9t9 -24q0 -14 -9.5 -23t-24.5 -9h-117v-411q0 -15 -9.5 -24.5t-24.5 -9.5q-14 0 -24 9.5t-10 24.5v553q0 62 37 98t98 36z" />
    <glyph glyph-name="g" unicode="g" horiz-adv-x="522" 
d="M252 510q84 0 155 -26q30 -10 30 -41v-484q0 -81 -50 -131.5t-134 -50.5q-79 0 -145 32q-16 9 -16 27q0 13 8 21.5t23 8.5q9 0 18 -4q55 -25 112 -25t88 33t31 87v73q-58 -40 -124 -40q-85 0 -133.5 47.5t-48.5 135.5v154q0 89 50 136t136 47zM252 447q-56 0 -87 -30.5
t-31 -84.5v-165q0 -55 31 -84.5t87 -29.5q65 0 117 44v332q-56 18 -117 18z" />
    <glyph glyph-name="h" unicode="h" horiz-adv-x="525" 
d="M115 711q15 0 24.5 -9.5t9.5 -24.5v-204q63 37 126 37q84 0 129.5 -47.5t45.5 -135.5v-303q0 -15 -10 -24.5t-24 -9.5q-15 0 -24.5 9.5t-9.5 24.5v308q0 56 -30 85.5t-84 29.5q-61 0 -119 -43v-380q0 -15 -9.5 -24.5t-24.5 -9.5q-14 0 -24 9.5t-10 24.5v653q0 15 10 24.5
t24 9.5z" />
    <glyph glyph-name="i" unicode="i" horiz-adv-x="230" 
d="M115 510q14 0 24 -9.5t10 -24.5v-452q0 -15 -10 -24.5t-24 -9.5q-15 0 -24.5 9.5t-9.5 24.5v452q0 15 9.5 24.5t24.5 9.5zM115 689q17 0 30 -12.5t13 -30.5q0 -17 -13 -30t-30 -13q-18 0 -31 13t-13 30q0 18 13 30.5t31 12.5z" />
    <glyph glyph-name="j" unicode="j" horiz-adv-x="250" 
d="M131 510q14 0 24 -9.5t10 -24.5v-504q0 -147 -118 -189q-20 -6 -32 -6q-14 0 -23.5 8.5t-9.5 22.5q0 25 28 33q87 20 87 131v504q0 15 9.5 24.5t24.5 9.5zM131 689q17 0 30 -12.5t13 -30.5q0 -17 -13 -30t-30 -13q-18 0 -31 13t-13 30q0 18 13 30.5t31 12.5z" />
    <glyph glyph-name="k" unicode="k" horiz-adv-x="458" 
d="M115 711q15 0 24.5 -9.5t9.5 -24.5v-357l212 180q13 10 26 10q14 0 23 -9t9 -24q0 -16 -13 -26l-206 -171l218 -234q10 -10 10 -23t-9 -23t-24 -10t-26 12l-220 240v-218q0 -15 -10 -24.5t-24 -9.5t-24 9.5t-10 24.5v653q0 15 9.5 24.5t24.5 9.5z" />
    <glyph glyph-name="l" unicode="l" horiz-adv-x="230" 
d="M115 711q15 0 24.5 -9.5t9.5 -24.5v-653q0 -15 -9.5 -24.5t-24.5 -9.5q-14 0 -24 9.5t-10 24.5v653q0 15 10 24.5t24 9.5z" />
    <glyph glyph-name="m" unicode="m" horiz-adv-x="780" 
d="M529 510q79 0 127.5 -46t48.5 -129v-310q0 -16 -9.5 -25.5t-24.5 -9.5t-24.5 9.5t-9.5 25.5v312q0 52 -30.5 81t-76.5 29q-53 0 -103 -38v-384q0 -16 -9.5 -25.5t-24.5 -9.5t-24.5 9.5t-9.5 25.5v353q0 34 -37 55q-25 14 -60 14q-46 0 -113 -18v-404q0 -16 -9.5 -25.5
t-24.5 -9.5t-24.5 9.5t-9.5 25.5v418q0 31 33 42q82 25 151 25q78 0 126 -48q62 48 138 48z" />
    <glyph glyph-name="n" unicode="n" horiz-adv-x="526" 
d="M266 510q91 0 138 -46.5t47 -132.5v-307q0 -15 -10 -24.5t-24 -9.5q-15 0 -24.5 9.5t-9.5 24.5v308q0 55 -30 85t-87 30q-55 0 -117 -18v-405q0 -15 -9.5 -24.5t-24.5 -9.5q-14 0 -24 9.5t-10 24.5v419q0 32 34 42q82 25 151 25z" />
    <glyph glyph-name="o" unicode="o" horiz-adv-x="508" 
d="M254 510q90 0 142 -51.5t52 -141.5v-135q0 -89 -51.5 -140.5t-142.5 -51.5q-89 0 -141.5 51t-52.5 141v135q0 90 52 141.5t142 51.5zM254 447q-57 0 -91.5 -33t-34.5 -92v-145q0 -58 34.5 -91t91.5 -33t91.5 33t34.5 91v145q0 59 -34.5 92t-91.5 33z" />
    <glyph glyph-name="p" unicode="p" horiz-adv-x="518" 
d="M266 510q86 0 135.5 -47t49.5 -136v-155q0 -88 -49 -135t-130 -47q-66 0 -123 38v-217q0 -15 -9.5 -24.5t-24.5 -9.5q-14 0 -24 9.5t-10 24.5v632q0 31 29 41q71 26 156 26zM266 447q-61 0 -117 -18v-332q52 -44 117 -44q56 0 86.5 29.5t30.5 84.5v165q0 54 -30.5 84.5
t-86.5 30.5z" />
    <glyph glyph-name="q" unicode="q" horiz-adv-x="518" 
d="M252 510q84 0 155 -26q30 -10 30 -41v-632q0 -15 -10 -24.5t-24 -9.5q-15 0 -24.5 9.5t-9.5 24.5v217q-57 -38 -124 -38q-80 0 -129.5 47t-49.5 135v155q0 89 50 136t136 47zM252 447q-56 0 -87 -30.5t-31 -84.5v-165q0 -55 31 -84.5t87 -29.5q64 0 117 44v332
q-56 18 -117 18z" />
    <glyph glyph-name="r" unicode="r" horiz-adv-x="337" 
d="M214 510q37 0 72 -7q28 -7 28 -33q0 -13 -9.5 -22t-23.5 -9q-4 0 -24.5 3.5t-38.5 3.5q-30 0 -49.5 -20.5t-19.5 -54.5v-347q0 -15 -9.5 -24.5t-24.5 -9.5q-14 0 -24 9.5t-10 24.5v349q0 62 37 99.5t96 37.5z" />
    <glyph glyph-name="s" unicode="s" horiz-adv-x="427" 
d="M211 510q67 0 128 -27q20 -9 20 -29q0 -14 -9 -22.5t-22 -8.5q-11 0 -24 5q-48 19 -92 19q-36 0 -63.5 -19.5t-27.5 -52.5q0 -45 65 -73l87 -37q99 -42 99 -130q0 -64 -44.5 -104.5t-117.5 -40.5q-74 0 -136 30q-19 10 -19 28q0 14 8.5 22.5t22.5 8.5q4 0 23 -7
q52 -19 98 -19q44 0 71.5 23t27.5 57q0 52 -86 87l-74 31q-91 38 -91 125q0 60 44.5 97t111.5 37z" />
    <glyph glyph-name="t" unicode="t" horiz-adv-x="321" 
d="M115 711q15 0 24.5 -9.5t9.5 -24.5v-177h117q16 0 25 -9t9 -24q0 -14 -9.5 -23t-24.5 -9h-117v-303q0 -78 69 -78q15 0 29.5 2.5t19.5 2.5q14 0 23.5 -8.5t9.5 -23.5q0 -27 -29 -32q-26 -5 -55 -5q-60 0 -97.5 37t-37.5 106v544q0 15 10 24.5t24 9.5z" />
    <glyph glyph-name="u" unicode="u" horiz-adv-x="526" 
d="M411 510q15 0 24.5 -9.5t9.5 -24.5v-420q0 -30 -33 -41q-77 -25 -151 -25q-91 0 -138 46.5t-47 132.5v307q0 15 9.5 24.5t24.5 9.5q14 0 24 -9.5t10 -24.5v-309q0 -55 30 -84.5t87 -29.5q55 0 116 18v405q0 15 10 24.5t24 9.5z" />
    <glyph glyph-name="v" unicode="v" horiz-adv-x="442" 
d="M383 510q16 0 24.5 -9.5t8.5 -23.5q0 -11 -2 -16l-148 -440q-11 -31 -45 -31t-45 31l-147 440q-3 8 -3 16q0 14 8.5 23.5t24.5 9.5q25 0 33 -25l129 -396l129 396q8 25 33 25z" />
    <glyph glyph-name="w" unicode="w" horiz-adv-x="699" 
d="M632 510q15 0 24 -10t9 -23q0 -8 -3 -16l-127 -436q-10 -35 -44 -35q-32 0 -42 34l-99 357l-100 -357q-10 -34 -44 -34q-32 0 -42 35l-127 436q-3 8 -3 16q0 13 9 23t24 10q26 0 33 -24l107 -395l103 388q8 31 39 31t39 -31l104 -387l107 394q7 24 33 24z" />
    <glyph glyph-name="x" unicode="x" horiz-adv-x="442" 
d="M370 510q16 0 25 -9t9 -24q0 -9 -9 -23l-133 -200l137 -209q8 -14 8 -22q0 -15 -9.5 -24t-24.5 -9q-18 0 -28 16l-124 193l-124 -193q-10 -16 -28 -16q-15 0 -24.5 9.5t-9.5 23.5q0 8 8 22l137 209l-133 200q-8 12 -8 23q0 15 9 24t24 9q19 0 29 -15l120 -188l121 188
q10 15 28 15z" />
    <glyph glyph-name="y" unicode="y" horiz-adv-x="460" 
d="M403 510q16 0 24.5 -9.5t8.5 -23.5q0 -7 -3 -16l-193 -559q-44 -125 -179 -125q-15 0 -24.5 9t-9.5 24q0 30 32 32q90 2 117 81l27 76l-172 462q-3 9 -3 16q0 14 8.5 23.5t24.5 9.5q24 0 33 -25l144 -397l132 397q8 25 33 25z" />
    <glyph glyph-name="z" unicode="z" horiz-adv-x="440" 
d="M77 500h283q16 0 27 -11t11 -27q0 -12 -9 -25l-258 -372h237q14 0 23 -9.5t9 -23.5t-9 -23t-23 -9h-291q-16 0 -27 11t-11 27q0 12 10 26l258 371h-230q-15 0 -24 9t-9 23t9 23.5t24 9.5z" />
    <glyph glyph-name="braceleft" unicode="{" horiz-adv-x="416" 
d="M317 779q15 0 24.5 -9t9.5 -23t-9.5 -23.5t-24.5 -9.5q-33 0 -56 -22.5t-23 -54.5v-196q0 -84 -76 -124q76 -39 76 -124v-196q0 -32 23 -54.5t56 -22.5q15 0 24.5 -9.5t9.5 -23.5t-9.5 -23t-24.5 -9q-63 0 -105 40.5t-42 103.5v194q0 34 -22.5 58.5t-56.5 31.5
q-14 2 -22.5 11.5t-8.5 22.5t8.5 22.5t22.5 11.5q34 7 56.5 31.5t22.5 58.5v194q0 62 41.5 103t105.5 41z" />
    <glyph glyph-name="bar" unicode="|" horiz-adv-x="335" 
d="M167 779q15 0 24.5 -9.5t9.5 -24.5v-934q0 -15 -9.5 -24.5t-24.5 -9.5q-14 0 -24 9.5t-10 24.5v934q0 15 10 24.5t24 9.5z" />
    <glyph glyph-name="braceright" unicode="}" horiz-adv-x="416" 
d="M99 779q63 0 105 -40.5t42 -103.5v-194q0 -34 22.5 -58.5t56.5 -31.5q14 -2 22.5 -11.5t8.5 -22.5t-8.5 -22.5t-22.5 -11.5q-34 -7 -56.5 -31.5t-22.5 -58.5v-194q0 -62 -41.5 -103t-105.5 -41q-15 0 -24.5 9t-9.5 23t9.5 23.5t24.5 9.5q33 0 56 22.5t23 54.5v196
q0 84 76 124q-76 39 -76 124v196q0 32 -23 54.5t-56 22.5q-15 0 -24.5 9.5t-9.5 23.5t9.5 23t24.5 9z" />
    <glyph glyph-name="asciitilde" unicode="~" 
d="M166 322q45 0 103 -30q64 -31 90 -31q47 0 85 43q9 10 23 10t22.5 -8.5t8.5 -21.5q0 -12 -8 -23q-47 -65 -124 -65q-44 0 -104 30q-3 2 -16.5 8.5t-19 9t-16 6.5t-20 5.5t-18.5 1.5q-47 0 -85 -43q-9 -10 -23 -10t-22.5 8.5t-8.5 21.5t7 22q48 66 126 66z" />
    <glyph glyph-name="uni00A0" unicode="&#xa0;" horiz-adv-x="262" 
 />
    <glyph glyph-name="exclamdown" unicode="&#xa1;" horiz-adv-x="385" 
d="M195 -223q-14 0 -24 9.5t-10 24.5v452q0 14 10 23.5t24 9.5q15 0 24.5 -9.5t9.5 -23.5v-452q0 -15 -9.5 -24.5t-24.5 -9.5zM195 400q-20 0 -34.5 14.5t-14.5 34.5t14.5 34.5t34.5 14.5t34.5 -14.5t14.5 -34.5t-14.5 -34.5t-34.5 -14.5z" />
    <glyph glyph-name="cent" unicode="&#xa2;" 
d="M276 711q14 0 24 -9.5t10 -24.5v-98q62 -5 106 -29q19 -10 19 -29q0 -13 -8.5 -22t-22.5 -9q-11 0 -35 11q-38 18 -89 18q-53 0 -84 -32t-31 -89v-97q0 -56 31 -88t84 -32q51 0 89 18q24 11 34 11q14 0 23 -9t9 -23q0 -19 -19 -29q-47 -24 -106 -29v-96q0 -15 -10 -24.5
t-24 -9.5q-15 0 -24.5 9.5t-9.5 24.5v99q-67 11 -106 58.5t-39 119.5v97q0 74 39 121.5t106 57.5v100q0 15 9.5 24.5t24.5 9.5z" />
    <glyph glyph-name="sterling" unicode="&#xa3;" 
d="M330 711q49 0 102 -29q17 -10 17 -30q0 -13 -9.5 -22.5t-22.5 -9.5q-7 0 -23 8q-38 18 -64 18q-50 0 -78 -28t-28 -78v-108h193q14 0 23 -9t9 -23t-9 -23.5t-23 -9.5h-193v-117q0 -108 -64 -185h273q15 0 24 -9.5t9 -23.5t-9 -23t-24 -9h-334q-13 0 -23.5 10t-10.5 24
q0 15 11 26q80 78 80 190v117h-58q-14 0 -23 9.5t-9 23.5t9 23t23 9h58v107q0 78 47.5 125t126.5 47z" />
    <glyph glyph-name="currency" unicode="&#xa4;" 
d="M468 585q13 0 22.5 -9.5t9.5 -22.5t-10 -23l-70 -70q35 -49 35 -110t-35 -110l70 -70q10 -10 10 -23t-9.5 -22.5t-22.5 -9.5t-23 10l-70 71q-49 -35 -109 -35q-61 0 -109 35l-71 -71q-10 -10 -23 -10t-22.5 9.5t-9.5 22.5t10 23l71 71q-35 49 -35 109t35 109l-71 71
q-10 10 -10 23t9.5 22.5t22.5 9.5t23 -10l71 -71q48 35 109 35q60 0 109 -35l70 71q10 10 23 10zM266 475q-52 0 -88.5 -36.5t-36.5 -88.5t36.5 -88.5t88.5 -36.5t88.5 36.5t36.5 88.5q0 51 -37 88t-88 37z" />
    <glyph glyph-name="yen" unicode="&#xa5;" 
d="M464 711q14 0 23.5 -9.5t9.5 -23.5q0 -8 -7 -21l-159 -291h97q13 0 21.5 -8.5t8.5 -21.5t-8.5 -21.5t-21.5 -8.5h-128v-100h128q13 0 21.5 -8.5t8.5 -21.5t-8.5 -21.5t-21.5 -8.5h-128v-121q0 -15 -10 -25t-25 -10q-16 0 -25.5 10t-9.5 25v121h-118q-13 0 -21.5 8.5
t-8.5 21.5t8.5 21.5t21.5 8.5h118v100h-118q-13 0 -21.5 8.5t-8.5 21.5t8.5 21.5t21.5 8.5h87l-160 291q-7 12 -7 21q0 14 10 23.5t24 9.5q20 0 29 -16l170 -315l170 314q9 17 29 17z" />
    <glyph glyph-name="brokenbar" unicode="&#xa6;" horiz-adv-x="335" 
d="M167 779q15 0 24.5 -9.5t9.5 -24.5v-342q0 -15 -9.5 -24.5t-24.5 -9.5q-14 0 -24 9.5t-10 24.5v342q0 15 10 24.5t24 9.5zM167 187q15 0 24.5 -9.5t9.5 -24.5v-342q0 -15 -9.5 -24.5t-24.5 -9.5q-14 0 -24 9.5t-10 24.5v342q0 15 10 24.5t24 9.5z" />
    <glyph glyph-name="section" unicode="&#xa7;" 
d="M269 711q66 0 135 -27q23 -9 23 -32q0 -13 -9 -21.5t-22 -8.5t-24 5q-53 21 -103 21q-45 0 -75.5 -24.5t-30.5 -65.5q0 -33 18.5 -52.5t50.5 -35.5l103 -49q101 -48 101 -151q0 -77 -59 -134q59 -46 59 -121q0 -72 -51 -113.5t-122 -41.5t-142 29q-25 11 -25 33
q0 13 8 21.5t23 8.5q11 0 24 -5q65 -24 112 -24q43 0 74 25t31 67q0 62 -73 97l-100 48q-100 48 -100 143q0 79 62 139q-62 46 -62 116q0 72 51 112.5t123 40.5zM307 364l-93 46q-54 -46 -54 -107q0 -55 62 -86l99 -48q49 43 49 101q0 62 -63 94z" />
    <glyph glyph-name="dieresis" unicode="&#xa8;" horiz-adv-x="477" 
d="M327 689q18 0 30.5 -12.5t12.5 -30.5q0 -17 -12.5 -30t-30.5 -13t-30.5 13t-12.5 30q0 18 12.5 30.5t30.5 12.5zM151 689q18 0 30.5 -12.5t12.5 -30.5q0 -17 -12.5 -30t-30.5 -13t-30.5 13t-12.5 30q0 18 12.5 30.5t30.5 12.5z" />
    <glyph glyph-name="copyright" unicode="&#xa9;" horiz-adv-x="862" 
d="M431 711q149 0 255 -105.5t106 -254.5t-106 -255t-255 -106t-254.5 106t-105.5 255t105.5 254.5t254.5 105.5zM442 542q46 0 84 -24q15 -9 15 -25q0 -10 -7.5 -17.5t-17.5 -7.5q-8 0 -16 5q-29 17 -58 17q-45 0 -67.5 -23.5t-22.5 -62.5v-108q0 -38 22.5 -61.5
t67.5 -23.5q28 0 58 16q10 5 16 5q10 0 17.5 -7t7.5 -18q0 -17 -15 -24q-48 -24 -84 -24q-65 0 -104.5 38.5t-39.5 100.5v105q0 62 39.5 100.5t104.5 38.5zM431 657q-127 0 -216.5 -89.5t-89.5 -216.5t89.5 -217t216.5 -90t217 90t90 217t-90 216.5t-217 89.5z" />
    <glyph glyph-name="ordfeminine" unicode="&#xaa;" horiz-adv-x="350" 
d="M177 711q46 0 74.5 -25.5t28.5 -69.5v-171q0 -21 -19 -27q-39 -14 -91 -14q-51 0 -79.5 24t-28.5 67q0 39 26 63.5t82 24.5h66v34q0 25 -17.5 39t-42.5 14q-30 0 -60 -13q-10 -4 -16 -4q-20 0 -20 20q0 13 16 20q41 18 81 18zM236 542h-66q-64 0 -64 -48q0 -50 64 -50
q33 0 66 11v87z" />
    <glyph glyph-name="guillemotleft" unicode="&#xab;" horiz-adv-x="523" 
d="M419 461q15 0 24 -9.5t9 -24.5q0 -11 -7 -21l-109 -153l109 -153q7 -10 7 -21q0 -15 -9 -24.5t-24 -9.5q-17 0 -28 16l-118 165q-10 13 -10 27t10 27l117 166q11 15 29 15zM227 461q15 0 24 -9.5t9 -24.5q0 -11 -7 -21l-109 -153l109 -153q7 -10 7 -21q0 -15 -9 -24.5
t-24 -9.5q-17 0 -28 16l-118 165q-10 13 -10 27t10 27l117 166q11 15 29 15z" />
    <glyph glyph-name="logicalnot" unicode="&#xac;" 
d="M66 284h370q18 0 30.5 -12.5t12.5 -29.5v-181q0 -15 -9.5 -24.5t-24.5 -9.5q-14 0 -24 9.5t-10 24.5v158h-345q-15 0 -24 9.5t-9 23.5t9 23t24 9z" />
    <glyph glyph-name="uni00AD" unicode="&#xad;" horiz-adv-x="434" 
d="M103 328h228q14 0 23 -9t9 -23t-9 -23.5t-23 -9.5h-228q-14 0 -23 9.5t-9 23.5t9 23t23 9z" />
    <glyph glyph-name="registered" unicode="&#xae;" horiz-adv-x="862" 
d="M431 711q149 0 255 -105.5t106 -254.5t-106 -255t-255 -106t-254.5 106t-105.5 255t105.5 254.5t254.5 105.5zM431 657q-127 0 -216.5 -89.5t-89.5 -216.5t89.5 -217t216.5 -90t217 90t90 217t-90 216.5t-217 89.5zM357 539h93q50 0 79.5 -29.5t29.5 -79.5
q0 -37 -21 -62.5t-54 -33.5l72 -129q5 -10 5 -18q0 -11 -7.5 -18.5t-18.5 -7.5q-15 0 -23 15l-79 147h-55v-136q0 -11 -7.5 -18.5t-18.5 -7.5t-18.5 7.5t-7.5 18.5v321q0 13 9 22t22 9zM450 491h-72v-120h73q26 0 42 15.5t16 42.5t-15 44.5t-44 17.5z" />
    <glyph glyph-name="macron" unicode="&#xaf;" horiz-adv-x="508" 
d="M173 677h159q13 0 22 -9t9 -22t-9 -22t-22 -9h-159q-13 0 -22 9t-9 22t9 22t22 9z" />
    <glyph glyph-name="degree" unicode="&#xb0;" horiz-adv-x="410" 
d="M205 711q57 0 97.5 -40t40.5 -97t-40.5 -97.5t-97.5 -40.5t-97.5 40.5t-40.5 97.5t40.5 97t97.5 40zM205 657q-34 0 -58.5 -24.5t-24.5 -58.5q0 -35 24.5 -59.5t58.5 -24.5t58.5 24.5t24.5 59.5q0 34 -24.5 58.5t-58.5 24.5z" />
    <glyph glyph-name="plusminus" unicode="&#xb1;" 
d="M266 550q14 0 23.5 -10t9.5 -24v-150h167q14 0 23 -9.5t9 -23.5q0 -13 -9 -22.5t-23 -9.5h-167v-152q0 -14 -9.5 -24t-23.5 -10t-24 10t-10 24v152h-166q-14 0 -23.5 9t-9.5 23t9.5 23.5t23.5 9.5h166v150q0 14 10 24t24 10zM66 65h400q14 0 23 -9.5t9 -23.5t-9 -23
t-23 -9h-400q-14 0 -23.5 9t-9.5 23t9.5 23.5t23.5 9.5z" />
    <glyph glyph-name="twosuperior" unicode="&#xb2;" horiz-adv-x="312" 
d="M140 711q54 0 87 -30t33 -80q0 -43 -38 -95l-122 -168h140q10 0 16.5 -7t6.5 -16q0 -10 -6.5 -16.5t-16.5 -6.5h-181q-12 0 -20 7.5t-8 18.5q0 10 8 20l143 192q30 42 30 69q0 32 -20 49.5t-52 17.5q-34 0 -69 -16q-6 -3 -11 -3q-10 0 -16 6.5t-6 16.5q0 12 12 19
q40 22 90 22z" />
    <glyph glyph-name="threesuperior" unicode="&#xb3;" horiz-adv-x="320" 
d="M139 711q54 0 85 -31.5t31 -80.5q0 -60 -51 -91q30 -13 46.5 -40.5t16.5 -60.5q0 -53 -34 -87t-92 -34q-56 0 -96 21q-14 7 -14 21q0 10 6.5 16t16.5 6q5 0 11 -3q35 -16 76 -16q37 0 58 20t21 56q0 34 -24 55.5t-61 21.5h-12q-10 0 -16.5 6.5t-6.5 15.5t6.5 16t16.5 7
h12q32 0 52.5 19.5t20.5 49.5q0 32 -18.5 50t-51.5 18q-35 0 -70 -16q-6 -3 -11 -3q-10 0 -16.5 6.5t-6.5 16.5q0 13 12 19q43 22 93 22z" />
    <glyph glyph-name="acute" unicode="&#xb4;" horiz-adv-x="508" 
d="M330 723q13 0 22 -9t9 -22q0 -18 -21 -29l-121 -60q-8 -4 -13 -4q-13 0 -22 9t-9 22q0 19 21 29l121 60q8 4 13 4z" />
    <glyph glyph-name="mu" unicode="&#xb5;" 
d="M421 510q15 0 24.5 -9.5t9.5 -24.5v-420q0 -31 -34 -41q-75 -25 -150 -25q-73 0 -118 30v-209q0 -15 -9.5 -24.5t-24.5 -9.5q-14 0 -24 9.5t-10 24.5v665q0 15 10 24.5t24 9.5q15 0 24.5 -9.5t9.5 -24.5v-309q0 -54 30.5 -84t87.5 -30q55 0 116 18v405q0 15 10 24.5
t24 9.5z" />
    <glyph glyph-name="paragraph" unicode="&#xb6;" 
d="M190 701h258q17 0 29 -11.5t12 -28.5v-850q0 -15 -10 -24.5t-24 -9.5t-24 9.5t-10 24.5v825h-126v-825q0 -15 -9.5 -24.5t-24.5 -9.5q-14 0 -24 9.5t-10 24.5v553h-37q-72 0 -120 48t-48 120t48 120.5t120 48.5z" />
    <glyph glyph-name="periodcentered" unicode="&#xb7;" horiz-adv-x="218" 
d="M109 349q20 0 34.5 -14.5t14.5 -34.5t-14.5 -34.5t-34.5 -14.5t-34.5 14.5t-14.5 34.5t14.5 34.5t34.5 14.5z" />
    <glyph glyph-name="cedilla" unicode="&#xb8;" horiz-adv-x="508" 
d="M261 33q11 0 18 -7t7 -17q0 -6 -2 -14l-9 -38q55 -25 55 -68q0 -36 -26.5 -63.5t-70.5 -40.5q-28 -8 -41 -8q-25 0 -25 25q0 22 24 25q27 3 55.5 18t28.5 40q0 26 -37 38q-20 7 -20 24q0 5 3 19l10 44q5 23 30 23z" />
    <glyph glyph-name="onesuperior" unicode="&#xb9;" horiz-adv-x="252" 
d="M143 711q12 0 19.5 -7.5t7.5 -19.5v-375q0 -10 -6.5 -16.5t-16.5 -6.5t-17 6.5t-7 16.5v342l-63 -35q-7 -4 -13 -4q-10 0 -17 6t-7 16q0 14 13 20l93 53q7 4 14 4z" />
    <glyph glyph-name="ordmasculine" unicode="&#xba;" horiz-adv-x="351" 
d="M176 711q52 0 83.5 -31t31.5 -83v-80q0 -51 -31.5 -82t-83.5 -31q-53 0 -84.5 31t-31.5 82v80q0 51 31 82.5t85 31.5zM176 668q-33 0 -51.5 -18.5t-18.5 -52.5v-80q0 -32 18.5 -51t51.5 -19q32 0 50.5 19t18.5 51v80q0 34 -18.5 52.5t-50.5 18.5z" />
    <glyph glyph-name="guillemotright" unicode="&#xbb;" horiz-adv-x="523" 
d="M296 460q17 0 28 -16l118 -165q10 -13 10 -27t-10 -27l-117 -166q-11 -15 -29 -15q-15 0 -24 9.5t-9 24.5q0 11 7 21l109 153l-109 153q-7 10 -7 21q0 15 9 24.5t24 9.5zM104 460q17 0 28 -16l118 -165q10 -13 10 -27t-10 -27l-117 -166q-11 -15 -29 -15q-15 0 -24 9.5
t-9 24.5q0 11 7 21l109 153l-109 153q-7 10 -7 21q0 15 9 24.5t24 9.5z" />
    <glyph glyph-name="onequarter" unicode="&#xbc;" horiz-adv-x="760" 
d="M529 711q11 0 18 -7t7 -17q0 -6 -6 -18l-354 -665q-8 -14 -22 -14q-11 0 -18 7t-7 17q0 6 6 18l354 665q8 14 22 14zM596 419q10 0 16.5 -6.5t6.5 -15.5q0 -6 -2 -12l-86 -243h99v79q0 10 7 17t17 7q9 0 16 -7t7 -17v-79h48q9 0 15.5 -6.5t6.5 -16.5q0 -9 -6.5 -16
t-15.5 -7h-48v-79q0 -10 -7 -16.5t-16 -6.5q-10 0 -17 6.5t-7 16.5v79h-126q-13 0 -20.5 8t-7.5 20q0 7 3 15l96 266q5 14 21 14zM143 711q12 0 19.5 -7.5t7.5 -19.5v-375q0 -10 -6.5 -16.5t-16.5 -6.5t-17 6.5t-7 16.5v342l-63 -35q-7 -4 -13 -4q-10 0 -17 6t-7 16
q0 14 13 20l93 53q7 4 14 4z" />
    <glyph glyph-name="onehalf" unicode="&#xbd;" horiz-adv-x="761" 
d="M529 711q11 0 18 -7t7 -17q0 -6 -6 -18l-354 -665q-8 -14 -22 -14q-11 0 -18 7t-7 17q0 6 6 18l354 665q8 14 22 14zM589 419q54 0 87 -30t33 -80q0 -43 -38 -95l-122 -168h140q10 0 16.5 -7t6.5 -16q0 -10 -6.5 -16.5t-16.5 -6.5h-181q-12 0 -20 7.5t-8 18.5q0 10 8 20
l143 192q30 42 30 69q0 32 -20 49.5t-52 17.5q-34 0 -69 -16q-6 -3 -11 -3q-10 0 -16 6.5t-6 16.5q0 12 12 19q40 22 90 22zM143 711q12 0 19.5 -7.5t7.5 -19.5v-375q0 -10 -6.5 -16.5t-16.5 -6.5t-17 6.5t-7 16.5v342l-63 -35q-7 -4 -13 -4q-10 0 -17 6t-7 16q0 14 13 20
l93 53q7 4 14 4z" />
    <glyph glyph-name="threequarters" unicode="&#xbe;" horiz-adv-x="828" 
d="M597 711q11 0 18 -7t7 -17q0 -6 -6 -18l-354 -665q-8 -14 -22 -14q-11 0 -18 7t-7 17q0 6 6 18l354 665q8 14 22 14zM664 419q10 0 16.5 -6.5t6.5 -15.5q0 -6 -2 -12l-86 -243h99v79q0 10 7 17t17 7q9 0 16 -7t7 -17v-79h48q9 0 15.5 -6.5t6.5 -16.5q0 -9 -6.5 -16
t-15.5 -7h-48v-79q0 -10 -7 -16.5t-16 -6.5q-10 0 -17 6.5t-7 16.5v79h-126q-13 0 -20.5 8t-7.5 20q0 7 3 15l96 266q5 14 21 14zM139 711q54 0 85 -31.5t31 -80.5q0 -60 -51 -91q30 -13 46.5 -40.5t16.5 -60.5q0 -53 -34 -87t-92 -34q-56 0 -96 21q-14 7 -14 21
q0 10 6.5 16t16.5 6q5 0 11 -3q35 -16 76 -16q37 0 58 20t21 56q0 34 -24 55.5t-61 21.5h-12q-10 0 -16.5 6.5t-6.5 15.5t6.5 16t16.5 7h12q32 0 52.5 19.5t20.5 49.5q0 32 -18.5 50t-51.5 18q-35 0 -70 -16q-6 -3 -11 -3q-10 0 -16.5 6.5t-6.5 16.5q0 13 12 19q43 22 93 22
z" />
    <glyph glyph-name="questiondown" unicode="&#xbf;" horiz-adv-x="481" 
d="M251 -223q-86 0 -138.5 47.5t-52.5 122.5q0 52 21 85.5t59 65.5q41 33 59.5 61t18.5 65v47q0 14 10 24t24 10t24 -10t10 -24v-46q0 -95 -90 -168q-32 -26 -50 -51.5t-18 -60.5q0 -47 35 -76t94 -29q48 0 103 26q10 5 19 5q14 0 22.5 -8.5t8.5 -22.5q0 -22 -20 -31
q-72 -32 -139 -32zM254 400q-20 0 -34.5 14.5t-14.5 34.5t14.5 34.5t34.5 14.5t34.5 -14.5t14.5 -34.5t-14.5 -34.5t-34.5 -14.5z" />
    <glyph glyph-name="Agrave" unicode="&#xc0;" horiz-adv-x="567" 
d="M284 711q28 0 38 -26l218 -646q3 -9 3 -16q0 -14 -9.5 -23.5t-24.5 -9.5q-25 0 -33 23l-56 173h-273l-56 -173q-8 -23 -33 -23q-15 0 -24.5 9.5t-9.5 23.5q0 7 3 16l218 646q10 26 39 26zM284 605l-116 -355h231zM208 915q6 0 16 -5l120 -60q21 -10 21 -29
q0 -13 -9 -21.5t-22 -8.5q-5 0 -13 4l-121 60q-21 11 -21 29q0 13 8.5 22t20.5 9z" />
    <glyph glyph-name="Aacute" unicode="&#xc1;" horiz-adv-x="567" 
d="M284 711q28 0 38 -26l218 -646q3 -9 3 -16q0 -14 -9.5 -23.5t-24.5 -9.5q-25 0 -33 23l-56 173h-273l-56 -173q-8 -23 -33 -23q-15 0 -24.5 9.5t-9.5 23.5q0 7 3 16l218 646q10 26 39 26zM284 605l-116 -355h231zM358 915q13 0 21.5 -9t8.5 -22q0 -18 -21 -29l-121 -60
q-8 -4 -13 -4q-13 0 -22 8.5t-9 21.5q0 19 21 29l121 61q9 4 14 4z" />
    <glyph glyph-name="Acircumflex" unicode="&#xc2;" horiz-adv-x="567" 
d="M284 711q28 0 38 -26l218 -646q3 -9 3 -16q0 -14 -9.5 -23.5t-24.5 -9.5q-25 0 -33 23l-56 173h-273l-56 -173q-8 -23 -33 -23q-15 0 -24.5 9.5t-9.5 23.5q0 7 3 16l218 646q10 26 39 26zM284 605l-116 -355h231zM284 915q10 0 19 -5l95 -60q18 -10 18 -28
q0 -13 -8.5 -22t-21.5 -9q-8 0 -15 5l-87 56l-87 -56q-7 -5 -15 -5q-13 0 -22 9t-9 22q0 15 19 28l95 60q9 5 19 5z" />
    <glyph glyph-name="Atilde" unicode="&#xc3;" horiz-adv-x="567" 
d="M284 711q28 0 38 -26l218 -646q3 -9 3 -16q0 -14 -9.5 -23.5t-24.5 -9.5q-25 0 -33 23l-56 173h-273l-56 -173q-8 -23 -33 -23q-15 0 -24.5 9.5t-9.5 23.5q0 7 3 16l218 646q10 26 39 26zM284 605l-116 -355h231zM395 883q14 0 22 -9t8 -20t-8 -22q-31 -41 -85 -41
q-27 0 -54 14.5t-41 14.5q-22 0 -47 -23q-8 -6 -17 -6q-13 0 -21.5 8.5t-8.5 19.5q0 12 8 23q31 41 85 41q27 0 54 -15t41 -15q20 0 47 23q8 7 17 7z" />
    <glyph glyph-name="Adieresis" unicode="&#xc4;" horiz-adv-x="567" 
d="M284 711q28 0 38 -26l218 -646q3 -9 3 -16q0 -14 -9.5 -23.5t-24.5 -9.5q-25 0 -33 23l-56 173h-273l-56 -173q-8 -23 -33 -23q-15 0 -24.5 9.5t-9.5 23.5q0 7 3 16l218 646q10 26 39 26zM284 605l-116 -355h231zM372 881q18 0 30.5 -12.5t12.5 -30.5q0 -17 -12.5 -30
t-30.5 -13t-30.5 13t-12.5 30q0 18 12.5 30.5t30.5 12.5zM196 881q18 0 30.5 -12.5t12.5 -30.5q0 -17 -12.5 -30t-30.5 -13t-30.5 13t-12.5 30q0 18 12.5 30.5t30.5 12.5z" />
    <glyph glyph-name="Aring" unicode="&#xc5;" horiz-adv-x="567" 
d="M284 711q28 0 38 -26l218 -646q3 -9 3 -16q0 -14 -9.5 -23.5t-24.5 -9.5q-25 0 -33 23l-56 173h-273l-56 -173q-8 -23 -33 -23q-15 0 -24.5 9.5t-9.5 23.5q0 7 3 16l218 646q10 26 39 26zM284 605l-116 -355h231zM284 962q39 0 66.5 -28t27.5 -67t-27.5 -67t-66.5 -28
q-40 0 -67.5 28t-27.5 67t27.5 67t67.5 28zM284 918q-22 0 -37 -14.5t-15 -36.5t15 -37t37 -15t36.5 15t14.5 37t-14.5 36.5t-36.5 14.5z" />
    <glyph glyph-name="AE" unicode="&#xc6;" horiz-adv-x="851" 
d="M443 701h319q15 0 24 -9.5t9 -23.5q0 -15 -9 -24.5t-24 -9.5h-273v-237h260q15 0 24.5 -9.5t9.5 -23.5t-9.5 -24t-24.5 -10h-260v-263h280q15 0 24 -9.5t9 -23.5q0 -15 -9 -24.5t-24 -9.5h-306q-18 0 -31 12.5t-13 30.5v143h-230l-100 -177q-11 -19 -31 -19
q-15 0 -24.5 9.5t-9.5 21.5q0 11 8 25l360 627q16 28 51 28zM419 593l-195 -343h195v343z" />
    <glyph glyph-name="Ccedilla" unicode="&#xc7;" horiz-adv-x="514" 
d="M304 711q69 0 142 -39q25 -14 25 -33q0 -12 -9.5 -22t-23.5 -10q-10 0 -22 7q-55 32 -112 32q-78 0 -123.5 -44.5t-45.5 -121.5v-259q0 -77 45.5 -121.5t123.5 -44.5q53 0 107 30q18 9 27 9q13 0 23 -9t10 -23q0 -18 -18 -30q-62 -42 -149 -42h-8l-8 -33q55 -25 55 -68
q0 -36 -26.5 -63.5t-70.5 -40.5q-28 -8 -41 -8q-25 0 -25 25q0 22 24 25q27 3 55.5 18t28.5 40q0 26 -37 38q-20 7 -20 24q0 5 3 19l7 31q-82 17 -129 76.5t-47 151.5v251q0 110 65.5 172.5t173.5 62.5z" />
    <glyph glyph-name="Egrave" unicode="&#xc8;" horiz-adv-x="518" 
d="M130 701h299q15 0 24 -9.5t9 -23.5q0 -15 -9 -24.5t-24 -9.5h-273v-237h260q15 0 24.5 -9.5t9.5 -23.5t-9.5 -24t-24.5 -10h-260v-263h280q15 0 24 -9.5t9 -23.5q0 -15 -9 -24.5t-24 -9.5h-306q-18 0 -31 12.5t-13 30.5v615q0 18 13 30.5t31 12.5zM198 915q6 0 16 -5
l120 -60q21 -10 21 -29q0 -13 -9 -21.5t-22 -8.5q-5 0 -13 4l-121 60q-21 11 -21 29q0 13 8.5 22t20.5 9z" />
    <glyph glyph-name="Eacute" unicode="&#xc9;" horiz-adv-x="518" 
d="M130 701h299q15 0 24 -9.5t9 -23.5q0 -15 -9 -24.5t-24 -9.5h-273v-237h260q15 0 24.5 -9.5t9.5 -23.5t-9.5 -24t-24.5 -10h-260v-263h280q15 0 24 -9.5t9 -23.5q0 -15 -9 -24.5t-24 -9.5h-306q-18 0 -31 12.5t-13 30.5v615q0 18 13 30.5t31 12.5zM349 915q13 0 21.5 -9
t8.5 -22q0 -18 -21 -29l-121 -60q-8 -4 -13 -4q-13 0 -22 8.5t-9 21.5q0 19 21 29l121 61q9 4 14 4z" />
    <glyph glyph-name="Ecircumflex" unicode="&#xca;" horiz-adv-x="518" 
d="M130 701h299q15 0 24 -9.5t9 -23.5q0 -15 -9 -24.5t-24 -9.5h-273v-237h260q15 0 24.5 -9.5t9.5 -23.5t-9.5 -24t-24.5 -10h-260v-263h280q15 0 24 -9.5t9 -23.5q0 -15 -9 -24.5t-24 -9.5h-306q-18 0 -31 12.5t-13 30.5v615q0 18 13 30.5t31 12.5zM274 915q10 0 19 -5
l95 -60q18 -10 18 -28q0 -13 -8.5 -22t-21.5 -9q-8 0 -15 5l-87 56l-87 -56q-7 -5 -15 -5q-13 0 -22 9t-9 22q0 15 19 28l95 60q9 5 19 5z" />
    <glyph glyph-name="Edieresis" unicode="&#xcb;" horiz-adv-x="518" 
d="M130 701h299q15 0 24 -9.5t9 -23.5q0 -15 -9 -24.5t-24 -9.5h-273v-237h260q15 0 24.5 -9.5t9.5 -23.5t-9.5 -24t-24.5 -10h-260v-263h280q15 0 24 -9.5t9 -23.5q0 -15 -9 -24.5t-24 -9.5h-306q-18 0 -31 12.5t-13 30.5v615q0 18 13 30.5t31 12.5zM362 881
q18 0 30.5 -12.5t12.5 -30.5q0 -17 -12.5 -30t-30.5 -13t-30.5 13t-12.5 30q0 18 12.5 30.5t30.5 12.5zM186 881q18 0 30.5 -12.5t12.5 -30.5q0 -17 -12.5 -30t-30.5 -13t-30.5 13t-12.5 30q0 18 12.5 30.5t30.5 12.5z" />
    <glyph glyph-name="Igrave" unicode="&#xcc;" horiz-adv-x="242" 
d="M121 711q15 0 25 -9.5t10 -24.5v-653q0 -15 -10 -24.5t-25 -9.5t-25 9.5t-10 24.5v653q0 15 10 24.5t25 9.5zM45 915q6 0 16 -5l120 -60q21 -10 21 -29q0 -13 -9 -21.5t-22 -8.5q-5 0 -13 4l-121 60q-21 11 -21 29q0 13 8.5 22t20.5 9z" />
    <glyph glyph-name="Iacute" unicode="&#xcd;" horiz-adv-x="242" 
d="M121 711q15 0 25 -9.5t10 -24.5v-653q0 -15 -10 -24.5t-25 -9.5t-25 9.5t-10 24.5v653q0 15 10 24.5t25 9.5zM196 915q13 0 21.5 -9t8.5 -22q0 -18 -21 -29l-121 -60q-8 -4 -13 -4q-13 0 -22 8.5t-9 21.5q0 19 21 29l121 61q9 4 14 4z" />
    <glyph glyph-name="Icircumflex" unicode="&#xce;" horiz-adv-x="242" 
d="M121 711q15 0 25 -9.5t10 -24.5v-653q0 -15 -10 -24.5t-25 -9.5t-25 9.5t-10 24.5v653q0 15 10 24.5t25 9.5zM121 915q10 0 19 -5l95 -60q18 -10 18 -28q0 -13 -8.5 -22t-21.5 -9q-7 0 -15 5l-87 56l-87 -56q-7 -5 -15 -5q-13 0 -22 9t-9 22q0 15 19 28l95 60q9 5 19 5z
" />
    <glyph glyph-name="Idieresis" unicode="&#xcf;" horiz-adv-x="242" 
d="M121 711q15 0 25 -9.5t10 -24.5v-653q0 -15 -10 -24.5t-25 -9.5t-25 9.5t-10 24.5v653q0 15 10 24.5t25 9.5zM209 881q18 0 30.5 -12.5t12.5 -30.5q0 -17 -12.5 -30t-30.5 -13t-30.5 13t-12.5 30q0 18 12.5 30.5t30.5 12.5zM33 881q18 0 30.5 -12.5t12.5 -30.5
q0 -17 -12.5 -30t-30.5 -13t-30.5 13t-12.5 30q0 18 12.5 30.5t30.5 12.5z" />
    <glyph glyph-name="Eth" unicode="&#xd0;" horiz-adv-x="636" 
d="M172 701h138q121 0 191 -67t70 -188v-191q0 -121 -69.5 -188t-191.5 -67h-138q-18 0 -30.5 12t-12.5 31v285h-65q-14 0 -23.5 10t-9.5 24t9.5 23.5t23.5 9.5h65v263q0 19 12.5 31t30.5 12zM313 635h-115v-240h114q15 0 24 -9.5t9 -23.5q0 -15 -9 -24.5t-24 -9.5h-114
v-262h115q89 0 138.5 50t49.5 138v193q0 89 -50 138.5t-138 49.5z" />
    <glyph glyph-name="Ntilde" unicode="&#xd1;" horiz-adv-x="621" 
d="M500 711q14 0 24 -10t10 -25v-648q0 -16 -11 -27t-27 -11q-24 0 -36 23l-304 551v-539q0 -15 -10.5 -25t-24.5 -10t-24.5 10t-10.5 25v648q0 16 11 27t27 11q23 0 37 -23l304 -551v539q0 15 10.5 25t24.5 10zM421 883q14 0 22 -9t8 -20t-8 -22q-31 -41 -85 -41
q-27 0 -54 14.5t-41 14.5q-22 0 -47 -23q-8 -6 -17 -6q-13 0 -21.5 8.5t-8.5 19.5q0 12 8 23q31 41 85 41q27 0 54 -15t41 -15q20 0 47 23q8 7 17 7z" />
    <glyph glyph-name="Ograve" unicode="&#xd2;" horiz-adv-x="593" 
d="M296 711q106 0 168.5 -61t62.5 -166v-266q0 -105 -62.5 -166.5t-168.5 -61.5t-168.5 61.5t-62.5 166.5v266q0 105 62.5 166t168.5 61zM296 646q-74 0 -117.5 -42t-43.5 -115v-277q0 -72 43.5 -114.5t117.5 -42.5t118 42.5t44 114.5v277q0 73 -44 115t-118 42zM220 915
q6 0 16 -5l120 -60q21 -10 21 -29q0 -13 -9 -21.5t-22 -8.5q-5 0 -13 4l-121 60q-21 11 -21 29q0 13 8.5 22t20.5 9z" />
    <glyph glyph-name="Oacute" unicode="&#xd3;" horiz-adv-x="593" 
d="M296 711q106 0 168.5 -61t62.5 -166v-266q0 -105 -62.5 -166.5t-168.5 -61.5t-168.5 61.5t-62.5 166.5v266q0 105 62.5 166t168.5 61zM296 646q-74 0 -117.5 -42t-43.5 -115v-277q0 -72 43.5 -114.5t117.5 -42.5t118 42.5t44 114.5v277q0 73 -44 115t-118 42zM371 915
q13 0 21.5 -9t8.5 -22q0 -18 -21 -29l-121 -60q-8 -4 -13 -4q-13 0 -22 8.5t-9 21.5q0 19 21 29l121 61q9 4 14 4z" />
    <glyph glyph-name="Ocircumflex" unicode="&#xd4;" horiz-adv-x="593" 
d="M296 711q106 0 168.5 -61t62.5 -166v-266q0 -105 -62.5 -166.5t-168.5 -61.5t-168.5 61.5t-62.5 166.5v266q0 105 62.5 166t168.5 61zM296 646q-74 0 -117.5 -42t-43.5 -115v-277q0 -72 43.5 -114.5t117.5 -42.5t118 42.5t44 114.5v277q0 73 -44 115t-118 42zM297 915
q10 0 19 -5l95 -60q18 -10 18 -28q0 -13 -8.5 -22t-21.5 -9q-7 0 -15 5l-87 56l-87 -56q-8 -5 -15 -5q-13 0 -22 9t-9 22q0 15 19 28l95 60q9 5 19 5z" />
    <glyph glyph-name="Otilde" unicode="&#xd5;" horiz-adv-x="593" 
d="M296 711q106 0 168.5 -61t62.5 -166v-266q0 -105 -62.5 -166.5t-168.5 -61.5t-168.5 61.5t-62.5 166.5v266q0 105 62.5 166t168.5 61zM296 646q-74 0 -117.5 -42t-43.5 -115v-277q0 -72 43.5 -114.5t117.5 -42.5t118 42.5t44 114.5v277q0 73 -44 115t-118 42zM408 883
q14 0 22 -9t8 -20t-8 -22q-31 -41 -85 -41q-27 0 -54 14.5t-41 14.5q-22 0 -47 -23q-7 -6 -17 -6q-13 0 -21.5 8.5t-8.5 19.5q0 12 8 23q31 41 85 41q27 0 54 -15t41 -15q20 0 47 23q8 7 17 7z" />
    <glyph glyph-name="Odieresis" unicode="&#xd6;" horiz-adv-x="593" 
d="M296 711q106 0 168.5 -61t62.5 -166v-266q0 -105 -62.5 -166.5t-168.5 -61.5t-168.5 61.5t-62.5 166.5v266q0 105 62.5 166t168.5 61zM296 646q-74 0 -117.5 -42t-43.5 -115v-277q0 -72 43.5 -114.5t117.5 -42.5t118 42.5t44 114.5v277q0 73 -44 115t-118 42zM385 881
q18 0 30.5 -12.5t12.5 -30.5q0 -17 -12.5 -30t-30.5 -13t-30.5 13t-12.5 30q0 18 12.5 30.5t30.5 12.5zM209 881q18 0 30.5 -12.5t12.5 -30.5q0 -17 -12.5 -30t-30.5 -13t-30.5 13t-12.5 30q0 18 12.5 30.5t30.5 12.5z" />
    <glyph glyph-name="multiply" unicode="&#xd7;" 
d="M442 462q13 0 22.5 -9t9.5 -23q0 -13 -10 -23l-156 -151l152 -150q10 -10 10 -24q0 -13 -9.5 -22.5t-22.5 -9.5t-23 10l-152 151l-150 -151q-10 -10 -23 -10t-23 9.5t-10 22.5q0 14 10 24l151 150l-151 151q-10 10 -10 23q0 12 9.5 22t23.5 10t23 -9l150 -151l156 151
q9 9 23 9z" />
    <glyph glyph-name="Oslash" unicode="&#xd8;" horiz-adv-x="593" 
d="M469 763q13 0 22 -8.5t9 -20.5q0 -10 -5 -18l-30 -67q62 -60 62 -165v-266q0 -105 -62.5 -166.5t-168.5 -61.5q-65 0 -118 25l-26 -58q-9 -19 -29 -19q-13 0 -21.5 8.5t-8.5 20.5q0 8 4 18l30 67q-62 60 -62 166v266q0 105 62.5 166t168.5 61q68 0 118 -26l27 59
q9 19 28 19zM296 646q-74 0 -117.5 -42t-43.5 -115v-277q0 -54 24 -90l228 502q-39 22 -91 22zM434 580l-228 -503q39 -22 90 -22q74 0 118 42.5t44 114.5v277q0 53 -24 91z" />
    <glyph glyph-name="Ugrave" unicode="&#xd9;" horiz-adv-x="618" 
d="M508 711q14 0 24 -10t10 -25v-455q0 -109 -61 -170t-172 -61q-113 0 -173 61t-60 170v455q0 15 10.5 25t24.5 10t24 -10t10 -25v-458q0 -76 43.5 -119.5t120.5 -43.5q78 0 121 43.5t43 119.5v458q0 15 10 25t25 10zM222 915q6 0 16 -5l120 -60q21 -10 21 -29
q0 -13 -9 -21.5t-22 -8.5q-5 0 -13 4l-121 60q-21 11 -21 29q0 13 8.5 22t20.5 9z" />
    <glyph glyph-name="Uacute" unicode="&#xda;" horiz-adv-x="618" 
d="M508 711q14 0 24 -10t10 -25v-455q0 -109 -61 -170t-172 -61q-113 0 -173 61t-60 170v455q0 15 10.5 25t24.5 10t24 -10t10 -25v-458q0 -76 43.5 -119.5t120.5 -43.5q78 0 121 43.5t43 119.5v458q0 15 10 25t25 10zM373 915q13 0 21.5 -9t8.5 -22q0 -18 -21 -29l-121 -60
q-8 -4 -13 -4q-13 0 -22 8.5t-9 21.5q0 19 21 29l121 61q9 4 14 4z" />
    <glyph glyph-name="Ucircumflex" unicode="&#xdb;" horiz-adv-x="618" 
d="M508 711q14 0 24 -10t10 -25v-455q0 -109 -61 -170t-172 -61q-113 0 -173 61t-60 170v455q0 15 10.5 25t24.5 10t24 -10t10 -25v-458q0 -76 43.5 -119.5t120.5 -43.5q78 0 121 43.5t43 119.5v458q0 15 10 25t25 10zM309 915q10 0 19 -5l95 -60q18 -10 18 -28
q0 -13 -8.5 -22t-21.5 -9q-7 0 -15 5l-87 56l-87 -56q-8 -5 -15 -5q-13 0 -22 9t-9 22q0 15 19 28l95 60q9 5 19 5z" />
    <glyph glyph-name="Udieresis" unicode="&#xdc;" horiz-adv-x="618" 
d="M508 711q14 0 24 -10t10 -25v-455q0 -109 -61 -170t-172 -61q-113 0 -173 61t-60 170v455q0 15 10.5 25t24.5 10t24 -10t10 -25v-458q0 -76 43.5 -119.5t120.5 -43.5q78 0 121 43.5t43 119.5v458q0 15 10 25t25 10zM397 881q18 0 30.5 -12.5t12.5 -30.5q0 -17 -12.5 -30
t-30.5 -13t-30.5 13t-12.5 30q0 18 12.5 30.5t30.5 12.5zM221 881q18 0 30.5 -12.5t12.5 -30.5q0 -17 -12.5 -30t-30.5 -13t-30.5 13t-12.5 30q0 18 12.5 30.5t30.5 12.5z" />
    <glyph glyph-name="Yacute" unicode="&#xdd;" horiz-adv-x="496" 
d="M283 312v-287q0 -15 -10 -25t-25 -10q-16 0 -25.5 10t-9.5 25v287l-191 345q-7 12 -7 21q0 14 10 23.5t24 9.5q20 0 29 -16l170 -314l170 314q9 16 29 16q14 0 24 -9.5t10 -23.5q0 -9 -7 -21zM323 915q13 0 21.5 -9t8.5 -22q0 -18 -21 -29l-121 -60q-8 -4 -13 -4
q-13 0 -22 8.5t-9 21.5q0 19 21 29l121 61q9 4 14 4z" />
    <glyph glyph-name="Thorn" unicode="&#xde;" horiz-adv-x="560" 
d="M121 711q15 0 25 -9.5t10 -24.5v-129h145q92 0 145.5 -54t53.5 -145t-56 -143t-151 -52h-137v-130q0 -15 -10 -24.5t-25 -9.5t-25 9.5t-10 24.5v653q0 15 10 24.5t25 9.5zM292 484h-136v-265h136q63 0 100.5 34.5t37.5 95.5q0 62 -37.5 98.5t-100.5 36.5z" />
    <glyph glyph-name="germandbls" unicode="&#xdf;" horiz-adv-x="565" 
d="M264 711q78 0 129.5 -41.5t51.5 -111.5q0 -73 -71 -126q-48 -36 -48 -72q0 -32 43 -56q6 -4 23.5 -13.5t34 -19.5t29.5 -19q66 -45 66 -119q0 -61 -42.5 -102t-95.5 -41q-57 0 -117 30q-17 8 -17 27q0 13 8.5 21.5t20.5 8.5q8 0 18 -5q44 -22 82 -22q33 0 55.5 24.5
t22.5 56.5q0 48 -45 75q-75 47 -92 58q-58 39 -58 95q0 63 63 112q28 22 42 41t14 48q0 40 -33 65.5t-83 25.5q-54 0 -85.5 -31t-31.5 -86v-511q0 -15 -10 -24t-24 -9t-23.5 9.5t-9.5 23.5v511q0 80 50 128.5t133 48.5z" />
    <glyph glyph-name="agrave" unicode="&#xe0;" horiz-adv-x="492" 
d="M241 510q77 0 127 -38.5t50 -110.5v-307q0 -31 -29 -41q-66 -23 -144 -23q-197 0 -197 153q0 78 55 115t141 37h106v66q0 39 -28 62.5t-78 23.5q-54 0 -100 -23q-22 -11 -34 -11t-21.5 9t-9.5 22q0 18 16 28q66 38 146 38zM350 232h-108q-126 0 -126 -90q0 -50 33 -69.5
t96 -19.5q49 0 105 16v163zM175 723q6 0 14 -4l121 -60q21 -11 21 -29q0 -13 -9 -22t-22 -9q-5 0 -13 4l-121 60q-21 11 -21 29q0 13 9 22t21 9z" />
    <glyph glyph-name="aacute" unicode="&#xe1;" horiz-adv-x="492" 
d="M241 510q77 0 127 -38.5t50 -110.5v-307q0 -31 -29 -41q-66 -23 -144 -23q-197 0 -197 153q0 78 55 115t141 37h106v66q0 39 -28 62.5t-78 23.5q-54 0 -100 -23q-22 -11 -34 -11t-21.5 9t-9.5 22q0 18 16 28q66 38 146 38zM350 232h-108q-126 0 -126 -90q0 -50 33 -69.5
t96 -19.5q49 0 105 16v163zM324 723q13 0 22 -9t9 -22q0 -18 -21 -29l-121 -60q-8 -4 -13 -4q-13 0 -22 9t-9 22q0 19 21 29l121 60q8 4 13 4z" />
    <glyph glyph-name="acircumflex" unicode="&#xe2;" horiz-adv-x="492" 
d="M241 510q77 0 127 -38.5t50 -110.5v-307q0 -31 -29 -41q-66 -23 -144 -23q-197 0 -197 153q0 78 55 115t141 37h106v66q0 39 -28 62.5t-78 23.5q-54 0 -100 -23q-22 -11 -34 -11t-21.5 9t-9.5 22q0 18 16 28q66 38 146 38zM350 232h-108q-126 0 -126 -90q0 -50 33 -69.5
t96 -19.5q49 0 105 16v163zM250 723q10 0 19 -5l95 -60q18 -10 18 -28q0 -13 -8.5 -22t-21.5 -9q-8 0 -15 5l-87 56l-87 -56q-7 -5 -15 -5q-13 0 -22 9t-9 22q0 15 19 28l95 60q9 5 19 5z" />
    <glyph glyph-name="atilde" unicode="&#xe3;" horiz-adv-x="492" 
d="M241 510q77 0 127 -38.5t50 -110.5v-307q0 -31 -29 -41q-66 -23 -144 -23q-197 0 -197 153q0 78 55 115t141 37h106v66q0 39 -28 62.5t-78 23.5q-54 0 -100 -23q-22 -11 -34 -11t-21.5 9t-9.5 22q0 18 16 28q66 38 146 38zM350 232h-108q-126 0 -126 -90q0 -50 33 -69.5
t96 -19.5q49 0 105 16v163zM361 691q14 0 22 -9t8 -20t-8 -22q-31 -41 -85 -41q-27 0 -54 14.5t-41 14.5q-22 0 -47 -23q-8 -6 -17 -6q-13 0 -21.5 8.5t-8.5 19.5q0 12 8 23q31 41 85 41q27 0 54 -15t41 -15q20 0 47 23q8 7 17 7z" />
    <glyph glyph-name="adieresis" unicode="&#xe4;" horiz-adv-x="492" 
d="M241 510q77 0 127 -38.5t50 -110.5v-307q0 -31 -29 -41q-66 -23 -144 -23q-197 0 -197 153q0 78 55 115t141 37h106v66q0 39 -28 62.5t-78 23.5q-54 0 -100 -23q-22 -11 -34 -11t-21.5 9t-9.5 22q0 18 16 28q66 38 146 38zM350 232h-108q-126 0 -126 -90q0 -50 33 -69.5
t96 -19.5q49 0 105 16v163zM338 689q18 0 30.5 -12.5t12.5 -30.5q0 -17 -12.5 -30t-30.5 -13t-30.5 13t-12.5 30q0 18 12.5 30.5t30.5 12.5zM162 689q18 0 30.5 -12.5t12.5 -30.5q0 -17 -12.5 -30t-30.5 -13t-30.5 13t-12.5 30q0 18 12.5 30.5t30.5 12.5z" />
    <glyph glyph-name="aring" unicode="&#xe5;" horiz-adv-x="492" 
d="M241 510q77 0 127 -38.5t50 -110.5v-307q0 -31 -29 -41q-66 -23 -144 -23q-197 0 -197 153q0 78 55 115t141 37h106v66q0 39 -28 62.5t-78 23.5q-54 0 -100 -23q-22 -11 -34 -11t-21.5 9t-9.5 22q0 18 16 28q66 38 146 38zM350 232h-108q-126 0 -126 -90q0 -50 33 -69.5
t96 -19.5q49 0 105 16v163zM250 770q39 0 66.5 -28t27.5 -67t-27.5 -67t-66.5 -28q-40 0 -67.5 28t-27.5 67t27.5 67t67.5 28zM250 726q-22 0 -37 -14.5t-15 -36.5t15 -37t37 -15t36.5 15t14.5 37t-14.5 36.5t-36.5 14.5z" />
    <glyph glyph-name="ae" unicode="&#xe6;" horiz-adv-x="779" 
d="M534 510q85 0 135 -50.5t50 -133.5v-54q0 -17 -12 -30t-32 -13h-258v-58q0 -52 30 -85t87 -33q53 0 111 23q17 6 24 6q13 0 22.5 -9t9.5 -22q0 -20 -19 -29q-70 -32 -148 -32q-110 0 -153 83q-21 -38 -63 -60.5t-91 -22.5q-82 0 -130.5 39t-48.5 113t50.5 112t135.5 38
h115v69q0 39 -28 62.5t-77 23.5q-55 0 -101 -23q-22 -11 -33 -11q-12 0 -22 9t-10 22q0 19 17 28q65 38 145 38q110 0 148 -72q46 72 146 72zM349 229h-117q-56 0 -86 -22.5t-30 -65.5t29.5 -65.5t82.5 -22.5q50 0 85.5 31t35.5 79v66zM534 447q-57 0 -87 -31.5t-30 -86.5
v-37h234v35q0 56 -30 88t-87 32z" />
    <glyph glyph-name="ccedilla" unicode="&#xe7;" horiz-adv-x="420" 
d="M245 510q73 0 134 -32q19 -10 19 -29q0 -13 -9 -22t-22 -9q-9 0 -35 11q-43 18 -89 18q-53 0 -84 -32t-31 -89v-152q0 -57 31 -89t84 -32q46 0 89 18q26 11 34 11q14 0 23 -9t9 -23q0 -18 -19 -29q-45 -26 -116 -31l-8 -33q55 -25 55 -68q0 -36 -26.5 -63.5t-70.5 -40.5
q-28 -8 -41 -8q-25 0 -25 25q0 22 24 25q27 3 55.5 18t28.5 40q0 26 -37 38q-20 6 -20 24q0 5 3 19l6 27q-69 11 -108 58.5t-39 122.5v152q0 85 50.5 134.5t134.5 49.5z" />
    <glyph glyph-name="egrave" unicode="&#xe8;" horiz-adv-x="490" 
d="M245 510q85 0 135 -50.5t50 -133.5v-58q0 -17 -12 -30t-32 -13h-258v-54q0 -52 30 -85t87 -33q53 0 111 23q16 6 24 6q13 0 22.5 -9t9.5 -22q0 -20 -19 -29q-70 -32 -148 -32q-86 0 -135.5 51t-49.5 133v152q0 84 50 134t135 50zM245 447q-57 0 -87 -31.5t-30 -86.5v-40
h234v38q0 56 -30 88t-87 32zM170 723q6 0 14 -4l121 -60q21 -11 21 -29q0 -13 -9 -22t-22 -9q-5 0 -13 4l-121 60q-21 11 -21 29q0 13 9 22t21 9z" />
    <glyph glyph-name="eacute" unicode="&#xe9;" horiz-adv-x="490" 
d="M245 510q85 0 135 -50.5t50 -133.5v-58q0 -17 -12 -30t-32 -13h-258v-54q0 -52 30 -85t87 -33q53 0 111 23q16 6 24 6q13 0 22.5 -9t9.5 -22q0 -20 -19 -29q-70 -32 -148 -32q-86 0 -135.5 51t-49.5 133v152q0 84 50 134t135 50zM245 447q-57 0 -87 -31.5t-30 -86.5v-40
h234v38q0 56 -30 88t-87 32zM320 723q13 0 22 -9t9 -22q0 -18 -21 -29l-121 -60q-8 -4 -13 -4q-13 0 -22 9t-9 22q0 19 21 29l121 60q8 4 13 4z" />
    <glyph glyph-name="ecircumflex" unicode="&#xea;" horiz-adv-x="490" 
d="M245 510q85 0 135 -50.5t50 -133.5v-58q0 -17 -12 -30t-32 -13h-258v-54q0 -52 30 -85t87 -33q53 0 111 23q16 6 24 6q13 0 22.5 -9t9.5 -22q0 -20 -19 -29q-70 -32 -148 -32q-86 0 -135.5 51t-49.5 133v152q0 84 50 134t135 50zM245 447q-57 0 -87 -31.5t-30 -86.5v-40
h234v38q0 56 -30 88t-87 32zM246 723q10 0 19 -5l95 -60q18 -10 18 -28q0 -13 -8.5 -22t-21.5 -9q-8 0 -15 5l-87 56l-87 -56q-7 -5 -15 -5q-13 0 -22 9t-9 22q0 15 19 28l95 60q9 5 19 5z" />
    <glyph glyph-name="edieresis" unicode="&#xeb;" horiz-adv-x="490" 
d="M245 510q85 0 135 -50.5t50 -133.5v-58q0 -17 -12 -30t-32 -13h-258v-54q0 -52 30 -85t87 -33q53 0 111 23q16 6 24 6q13 0 22.5 -9t9.5 -22q0 -20 -19 -29q-70 -32 -148 -32q-86 0 -135.5 51t-49.5 133v152q0 84 50 134t135 50zM245 447q-57 0 -87 -31.5t-30 -86.5v-40
h234v38q0 56 -30 88t-87 32zM334 689q18 0 30.5 -12.5t12.5 -30.5q0 -17 -12.5 -30t-30.5 -13t-30.5 13t-12.5 30q0 18 12.5 30.5t30.5 12.5zM158 689q18 0 30.5 -12.5t12.5 -30.5q0 -17 -12.5 -30t-30.5 -13t-30.5 13t-12.5 30q0 18 12.5 30.5t30.5 12.5z" />
    <glyph glyph-name="igrave" unicode="&#xec;" horiz-adv-x="230" 
d="M115 510q15 0 24.5 -9.5t9.5 -24.5v-452q0 -15 -9.5 -24.5t-24.5 -9.5q-14 0 -24 9.5t-10 24.5v452q0 15 10 24.5t24 9.5zM40 723q6 0 14 -4l121 -60q21 -11 21 -29q0 -13 -9 -22t-22 -9q-5 0 -13 4l-121 60q-21 11 -21 29q0 13 9 22t21 9z" />
    <glyph glyph-name="iacute" unicode="&#xed;" horiz-adv-x="230" 
d="M115 510q15 0 24.5 -9.5t9.5 -24.5v-452q0 -15 -9.5 -24.5t-24.5 -9.5q-14 0 -24 9.5t-10 24.5v452q0 15 10 24.5t24 9.5zM189 723q13 0 22 -9t9 -22q0 -18 -21 -29l-121 -60q-8 -4 -13 -4q-13 0 -22 9t-9 22q0 19 21 29l121 60q8 4 13 4z" />
    <glyph glyph-name="icircumflex" unicode="&#xee;" horiz-adv-x="230" 
d="M115 510q15 0 24.5 -9.5t9.5 -24.5v-452q0 -15 -9.5 -24.5t-24.5 -9.5q-14 0 -24 9.5t-10 24.5v452q0 15 10 24.5t24 9.5zM115 723q10 0 19 -5l95 -60q18 -10 18 -28q0 -13 -8.5 -22t-21.5 -9q-7 0 -15 5l-87 56l-87 -56q-7 -5 -15 -5q-13 0 -22 9t-9 22q0 15 19 28
l95 60q9 5 19 5z" />
    <glyph glyph-name="idieresis" unicode="&#xef;" horiz-adv-x="230" 
d="M115 510q15 0 24.5 -9.5t9.5 -24.5v-452q0 -15 -9.5 -24.5t-24.5 -9.5q-14 0 -24 9.5t-10 24.5v452q0 15 10 24.5t24 9.5zM203 689q18 0 30.5 -12.5t12.5 -30.5q0 -17 -12.5 -30t-30.5 -13t-30.5 13t-12.5 30q0 18 12.5 30.5t30.5 12.5zM27 689q18 0 30.5 -12.5
t12.5 -30.5q0 -17 -12.5 -30t-30.5 -13t-30.5 13t-12.5 30q0 18 12.5 30.5t30.5 12.5z" />
    <glyph glyph-name="eth" unicode="&#xf0;" horiz-adv-x="535" 
d="M425 711q11 0 20 -8.5t9 -20.5q0 -18 -20 -28l-73 -34q93 -98 93 -317v-121q0 -90 -51.5 -141t-142.5 -51q-89 0 -141.5 50.5t-52.5 141.5v106q0 90 52 141t142 51q70 0 115 -30q-17 88 -76 142l-94 -43q-10 -5 -19 -5q-12 0 -20 8t-8 21q0 19 20 27l66 30q-28 15 -67 26
q-19 6 -19 26q0 12 8 20.5t20 8.5q10 0 25 -5q56 -16 100 -44l96 44q10 5 18 5zM260 417q-57 0 -91.5 -33t-34.5 -92v-115q0 -58 34.5 -91t91.5 -33t92 33t35 91v115q0 59 -35 92t-92 33z" />
    <glyph glyph-name="ntilde" unicode="&#xf1;" horiz-adv-x="526" 
d="M266 510q91 0 138 -46.5t47 -132.5v-307q0 -15 -10 -24.5t-24 -9.5q-15 0 -24.5 9.5t-9.5 24.5v308q0 55 -30 85t-87 30q-55 0 -117 -18v-405q0 -15 -9.5 -24.5t-24.5 -9.5q-14 0 -24 9.5t-10 24.5v419q0 32 34 42q82 25 151 25zM375 691q14 0 22 -9t8 -20t-8 -22
q-31 -41 -85 -41q-27 0 -54 14.5t-41 14.5q-22 0 -47 -23q-8 -6 -17 -6q-13 0 -21.5 8.5t-8.5 19.5q0 12 8 23q31 41 85 41q27 0 54 -15t41 -15q20 0 47 23q8 7 17 7z" />
    <glyph glyph-name="ograve" unicode="&#xf2;" horiz-adv-x="508" 
d="M254 510q90 0 142 -51.5t52 -141.5v-135q0 -89 -51.5 -140.5t-142.5 -51.5q-89 0 -141.5 51t-52.5 141v135q0 90 52 141.5t142 51.5zM254 447q-57 0 -91.5 -33t-34.5 -92v-145q0 -58 34.5 -91t91.5 -33t91.5 33t34.5 91v145q0 59 -34.5 92t-91.5 33zM179 723q6 0 14 -4
l121 -60q21 -11 21 -29q0 -13 -9 -22t-22 -9q-5 0 -13 4l-121 60q-21 11 -21 29q0 13 9 22t21 9z" />
    <glyph glyph-name="oacute" unicode="&#xf3;" horiz-adv-x="508" 
d="M254 510q90 0 142 -51.5t52 -141.5v-135q0 -89 -51.5 -140.5t-142.5 -51.5q-89 0 -141.5 51t-52.5 141v135q0 90 52 141.5t142 51.5zM254 447q-57 0 -91.5 -33t-34.5 -92v-145q0 -58 34.5 -91t91.5 -33t91.5 33t34.5 91v145q0 59 -34.5 92t-91.5 33zM328 723q13 0 22 -9
t9 -22q0 -18 -21 -29l-121 -60q-8 -4 -13 -4q-13 0 -22 9t-9 22q0 19 21 29l121 60q8 4 13 4z" />
    <glyph glyph-name="ocircumflex" unicode="&#xf4;" horiz-adv-x="508" 
d="M254 510q90 0 142 -51.5t52 -141.5v-135q0 -89 -51.5 -140.5t-142.5 -51.5q-89 0 -141.5 51t-52.5 141v135q0 90 52 141.5t142 51.5zM254 447q-57 0 -91.5 -33t-34.5 -92v-145q0 -58 34.5 -91t91.5 -33t91.5 33t34.5 91v145q0 59 -34.5 92t-91.5 33zM254 723q10 0 19 -5
l95 -60q18 -10 18 -28q0 -13 -8.5 -22t-21.5 -9q-8 0 -15 5l-87 56l-87 -56q-7 -5 -15 -5q-13 0 -22 9t-9 22q0 15 19 28l95 60q9 5 19 5z" />
    <glyph glyph-name="otilde" unicode="&#xf5;" horiz-adv-x="508" 
d="M254 510q90 0 142 -51.5t52 -141.5v-135q0 -89 -51.5 -140.5t-142.5 -51.5q-89 0 -141.5 51t-52.5 141v135q0 90 52 141.5t142 51.5zM254 447q-57 0 -91.5 -33t-34.5 -92v-145q0 -58 34.5 -91t91.5 -33t91.5 33t34.5 91v145q0 59 -34.5 92t-91.5 33zM365 691q14 0 22 -9
t8 -20t-8 -22q-31 -41 -85 -41q-27 0 -54 14.5t-41 14.5q-22 0 -47 -23q-8 -6 -17 -6q-13 0 -21.5 8.5t-8.5 19.5q0 12 8 23q31 41 85 41q27 0 54 -15t41 -15q20 0 47 23q8 7 17 7z" />
    <glyph glyph-name="odieresis" unicode="&#xf6;" horiz-adv-x="508" 
d="M254 510q90 0 142 -51.5t52 -141.5v-135q0 -89 -51.5 -140.5t-142.5 -51.5q-89 0 -141.5 51t-52.5 141v135q0 90 52 141.5t142 51.5zM254 447q-57 0 -91.5 -33t-34.5 -92v-145q0 -58 34.5 -91t91.5 -33t91.5 33t34.5 91v145q0 59 -34.5 92t-91.5 33zM342 689
q18 0 30.5 -12.5t12.5 -30.5q0 -17 -12.5 -30t-30.5 -13t-30.5 13t-12.5 30q0 18 12.5 30.5t30.5 12.5zM166 689q18 0 30.5 -12.5t12.5 -30.5q0 -17 -12.5 -30t-30.5 -13t-30.5 13t-12.5 30q0 18 12.5 30.5t30.5 12.5z" />
    <glyph glyph-name="divide" unicode="&#xf7;" 
d="M66 284h400q14 0 23 -9t9 -23t-9 -23.5t-23 -9.5h-400q-14 0 -23.5 9.5t-9.5 23.5t9.5 23t23.5 9zM266 76q18 0 30.5 -12.5t12.5 -30.5q0 -17 -12.5 -30t-30.5 -13t-30.5 13t-12.5 30q0 18 12.5 30.5t30.5 12.5zM266 509q18 0 30.5 -12.5t12.5 -30.5q0 -17 -12.5 -30
t-30.5 -13t-30.5 13t-12.5 30q0 18 12.5 30.5t30.5 12.5z" />
    <glyph glyph-name="oslash" unicode="&#xf8;" horiz-adv-x="508" 
d="M403 566q11 0 17.5 -7t6.5 -17q0 -8 -3 -14l-33 -65q57 -51 57 -146v-135q0 -89 -51.5 -140.5t-142.5 -51.5q-54 0 -96 20l-30 -58q-8 -14 -23 -14q-11 0 -17.5 7t-6.5 17q0 7 3 13l32 62q-56 51 -56 145v135q0 90 52 141.5t142 51.5q53 0 96 -19l31 60q7 15 22 15z
M254 447q-57 0 -91.5 -33t-34.5 -92v-145q0 -44 21 -75l171 330q-28 15 -66 15zM358 400l-170 -332q27 -15 66 -15q57 0 91.5 33t34.5 91v145q0 47 -22 78z" />
    <glyph glyph-name="ugrave" unicode="&#xf9;" horiz-adv-x="526" 
d="M411 510q15 0 24.5 -9.5t9.5 -24.5v-420q0 -30 -33 -41q-77 -25 -151 -25q-91 0 -138 46.5t-47 132.5v307q0 15 9.5 24.5t24.5 9.5q14 0 24 -9.5t10 -24.5v-309q0 -55 30 -84.5t87 -29.5q55 0 116 18v405q0 15 10 24.5t24 9.5zM186 723q6 0 14 -4l121 -60q21 -11 21 -29
q0 -13 -9 -22t-22 -9q-5 0 -13 4l-121 60q-21 11 -21 29q0 13 9 22t21 9z" />
    <glyph glyph-name="uacute" unicode="&#xfa;" horiz-adv-x="526" 
d="M411 510q15 0 24.5 -9.5t9.5 -24.5v-420q0 -30 -33 -41q-77 -25 -151 -25q-91 0 -138 46.5t-47 132.5v307q0 15 9.5 24.5t24.5 9.5q14 0 24 -9.5t10 -24.5v-309q0 -55 30 -84.5t87 -29.5q55 0 116 18v405q0 15 10 24.5t24 9.5zM335 723q13 0 22 -9t9 -22q0 -18 -21 -29
l-121 -60q-8 -4 -13 -4q-13 0 -22 9t-9 22q0 19 21 29l121 60q8 4 13 4z" />
    <glyph glyph-name="ucircumflex" unicode="&#xfb;" horiz-adv-x="526" 
d="M411 510q15 0 24.5 -9.5t9.5 -24.5v-420q0 -30 -33 -41q-77 -25 -151 -25q-91 0 -138 46.5t-47 132.5v307q0 15 9.5 24.5t24.5 9.5q14 0 24 -9.5t10 -24.5v-309q0 -55 30 -84.5t87 -29.5q55 0 116 18v405q0 15 10 24.5t24 9.5zM261 723q10 0 19 -5l95 -60q18 -10 18 -28
q0 -13 -8.5 -22t-21.5 -9q-7 0 -15 5l-87 56l-87 -56q-8 -5 -15 -5q-13 0 -22 9t-9 22q0 15 19 28l95 60q9 5 19 5z" />
    <glyph glyph-name="udieresis" unicode="&#xfc;" horiz-adv-x="526" 
d="M411 510q15 0 24.5 -9.5t9.5 -24.5v-420q0 -30 -33 -41q-77 -25 -151 -25q-91 0 -138 46.5t-47 132.5v307q0 15 9.5 24.5t24.5 9.5q14 0 24 -9.5t10 -24.5v-309q0 -55 30 -84.5t87 -29.5q55 0 116 18v405q0 15 10 24.5t24 9.5zM349 689q18 0 30.5 -12.5t12.5 -30.5
q0 -17 -12.5 -30t-30.5 -13t-30.5 13t-12.5 30q0 18 12.5 30.5t30.5 12.5zM173 689q18 0 30.5 -12.5t12.5 -30.5q0 -17 -12.5 -30t-30.5 -13t-30.5 13t-12.5 30q0 18 12.5 30.5t30.5 12.5z" />
    <glyph glyph-name="yacute" unicode="&#xfd;" horiz-adv-x="460" 
d="M403 510q16 0 24.5 -9.5t8.5 -23.5q0 -7 -3 -16l-193 -559q-44 -125 -179 -125q-15 0 -24.5 9t-9.5 24q0 30 32 32q90 2 117 81l27 76l-172 462q-3 9 -3 16q0 14 8.5 23.5t24.5 9.5q24 0 33 -25l144 -397l132 397q8 25 33 25zM310 723q13 0 22 -9t9 -22q0 -18 -21 -29
l-121 -60q-8 -4 -13 -4q-13 0 -22 9t-9 22q0 19 21 29l121 60q8 4 13 4z" />
    <glyph glyph-name="thorn" unicode="&#xfe;" horiz-adv-x="517" 
d="M115 711q15 0 24.5 -9.5t9.5 -24.5v-206q56 39 123 39q81 0 130 -47t49 -135v-156q0 -88 -49 -135t-130 -47q-66 0 -123 38v-217q0 -15 -9.5 -24.5t-24.5 -9.5q-14 0 -24 9.5t-10 24.5v866q0 15 10 24.5t24 9.5zM266 447q-65 0 -117 -44v-306q52 -44 117 -44
q56 0 86.5 29.5t30.5 84.5v165q0 55 -30.5 85t-86.5 30z" />
    <glyph glyph-name="ydieresis" unicode="&#xff;" horiz-adv-x="460" 
d="M403 510q16 0 24.5 -9.5t8.5 -23.5q0 -7 -3 -16l-193 -559q-44 -125 -179 -125q-15 0 -24.5 9t-9.5 24q0 30 32 32q90 2 117 81l27 76l-172 462q-3 9 -3 16q0 14 8.5 23.5t24.5 9.5q24 0 33 -25l144 -397l132 397q8 25 33 25zM324 689q18 0 30.5 -12.5t12.5 -30.5
q0 -17 -12.5 -30t-30.5 -13t-30.5 13t-12.5 30q0 18 12.5 30.5t30.5 12.5zM148 689q18 0 30.5 -12.5t12.5 -30.5q0 -17 -12.5 -30t-30.5 -13t-30.5 13t-12.5 30q0 18 12.5 30.5t30.5 12.5z" />
    <glyph glyph-name="dotlessi" unicode="&#x131;" horiz-adv-x="230" 
d="M115 510q15 0 24.5 -9.5t9.5 -24.5v-452q0 -15 -9.5 -24.5t-24.5 -9.5q-14 0 -24 9.5t-10 24.5v452q0 15 10 24.5t24 9.5z" />
    <glyph glyph-name="IJ" unicode="&#x132;" horiz-adv-x="631" 
d="M121 711q15 0 25 -9.5t10 -24.5v-653q0 -15 -10 -24.5t-25 -9.5t-25 9.5t-10 24.5v653q0 15 10 24.5t25 9.5zM514 711q15 0 25 -9.5t10 -24.5v-508q0 -77 -52 -128t-128 -51q-28 0 -63 7q-30 5 -30 31q0 15 9.5 24t23.5 9q3 0 23 -3t37 -3q47 0 79 34t32 80v508
q0 15 10 24.5t24 9.5z" />
    <glyph glyph-name="ij" unicode="&#x133;" horiz-adv-x="483" 
d="M115 510q14 0 24 -9.5t10 -24.5v-452q0 -15 -10 -24.5t-24 -9.5q-15 0 -24.5 9.5t-9.5 24.5v452q0 15 9.5 24.5t24.5 9.5zM115 689q17 0 30 -12.5t13 -30.5q0 -17 -13 -30t-30 -13q-18 0 -31 13t-13 30q0 18 13 30.5t31 12.5zM364 510q14 0 24 -9.5t10 -24.5v-504
q0 -147 -118 -189q-20 -6 -32 -6q-14 0 -23.5 8.5t-9.5 22.5q0 25 28 33q87 20 87 131v504q0 15 9.5 24.5t24.5 9.5zM364 689q17 0 30 -12.5t13 -30.5q0 -17 -13 -30t-30 -13q-18 0 -31 13t-13 30q0 18 13 30.5t31 12.5z" />
    <glyph glyph-name="Lslash" unicode="&#x141;" horiz-adv-x="534" 
d="M162 711q14 0 24.5 -10t10.5 -25v-266l134 88q17 12 28 12q13 0 22.5 -9.5t9.5 -23.5q0 -18 -14 -27l-180 -119v-264h280q15 0 24 -9.5t9 -23.5q0 -15 -9 -24.5t-24 -9.5h-306q-18 0 -31 12.5t-13 30.5v242l-36 -24q-17 -11 -28 -11q-13 0 -22.5 9.5t-9.5 23.5
q0 17 15 27l81 53v313q0 15 10.5 25t24.5 10z" />
    <glyph glyph-name="lslash" unicode="&#x142;" horiz-adv-x="314" 
d="M154 711q15 0 24.5 -9.5t9.5 -24.5v-259l52 34q16 11 29 11t22.5 -9.5t9.5 -22.5q0 -17 -15 -28l-98 -65v-314q0 -15 -9.5 -24.5t-24.5 -9.5q-14 0 -24 9.5t-10 24.5v269l-37 -24q-17 -11 -28 -11q-13 0 -23 10t-10 23q0 15 15 27l83 55v304q0 15 10 24.5t24 9.5z" />
    <glyph glyph-name="OE" unicode="&#x152;" horiz-adv-x="890" 
d="M296 711q101 0 162 -55v2q0 18 13 30.5t31 12.5h299q15 0 24 -9.5t9 -23.5q0 -15 -9 -24.5t-24 -9.5h-273v-237h260q15 0 24.5 -9.5t9.5 -23.5t-9.5 -24t-24.5 -10h-260v-263h280q15 0 24 -9.5t9 -23.5q0 -15 -9 -24.5t-24 -9.5h-306q-18 0 -31 12.5t-13 30.5v3
q-62 -56 -162 -56q-106 0 -168.5 61.5t-62.5 166.5v266q0 105 62.5 166t168.5 61zM296 646q-74 0 -117.5 -42t-43.5 -115v-277q0 -72 43.5 -114.5t117.5 -42.5t118 42.5t44 114.5v277q0 73 -44 115t-118 42z" />
    <glyph glyph-name="oe" unicode="&#x153;" horiz-adv-x="810" 
d="M565 510q85 0 135 -50.5t50 -133.5v-58q0 -17 -12 -30t-32 -13h-258v-54q0 -52 30 -85t87 -33q53 0 111 23q16 6 24 6q13 0 22.5 -9t9.5 -22q0 -20 -19 -29q-70 -32 -148 -32q-102 0 -152 71q-51 -71 -159 -71q-89 0 -141.5 51t-52.5 141v135q0 90 52 141.5t142 51.5
q108 0 159 -71q49 71 152 71zM254 447q-57 0 -91.5 -33t-34.5 -92v-145q0 -58 34.5 -91t91.5 -33t91.5 33t34.5 91v145q0 59 -34.5 92t-91.5 33zM565 447q-57 0 -87 -31.5t-30 -86.5v-40h234v38q0 56 -30 88t-87 32z" />
    <glyph glyph-name="Scaron" unicode="&#x160;" horiz-adv-x="501" 
d="M250 711q99 0 168 -34q20 -10 20 -32q0 -14 -8.5 -23t-21.5 -9q-8 0 -30 8q-68 25 -132 25q-55 0 -93 -31t-38 -76q0 -43 21.5 -69t69.5 -49l116 -57q40 -21 65.5 -39.5t47.5 -57.5t22 -91q0 -86 -61 -136t-151 -50q-94 0 -178 38q-22 10 -22 32q0 14 9 23.5t23 9.5
q11 0 30 -9q62 -29 138 -29q61 0 101.5 31.5t40.5 87.5q0 49 -25 77.5t-79 55.5l-117 58q-121 60 -121 172q0 76 57.5 125t147.5 49zM355 915q13 0 21.5 -9t8.5 -22q0 -17 -18 -28l-95 -60q-9 -5 -19 -5q-11 0 -19 5l-95 60q-19 12 -19 28q0 13 9 22t22 9q7 0 15 -5l87 -56
l87 56q8 5 15 5z" />
    <glyph glyph-name="scaron" unicode="&#x161;" horiz-adv-x="427" 
d="M211 510q67 0 128 -27q20 -9 20 -29q0 -14 -9 -22.5t-22 -8.5q-11 0 -24 5q-48 19 -92 19q-36 0 -63.5 -19.5t-27.5 -52.5q0 -45 65 -73l87 -37q99 -42 99 -130q0 -64 -44.5 -104.5t-117.5 -40.5q-74 0 -136 30q-19 10 -19 28q0 14 8.5 22.5t22.5 8.5q4 0 23 -7
q52 -19 98 -19q44 0 71.5 23t27.5 57q0 52 -86 87l-74 31q-91 38 -91 125q0 60 44.5 97t111.5 37zM313 723q13 0 21.5 -9t8.5 -22q0 -17 -18 -28l-95 -60q-9 -5 -19 -5q-11 0 -19 5l-95 60q-19 12 -19 28q0 13 9 22t22 9q8 0 15 -5l87 -56l87 56q8 5 15 5z" />
    <glyph glyph-name="Ydieresis" unicode="&#x178;" horiz-adv-x="496" 
d="M283 312v-287q0 -15 -10 -25t-25 -10q-16 0 -25.5 10t-9.5 25v287l-191 345q-7 12 -7 21q0 14 10 23.5t24 9.5q20 0 29 -16l170 -314l170 314q9 16 29 16q14 0 24 -9.5t10 -23.5q0 -9 -7 -21zM336 881q18 0 30.5 -12.5t12.5 -30.5q0 -17 -12.5 -30t-30.5 -13t-30.5 13
t-12.5 30q0 18 12.5 30.5t30.5 12.5zM160 881q18 0 30.5 -12.5t12.5 -30.5q0 -17 -12.5 -30t-30.5 -13t-30.5 13t-12.5 30q0 18 12.5 30.5t30.5 12.5z" />
    <glyph glyph-name="Zcaron" unicode="&#x17d;" horiz-adv-x="517" 
d="M67 701h373q19 0 30.5 -11.5t11.5 -27.5q0 -11 -8 -22l-352 -574h331q14 0 23.5 -9t9.5 -24t-9.5 -24t-23.5 -9h-381q-18 0 -29 11t-11 27q0 13 8 25l352 572h-325q-14 0 -23.5 9t-9.5 24q0 14 9.5 23.5t23.5 9.5zM360 915q13 0 21.5 -9t8.5 -22q0 -17 -18 -28l-95 -60
q-9 -5 -19 -5q-11 0 -19 5l-95 60q-19 12 -19 28q0 13 9 22t22 9q8 0 15 -5l87 -56l87 56q7 5 15 5z" />
    <glyph glyph-name="zcaron" unicode="&#x17e;" horiz-adv-x="440" 
d="M77 500h283q16 0 27 -11t11 -27q0 -12 -9 -25l-258 -372h237q14 0 23 -9.5t9 -23.5t-9 -23t-23 -9h-291q-16 0 -27 11t-11 27q0 12 10 26l258 371h-230q-15 0 -24 9t-9 23t9 23.5t24 9.5zM322 723q13 0 21.5 -9t8.5 -22q0 -17 -18 -28l-95 -60q-9 -5 -19 -5q-11 0 -19 5
l-95 60q-19 12 -19 28q0 13 9 22t22 9q8 0 15 -5l87 -56l87 56q8 5 15 5z" />
    <glyph glyph-name="longs" unicode="&#x17f;" horiz-adv-x="231" 
d="M209 711q33 0 56 -7t23 -29q0 -12 -9 -20.5t-21 -8.5q-3 0 -17 2t-26 2q-31 0 -48.5 -18t-17.5 -49v-559q0 -15 -10 -24.5t-24 -9.5t-24 9.5t-10 24.5v562q0 57 35.5 91t92.5 34z" />
    <glyph glyph-name="florin" unicode="&#x192;" 
d="M425 711q35 0 68 -7q30 -7 30 -32q0 -14 -9 -23t-25 -9q-4 0 -24.5 3.5t-39.5 3.5q-26 0 -45 -14.5t-23 -38.5l-38 -199h113q14 0 22.5 -9t8.5 -23t-10 -23.5t-24 -9.5h-123l-85 -445q-9 -48 -44 -78t-86 -30q-29 0 -53 5q-29 6 -29 31q0 14 9 23t24 9q4 0 19.5 -2
t29.5 -2q24 0 41 15t22 38l138 710q10 49 45.5 78t87.5 29z" />
    <glyph glyph-name="uni02BB" unicode="&#x2bb;" horiz-adv-x="211" 
d="M134 711q14 0 23.5 -9t9.5 -24q0 -6 -3 -16l-54 -156q-8 -24 -33 -24q-14 0 -23.5 9t-9.5 24q0 7 3 16l54 157q8 23 33 23z" />
    <glyph glyph-name="afii57929" unicode="&#x2bc;" horiz-adv-x="211" 
d="M134 711q14 0 23.5 -9t9.5 -24q0 -6 -3 -16l-54 -156q-8 -24 -33 -24q-14 0 -23.5 9t-9.5 24q0 7 3 16l54 157q8 23 33 23z" />
    <glyph glyph-name="circumflex" unicode="&#x2c6;" horiz-adv-x="508" 
d="M254 723q10 0 19 -5l95 -60q18 -10 18 -28q0 -13 -8.5 -22t-21.5 -9q-8 0 -15 5l-87 56l-87 -56q-7 -5 -15 -5q-13 0 -22 9t-9 22q0 15 19 28l95 60q9 5 19 5z" />
    <glyph glyph-name="caron" unicode="&#x2c7;" horiz-adv-x="508" 
d="M356 723q13 0 21.5 -9t8.5 -22q0 -17 -18 -28l-95 -60q-9 -5 -19 -5q-11 0 -19 5l-95 60q-19 12 -19 28q0 13 9 22t22 9q8 0 15 -5l87 -56l87 56q7 5 15 5z" />
    <glyph glyph-name="breve" unicode="&#x2d8;" horiz-adv-x="508" 
d="M339 704q14 0 22.5 -8.5t8.5 -21.5q0 -10 -8 -20q-43 -55 -108 -55t-109 55q-7 8 -7 20q0 13 8.5 21.5t21.5 8.5q14 0 25 -12q29 -32 61 -32t61 32q9 12 24 12z" />
    <glyph glyph-name="dotaccent" unicode="&#x2d9;" horiz-adv-x="508" 
d="M254 689q18 0 30.5 -12.5t12.5 -30.5q0 -17 -12.5 -30t-30.5 -13t-30.5 13t-12.5 30q0 18 12.5 30.5t30.5 12.5z" />
    <glyph glyph-name="ring" unicode="&#x2da;" horiz-adv-x="508" 
d="M254 770q39 0 66.5 -28t27.5 -67t-27.5 -67t-66.5 -28q-40 0 -67.5 28t-27.5 67t27.5 67t67.5 28zM254 726q-22 0 -37 -14.5t-15 -36.5t15 -37t37 -15t36.5 15t14.5 37t-14.5 36.5t-36.5 14.5z" />
    <glyph glyph-name="ogonek" unicode="&#x2db;" horiz-adv-x="508" 
d="M267 44q9 0 15 -6t6 -14q0 -17 -14 -31q-53 -62 -53 -118q0 -22 12.5 -32.5t30.5 -10.5q13 0 27 6t19 6q11 0 18 -8t7 -19q0 -16 -18 -26q-26 -14 -60 -14q-38 0 -64 24t-26 65q0 73 71 161q12 17 29 17z" />
    <glyph glyph-name="tilde" unicode="&#x2dc;" horiz-adv-x="508" 
d="M365 691q14 0 22 -9t8 -20t-8 -22q-31 -41 -85 -41q-27 0 -54 14.5t-41 14.5q-22 0 -47 -23q-8 -6 -17 -6q-13 0 -21.5 8.5t-8.5 19.5q0 12 8 23q31 41 85 41q27 0 54 -15t41 -15q20 0 47 23q8 7 17 7z" />
    <glyph glyph-name="hungarumlaut" unicode="&#x2dd;" horiz-adv-x="508" 
d="M372 723q13 0 22 -9t9 -22q0 -15 -15 -27l-69 -57q-10 -9 -21 -9q-13 0 -22 9t-9 22q0 16 15 28l70 56q12 9 20 9zM210 723q13 0 22 -9t9 -22q0 -15 -15 -27l-69 -57q-10 -9 -21 -9q-13 0 -22 9t-9 22q0 16 15 28l69 56q12 9 21 9z" />
    <glyph glyph-name="gravecomb" unicode="&#x300;" horiz-adv-x="0" 
d="M-338 723q6 0 14 -4l121 -60q21 -11 21 -29q0 -13 -9 -22t-22 -9q-5 0 -13 4l-121 60q-21 11 -21 29q0 13 9 22t21 9z" />
    <glyph glyph-name="acutecomb" unicode="&#x301;" horiz-adv-x="0" 
d="M-178 723q13 0 22 -9t9 -22q0 -18 -21 -29l-121 -60q-8 -4 -13 -4q-13 0 -22 9t-9 22q0 19 21 29l121 60q8 4 13 4z" />
    <glyph glyph-name="uni0302" unicode="&#x302;" horiz-adv-x="1" 
d="M-254 723q10 0 19 -5l95 -60q18 -10 18 -28q0 -13 -8.5 -22t-21.5 -9q-8 0 -15 5l-87 56l-87 -56q-8 -5 -15 -5q-13 0 -22 9t-9 22q0 15 19 28l95 60q9 5 19 5z" />
    <glyph glyph-name="tildecomb" unicode="&#x303;" horiz-adv-x="0" 
d="M-144 691q14 0 22 -9t8 -20t-8 -22q-31 -41 -85 -41q-27 0 -54 14.5t-41 14.5q-22 0 -47 -23q-7 -6 -17 -6q-13 0 -21.5 8.5t-8.5 19.5q0 12 8 23q31 41 85 41q27 0 54 -15t41 -15q20 0 47 23q8 7 17 7z" />
    <glyph glyph-name="uni0304" unicode="&#x304;" horiz-adv-x="1" 
d="M-255 677h156q14 0 23 -8.5t9 -22.5t-9 -22.5t-23 -8.5h-156q-14 0 -23 8.5t-9 22.5t9 22.5t23 8.5z" />
    <glyph glyph-name="uni0306" unicode="&#x306;" horiz-adv-x="1" 
d="M-88 704q14 0 22.5 -8.5t8.5 -21.5q0 -10 -8 -20q-43 -55 -108 -55t-109 55q-7 8 -7 20q0 13 8.5 21.5t21.5 8.5q15 0 25 -12q30 -33 61 -33t61 33q10 12 24 12z" />
    <glyph glyph-name="uni0307" unicode="&#x307;" horiz-adv-x="1" 
d="M-254 689q18 0 30.5 -12.5t12.5 -30.5q0 -17 -12.5 -30t-30.5 -13t-30.5 13t-12.5 30q0 18 12.5 30.5t30.5 12.5z" />
    <glyph glyph-name="uni0308" unicode="&#x308;" horiz-adv-x="1" 
d="M-166 689q18 0 30.5 -12.5t12.5 -30.5q0 -17 -12.5 -30t-30.5 -13t-30.5 13t-12.5 30q0 18 12.5 30.5t30.5 12.5zM-342 689q18 0 30.5 -12.5t12.5 -30.5q0 -17 -12.5 -30t-30.5 -13t-30.5 13t-12.5 30q0 18 12.5 30.5t30.5 12.5z" />
    <glyph glyph-name="uni030A" unicode="&#x30a;" horiz-adv-x="1" 
d="M-254 770q39 0 66.5 -28t27.5 -67t-27.5 -67t-66.5 -28q-40 0 -67.5 28t-27.5 67t27.5 67t67.5 28zM-254 726q-22 0 -37 -14.5t-15 -36.5t15 -37t37 -15t36.5 15t14.5 37t-14.5 36.5t-36.5 14.5z" />
    <glyph glyph-name="uni030B" unicode="&#x30b;" horiz-adv-x="1" 
d="M-48 723q13 0 21.5 -9t8.5 -21q0 -18 -18 -30l-79 -56q-11 -8 -20 -8q-13 0 -21.5 9t-8.5 21q0 17 17 29l80 57q11 8 20 8zM-213 723q13 0 21.5 -9t8.5 -21q0 -18 -18 -30l-79 -56q-11 -8 -20 -8q-13 0 -21.5 9t-8.5 21q0 17 17 29l80 57q11 8 20 8z" />
    <glyph glyph-name="uni030C" unicode="&#x30c;" horiz-adv-x="1" 
d="M-152 723q13 0 21.5 -9t8.5 -22q0 -17 -18 -28l-95 -60q-9 -5 -19 -5q-11 0 -19 5l-95 60q-19 12 -19 28q0 13 9 22t22 9q8 0 15 -5l87 -56l87 56q8 5 15 5z" />
    <glyph glyph-name="uni0312" unicode="&#x312;" horiz-adv-x="1" 
d="M-154 791q15 0 24.5 -9t9.5 -23q0 -10 -4 -18l-64 -120q-10 -20 -31 -20q-15 0 -25 9t-10 22q0 11 4 19l64 119q11 21 32 21z" />
    <glyph glyph-name="uni0313" unicode="&#x313;" horiz-adv-x="1" 
d="M-132 710q15 0 24.5 -9t9.5 -23q0 -10 -4 -18l-85 -159q-10 -20 -31 -20q-15 0 -25 9t-10 22q0 11 4 19l85 158q11 21 32 21z" />
    <glyph glyph-name="uni0326" unicode="&#x326;" horiz-adv-x="1" 
d="M-138 -34q16 0 24.5 -10t8.5 -21q0 -7 -3 -16l-39 -116q-10 -27 -35 -27q-16 0 -24.5 10t-8.5 21q0 7 3 16l39 116q10 27 35 27z" />
    <glyph glyph-name="uni0327" unicode="&#x327;" horiz-adv-x="1" 
d="M-300 33q11 0 18 -7t7 -17q0 -6 -2 -14l-9 -38q55 -25 55 -68q0 -36 -26.5 -63.5t-70.5 -40.5q-28 -8 -41 -8q-25 0 -25 25q0 22 24 25q27 3 55.5 18t28.5 40q0 26 -37 38q-20 7 -20 24q0 5 3 19l10 44q5 23 30 23z" />
    <glyph glyph-name="uni0328" unicode="&#x328;" horiz-adv-x="1" 
d="M-240 47h33q7 -7 7 -14q0 -15 -14 -31q-62 -67 -62 -127q0 -22 12.5 -32.5t30.5 -10.5q13 0 27.5 6t19.5 6q11 0 18 -8t7 -19q0 -16 -18 -26q-26 -14 -60 -14q-38 0 -64 24t-26 65q0 81 78 170z" />
    <glyph glyph-name="uni0335" unicode="&#x335;" horiz-adv-x="1" 
d="M-259 279h165q12 0 20.5 -8.5t8.5 -20.5t-8.5 -21t-20.5 -9h-165q-12 0 -21 9t-9 21t9 20.5t21 8.5z" />
    <glyph glyph-name="uni0336" unicode="&#x336;" horiz-adv-x="1" 
d="M-560 547h506q13 0 21.5 -8.5t8.5 -21.5q0 -12 -8.5 -20.5t-21.5 -8.5h-506q-12 0 -21 8.5t-9 20.5q0 13 9 21.5t21 8.5z" />
    <glyph glyph-name="uni0394" unicode="&#x394;" horiz-adv-x="547" 
d="M274 711q29 0 38 -26l208 -627q3 -11 3 -18q0 -18 -11 -29t-29 -11h-419q-17 0 -28.5 11t-11.5 29q0 8 3 18l208 627q9 26 39 26zM274 600l-176 -534h351z" />
    <glyph glyph-name="uni03A9" unicode="&#x3a9;" horiz-adv-x="613" 
d="M306 711q106 0 168.5 -61t62.5 -166v-150q0 -72 -31 -124.5t-87 -77.5v-65h95q14 0 23.5 -9.5t9.5 -23.5t-9.5 -24t-23.5 -10h-117q-19 0 -30.5 11.5t-11.5 29.5v106q0 28 25 39q88 38 88 143v160q0 73 -44 115t-118 42t-117.5 -42t-43.5 -115v-160q0 -104 87 -143
q25 -11 25 -39v-106q0 -18 -11 -29.5t-30 -11.5h-117q-15 0 -24.5 10t-9.5 24t9.5 23.5t24.5 9.5h94v65q-56 25 -87 77.5t-31 124.5v150q0 105 62.5 166t168.5 61z" />
    <glyph glyph-name="uni03BC" unicode="&#x3bc;" 
d="M421 510q15 0 24.5 -9.5t9.5 -24.5v-420q0 -31 -34 -41q-75 -25 -150 -25q-73 0 -118 30v-209q0 -15 -9.5 -24.5t-24.5 -9.5q-14 0 -24 9.5t-10 24.5v665q0 15 10 24.5t24 9.5q15 0 24.5 -9.5t9.5 -24.5v-309q0 -54 30.5 -84t87.5 -30q55 0 116 18v405q0 15 10 24.5
t24 9.5z" />
    <glyph glyph-name="pi" unicode="&#x3c0;" 
d="M56 500h418q14 0 23 -9.5t9 -23.5t-9 -23t-23 -9h-88v-317q0 -27 19 -47t47 -20q14 0 23 -8.5t9 -22.5q0 -13 -9 -21.5t-23 -8.5q-57 0 -93.5 36.5t-36.5 93.5v315h-125v-413q0 -14 -9.5 -23t-22.5 -9t-22.5 9t-9.5 23v413h-77q-14 0 -23 8.5t-9 22.5t9 24t23 10z" />
    <glyph glyph-name="uni2007" unicode="&#x2007;" horiz-adv-x="570" 
 />
    <glyph glyph-name="uni2008" unicode="&#x2008;" horiz-adv-x="226" 
 />
    <glyph glyph-name="uni200B" unicode="&#x200b;" horiz-adv-x="0" 
 />
    <glyph glyph-name="endash" unicode="&#x2013;" horiz-adv-x="772" 
d="M165 328h441q14 0 23 -9t9 -23t-9 -23.5t-23 -9.5h-441q-14 0 -23 9.5t-9 23.5t9 23t23 9z" />
    <glyph glyph-name="emdash" unicode="&#x2014;" horiz-adv-x="1200" 
d="M165 328h870q14 0 23 -9t9 -23t-9 -23.5t-23 -9.5h-870q-14 0 -23 9.5t-9 23.5t9 23t23 9z" />
    <glyph glyph-name="quoteleft" unicode="&#x2018;" horiz-adv-x="211" 
d="M134 711q14 0 23.5 -9t9.5 -24q0 -6 -3 -16l-54 -156q-8 -24 -33 -24q-14 0 -23.5 9t-9.5 24q0 7 3 16l54 157q8 23 33 23z" />
    <glyph glyph-name="quoteright" unicode="&#x2019;" horiz-adv-x="211" 
d="M134 711q14 0 23.5 -9t9.5 -24q0 -6 -3 -16l-54 -156q-8 -24 -33 -24q-14 0 -23.5 9t-9.5 24q0 7 3 16l54 157q8 23 33 23z" />
    <glyph glyph-name="quotesinglbase" unicode="&#x201a;" horiz-adv-x="211" 
d="M134 94q14 0 23.5 -9t9.5 -24q0 -5 -3 -16l-54 -156q-8 -24 -33 -24q-14 0 -23.5 9t-9.5 24q0 7 3 16l54 157q8 23 33 23z" />
    <glyph glyph-name="quotedblleft" unicode="&#x201c;" horiz-adv-x="364" 
d="M287 711q14 0 23.5 -9t9.5 -24q0 -6 -3 -16l-54 -156q-8 -24 -33 -24q-14 0 -23.5 9t-9.5 24q0 7 3 16l54 157q8 23 33 23zM134 711q14 0 23.5 -9t9.5 -24q0 -6 -3 -16l-54 -156q-8 -24 -33 -24q-14 0 -23.5 9t-9.5 24q0 7 3 16l54 157q8 23 33 23z" />
    <glyph glyph-name="quotedblright" unicode="&#x201d;" horiz-adv-x="364" 
d="M287 711q14 0 23.5 -9t9.5 -24q0 -6 -3 -16l-54 -156q-8 -24 -33 -24q-14 0 -23.5 9t-9.5 24q0 7 3 16l54 157q8 23 33 23zM134 711q14 0 23.5 -9t9.5 -24q0 -6 -3 -16l-54 -156q-8 -24 -33 -24q-14 0 -23.5 9t-9.5 24q0 7 3 16l54 157q8 23 33 23z" />
    <glyph glyph-name="quotedblbase" unicode="&#x201e;" horiz-adv-x="364" 
d="M275 94q14 0 23.5 -9t9.5 -24q0 -5 -3 -16l-54 -156q-8 -24 -33 -24q-14 0 -23.5 9t-9.5 24q0 7 3 16l54 157q8 23 33 23zM122 94q14 0 23.5 -9t9.5 -24q0 -5 -3 -16l-54 -156q-8 -24 -33 -24q-14 0 -23.5 9t-9.5 24q0 7 3 16l54 157q8 23 33 23z" />
    <glyph glyph-name="dagger" unicode="&#x2020;" 
d="M266 711q14 0 24 -9.5t10 -24.5v-177h164q14 0 23 -9.5t9 -23.5t-9 -23t-23 -9h-164v-624q0 -15 -10 -24.5t-24 -9.5q-15 0 -24.5 9.5t-9.5 24.5v624h-165q-14 0 -23 9t-9 23t9 23.5t23 9.5h165v177q0 15 9.5 24.5t24.5 9.5z" />
    <glyph glyph-name="daggerdbl" unicode="&#x2021;" 
d="M266 711q14 0 24 -9.5t10 -24.5v-177h164q14 0 23 -9.5t9 -23.5t-9 -23t-23 -9h-164v-370h164q14 0 23 -9.5t9 -23.5t-9 -23t-23 -9h-164v-189q0 -15 -10 -24.5t-24 -9.5q-15 0 -24.5 9.5t-9.5 24.5v189h-165q-14 0 -23 9t-9 23t9 23.5t23 9.5h165v370h-165q-14 0 -23 9
t-9 23t9 23.5t23 9.5h165v177q0 15 9.5 24.5t24.5 9.5z" />
    <glyph glyph-name="bullet" unicode="&#x2022;" 
d="M266 400q35 0 60.5 -25t25.5 -61t-25.5 -61t-60.5 -25q-36 0 -61 25t-25 61t25 61t61 25z" />
    <glyph glyph-name="ellipsis" unicode="&#x2026;" horiz-adv-x="814" 
d="M678 88q20 0 34.5 -14.5t14.5 -34.5t-14.5 -34.5t-34.5 -14.5t-34.5 14.5t-14.5 34.5t14.5 34.5t34.5 14.5zM135 88q20 0 34.5 -14.5t14.5 -34.5t-14.5 -34.5t-34.5 -14.5t-34.5 14.5t-14.5 34.5t14.5 34.5t34.5 14.5zM407 88q20 0 34.5 -14.5t14.5 -34.5t-14.5 -34.5
t-34.5 -14.5t-34.5 14.5t-14.5 34.5t14.5 34.5t34.5 14.5z" />
    <glyph glyph-name="perthousand" unicode="&#x2030;" horiz-adv-x="1222" 
d="M221 655q-37 0 -57 -21t-20 -59v-86q0 -38 20 -59t57 -21q36 0 56 21t20 59v86q0 38 -19.5 59t-56.5 21zM221 711q62 0 98 -36.5t36 -96.5v-91q0 -61 -37 -97t-97 -36q-62 0 -98.5 36t-36.5 97v91q0 61 36.5 97t98.5 36zM665 291q-78 0 -78 -80v-86q0 -38 20 -59t58 -21
q36 0 56 21t20 59v86q0 38 -19.5 59t-56.5 21zM665 347q62 0 98 -36.5t36 -96.5v-91q0 -61 -37 -97t-97 -36q-62 0 -98.5 36t-36.5 97v91q0 61 36.5 97t98.5 36zM1002 291q-37 0 -57 -21t-20 -59v-86q0 -38 20 -59t57 -21q36 0 56 21t20 59v86q0 38 -19.5 59t-56.5 21z
M1002 347q62 0 98 -36.5t36 -96.5v-91q0 -61 -37 -97t-97 -36q-62 0 -98.5 36t-36.5 97v91q0 61 36.5 97t98.5 36zM674 711q12 0 19 -7.5t7 -18.5t-5 -18l-460 -664q-10 -13 -23 -13q-12 0 -19.5 7.5t-7.5 18.5q0 9 6 18l459 664q9 13 24 13z" />
    <glyph glyph-name="minute" unicode="&#x2032;" horiz-adv-x="211" 
d="M134 711q14 0 23.5 -9t9.5 -24q0 -6 -3 -16l-54 -156q-8 -24 -33 -24q-14 0 -23.5 9t-9.5 24q0 7 3 16l54 157q8 23 33 23z" />
    <glyph glyph-name="second" unicode="&#x2033;" horiz-adv-x="364" 
d="M287 711q14 0 23.5 -9t9.5 -24q0 -6 -3 -16l-54 -156q-8 -24 -33 -24q-14 0 -23.5 9t-9.5 24q0 7 3 16l54 157q8 23 33 23zM134 711q14 0 23.5 -9t9.5 -24q0 -6 -3 -16l-54 -156q-8 -24 -33 -24q-14 0 -23.5 9t-9.5 24q0 7 3 16l54 157q8 23 33 23z" />
    <glyph glyph-name="guilsinglleft" unicode="&#x2039;" horiz-adv-x="331" 
d="M227 461q15 0 24 -9.5t9 -24.5q0 -11 -7 -21l-109 -153l109 -153q7 -10 7 -21q0 -15 -9 -24.5t-24 -9.5q-17 0 -28 16l-118 165q-10 13 -10 27t10 27l117 166q11 15 29 15z" />
    <glyph glyph-name="guilsinglright" unicode="&#x203a;" horiz-adv-x="331" 
d="M104 461q17 0 28 -16l118 -165q10 -13 10 -27t-10 -27l-117 -166q-11 -15 -29 -15q-15 0 -24 9.5t-9 24.5q0 11 7 21l109 153l-109 153q-7 10 -7 21q0 15 9 24.5t24 9.5z" />
    <glyph glyph-name="fraction" unicode="&#x2044;" horiz-adv-x="197" 
d="M277 711q11 0 18 -7t7 -17q0 -6 -6 -18l-354 -665q-8 -14 -22 -14q-11 0 -18 7t-7 17q0 6 6 18l354 665q8 14 22 14z" />
    <glyph glyph-name="uni2070" unicode="&#x2070;" horiz-adv-x="357" 
d="M178 713q57 0 89.5 -32.5t32.5 -88.5v-183q0 -55 -32.5 -88t-89.5 -33q-56 0 -89 33t-33 88v183q0 55 32.5 88t89.5 33zM178 668q-35 0 -54.5 -19t-19.5 -54v-190q0 -34 19.5 -53t54.5 -19t55 19t20 53v190q0 35 -20 54t-55 19z" />
    <glyph glyph-name="uni2074" unicode="&#x2074;" horiz-adv-x="311" 
d="M147 711q10 0 16.5 -6.5t6.5 -15.5q0 -6 -2 -12l-86 -243h99v79q0 10 7 17t17 7q9 0 16 -7t7 -17v-79h48q9 0 15.5 -6.5t6.5 -16.5q0 -9 -6.5 -16t-15.5 -7h-48v-79q0 -10 -7 -16.5t-16 -6.5q-10 0 -17 6.5t-7 16.5v79h-126q-13 0 -20.5 8t-7.5 20q0 7 3 15l96 266
q5 14 21 14z" />
    <glyph glyph-name="uni2075" unicode="&#x2075;" horiz-adv-x="336" 
d="M88 705h161q10 0 16.5 -7t6.5 -16t-6.5 -16t-16.5 -7h-142v-124q28 12 57 12q51 0 85 -32.5t34 -80.5v-35q0 -48 -34 -80.5t-85 -32.5q-54 0 -96 21q-15 7 -15 21q0 9 6 15.5t16 6.5q3 0 11 -3q40 -16 78 -16q31 0 51 19.5t20 48.5v35q0 29 -20 48.5t-51 19.5
q-28 0 -61 -15q-7 -3 -15 -3q-12 0 -20.5 8.5t-8.5 21.5v162q0 12 8.5 20.5t20.5 8.5z" />
    <glyph glyph-name="uni2076" unicode="&#x2076;" horiz-adv-x="335" 
d="M212 711q20 0 40 -5q19 -4 19 -22q0 -9 -6.5 -15.5t-16.5 -6.5q-3 0 -14 2t-22 2q-58 0 -83 -35t-25 -103v-8q29 29 74 29q49 0 82 -32t33 -81v-37q0 -48 -34.5 -80.5t-84.5 -32.5t-84 32.5t-34 80.5v128q0 81 36.5 132.5t119.5 51.5zM174 504q-31 0 -50.5 -19t-19.5 -48
v-38q0 -29 20 -48.5t50 -19.5q31 0 51 19.5t20 48.5v38q0 29 -20 48t-51 19z" />
    <glyph glyph-name="uni2077" unicode="&#x2077;" horiz-adv-x="287" 
d="M40 705h191q13 0 21.5 -8t8.5 -21q0 -5 -4 -16l-142 -358q-6 -16 -22 -16q-10 0 -17 6.5t-7 16.5q0 5 3 13l133 337h-165q-10 0 -16.5 7t-6.5 16q0 10 6.5 16.5t16.5 6.5z" />
    <glyph glyph-name="uni2078" unicode="&#x2078;" horiz-adv-x="352" 
d="M176 711q50 0 82 -31.5t32 -79.5q0 -60 -51 -90q60 -31 60 -102q0 -55 -34.5 -88.5t-88.5 -33.5t-88.5 33.5t-34.5 88.5q0 70 60 102q-50 32 -50 90q0 48 31.5 79.5t81.5 31.5zM176 486q-34 0 -54.5 -21.5t-20.5 -56.5q0 -36 20.5 -56.5t54.5 -20.5t54.5 20.5t20.5 56.5
q0 35 -20.5 56.5t-54.5 21.5zM176 666q-29 0 -47 -18t-18 -48t19 -49.5t46 -19.5q28 0 47 19.5t19 49.5t-18.5 48t-47.5 18z" />
    <glyph glyph-name="uni2079" unicode="&#x2079;" horiz-adv-x="335" 
d="M160 711q51 0 84.5 -32.5t33.5 -80.5v-128q0 -81 -36 -132.5t-120 -51.5q-20 0 -40 5q-18 5 -18 22q0 9 6.5 15.5t15.5 6.5q3 0 14 -2t22 -2q59 0 84 35t25 103v8q-31 -29 -74 -29q-49 0 -82 32t-33 81v37q0 48 34 80.5t84 32.5zM160 666q-30 0 -50.5 -19.5t-20.5 -48.5
v-38q0 -29 20.5 -48t50.5 -19q31 0 50.5 19t19.5 48v38q0 29 -19.5 48.5t-50.5 19.5z" />
    <glyph glyph-name="uni2080" unicode="&#x2080;" horiz-adv-x="357" 
d="M178 209q57 0 89.5 -32.5t32.5 -88.5v-183q0 -55 -32.5 -88t-89.5 -33q-56 0 -89 33t-33 88v183q0 55 32.5 88t89.5 33zM178 164q-35 0 -54.5 -19t-19.5 -54v-190q0 -34 19.5 -53t54.5 -19t55 19t20 53v190q0 35 -20 54t-55 19z" />
    <glyph glyph-name="uni2081" unicode="&#x2081;" horiz-adv-x="252" 
d="M143 209q12 0 19.5 -7.5t7.5 -19.5v-375q0 -10 -6.5 -16.5t-16.5 -6.5t-17 6.5t-7 16.5v342l-63 -35q-7 -4 -13 -4q-10 0 -17 6t-7 16q0 14 13 20l93 53q7 4 14 4z" />
    <glyph glyph-name="uni2082" unicode="&#x2082;" horiz-adv-x="312" 
d="M140 209q54 0 87 -30t33 -80q0 -43 -38 -95l-122 -168h140q10 0 16.5 -7t6.5 -16q0 -10 -6.5 -16.5t-16.5 -6.5h-181q-12 0 -20 7.5t-8 18.5q0 10 8 20l143 192q30 42 30 69q0 32 -20 49.5t-52 17.5q-34 0 -69 -16q-6 -3 -11 -3q-10 0 -16 6.5t-6 16.5q0 12 12 19
q40 22 90 22z" />
    <glyph glyph-name="uni2083" unicode="&#x2083;" horiz-adv-x="320" 
d="M139 209q54 0 85 -31.5t31 -80.5q0 -60 -51 -91q30 -13 46.5 -40.5t16.5 -60.5q0 -53 -34 -87t-92 -34q-56 0 -96 21q-14 7 -14 21q0 10 6.5 16t16.5 6q5 0 11 -3q35 -16 76 -16q37 0 58 20t21 56q0 34 -24 55.5t-61 21.5h-12q-10 0 -16.5 6.5t-6.5 15.5t6.5 16t16.5 7
h12q32 0 52.5 19.5t20.5 49.5q0 32 -18.5 50t-51.5 18q-35 0 -70 -16q-6 -3 -11 -3q-10 0 -16.5 6.5t-6.5 16.5q0 13 12 19q43 22 93 22z" />
    <glyph glyph-name="uni2084" unicode="&#x2084;" horiz-adv-x="311" 
d="M147 209q10 0 16.5 -6.5t6.5 -15.5q0 -6 -2 -12l-86 -243h99v79q0 10 7 17t17 7q9 0 16 -7t7 -17v-79h48q9 0 15.5 -6.5t6.5 -16.5q0 -9 -6.5 -16t-15.5 -7h-48v-79q0 -10 -7 -16.5t-16 -6.5q-10 0 -17 6.5t-7 16.5v79h-126q-13 0 -20.5 8t-7.5 20q0 7 3 15l96 266
q5 14 21 14z" />
    <glyph glyph-name="uni2085" unicode="&#x2085;" horiz-adv-x="336" 
d="M88 203h161q10 0 16.5 -7t6.5 -16t-6.5 -16t-16.5 -7h-142v-124q28 12 57 12q51 0 85 -32.5t34 -80.5v-35q0 -48 -34 -80.5t-85 -32.5q-54 0 -96 21q-15 7 -15 21q0 9 6 15.5t16 6.5q3 0 11 -3q40 -16 78 -16q31 0 51 19.5t20 48.5v35q0 29 -20 48.5t-51 19.5
q-28 0 -61 -15q-7 -3 -15 -3q-12 0 -20.5 8.5t-8.5 21.5v162q0 12 8.5 20.5t20.5 8.5z" />
    <glyph glyph-name="uni2086" unicode="&#x2086;" horiz-adv-x="335" 
d="M212 209q20 0 40 -5q19 -4 19 -22q0 -9 -6.5 -15.5t-16.5 -6.5q-3 0 -14 2t-22 2q-58 0 -83 -35t-25 -103v-8q29 29 74 29q49 0 82 -32t33 -81v-37q0 -48 -34.5 -80.5t-84.5 -32.5t-84 32.5t-34 80.5v128q0 81 36.5 132.5t119.5 51.5zM174 2q-31 0 -50.5 -19t-19.5 -48
v-38q0 -29 20 -48.5t50 -19.5q31 0 51 19.5t20 48.5v38q0 29 -20 48t-51 19z" />
    <glyph glyph-name="uni2087" unicode="&#x2087;" horiz-adv-x="287" 
d="M40 203h191q13 0 21.5 -8t8.5 -21q0 -5 -4 -16l-142 -358q-6 -16 -22 -16q-10 0 -17 6.5t-7 16.5q0 5 3 13l133 337h-165q-10 0 -16.5 7t-6.5 16q0 10 6.5 16.5t16.5 6.5z" />
    <glyph glyph-name="uni2088" unicode="&#x2088;" horiz-adv-x="352" 
d="M176 209q50 0 82 -31.5t32 -79.5q0 -60 -51 -90q60 -31 60 -102q0 -55 -34.5 -88.5t-88.5 -33.5t-88.5 33.5t-34.5 88.5q0 70 60 102q-50 32 -50 90q0 48 31.5 79.5t81.5 31.5zM176 -16q-34 0 -54.5 -21.5t-20.5 -56.5q0 -36 20.5 -56.5t54.5 -20.5t54.5 20.5t20.5 56.5
q0 35 -20.5 56.5t-54.5 21.5zM176 164q-29 0 -47 -18t-18 -48t19 -49.5t46 -19.5q28 0 47 19.5t19 49.5t-18.5 48t-47.5 18z" />
    <glyph glyph-name="uni2089" unicode="&#x2089;" horiz-adv-x="335" 
d="M160 209q51 0 84.5 -32.5t33.5 -80.5v-128q0 -81 -36 -132.5t-120 -51.5q-20 0 -40 5q-18 5 -18 22q0 9 6.5 15.5t15.5 6.5q3 0 14 -2t22 -2q59 0 84 35t25 103v8q-31 -29 -74 -29q-49 0 -82 32t-33 81v37q0 48 34 80.5t84 32.5zM160 164q-30 0 -50.5 -19.5t-20.5 -48.5
v-38q0 -29 20.5 -48t50.5 -19q31 0 50.5 19t19.5 48v38q0 29 -19.5 48.5t-50.5 19.5z" />
    <glyph glyph-name="Euro" unicode="&#x20ac;" 
d="M333 711q70 0 138 -39q25 -15 25 -33q0 -12 -9.5 -22t-23.5 -10q-11 0 -23 7q-54 32 -107 32q-77 0 -114.5 -43.5t-37.5 -122.5v-17h176q13 0 21.5 -8.5t8.5 -21.5t-8.5 -21.5t-21.5 -8.5h-176v-100h176q13 0 21.5 -8.5t8.5 -22.5q0 -13 -8.5 -21.5t-21.5 -8.5h-176v-21
q0 -79 38 -122.5t114 -43.5q52 0 103 30q15 9 27 9q13 0 23 -9t10 -23q0 -17 -19 -30q-60 -42 -144 -42q-106 0 -163.5 62t-57.5 173v17h-47q-13 0 -21.5 8.5t-8.5 21.5t8.5 22t21.5 9h47v100h-47q-13 0 -21.5 8.5t-8.5 21.5t8.5 21.5t21.5 8.5h47v13q0 112 57.5 173.5
t163.5 61.5z" />
    <glyph glyph-name="trademark" unicode="&#x2122;" horiz-adv-x="805" 
d="M689 711q12 0 21 -9t9 -22v-368q0 -11 -8 -18.5t-19 -7.5t-19 7.5t-8 18.5v276l-91 -174q-9 -17 -27 -17t-27 17l-91 174v-276q0 -11 -8 -18.5t-19 -7.5t-19 7.5t-8 18.5v368q0 13 9 22t21 9q20 0 28 -17l114 -220l114 220q9 17 28 17zM73 705h227q11 0 19 -7.5t8 -18.5
t-8 -18.5t-19 -7.5h-87v-341q0 -11 -8 -18.5t-19 -7.5t-18.5 7.5t-7.5 18.5v341h-87q-11 0 -19 7.5t-8 18.5t8 18.5t19 7.5z" />
    <glyph glyph-name="Omega" unicode="&#x2126;" horiz-adv-x="613" 
d="M306 711q106 0 168.5 -61t62.5 -166v-150q0 -72 -31 -124.5t-87 -77.5v-65h95q14 0 23.5 -9.5t9.5 -23.5t-9.5 -24t-23.5 -10h-117q-19 0 -30.5 11.5t-11.5 29.5v106q0 28 25 39q88 38 88 143v160q0 73 -44 115t-118 42t-117.5 -42t-43.5 -115v-160q0 -104 87 -143
q25 -11 25 -39v-106q0 -18 -11 -29.5t-30 -11.5h-117q-15 0 -24.5 10t-9.5 24t9.5 23.5t24.5 9.5h94v65q-56 25 -87 77.5t-31 124.5v150q0 105 62.5 166t168.5 61z" />
    <glyph glyph-name="uni2150" unicode="&#x2150;" horiz-adv-x="736" 
d="M529 711q11 0 18 -7t7 -17q0 -6 -6 -18l-354 -665q-8 -14 -22 -14q-11 0 -18 7t-7 17q0 6 6 18l354 665q8 14 22 14zM489 413h191q13 0 21.5 -8t8.5 -21q0 -5 -4 -16l-142 -358q-6 -16 -22 -16q-10 0 -17 6.5t-7 16.5q0 5 3 13l133 337h-165q-10 0 -16.5 7t-6.5 16
q0 10 6.5 16.5t16.5 6.5zM143 711q12 0 19.5 -7.5t7.5 -19.5v-375q0 -10 -6.5 -16.5t-16.5 -6.5t-17 6.5t-7 16.5v342l-63 -35q-7 -4 -13 -4q-10 0 -17 6t-7 16q0 14 13 20l93 53q7 4 14 4z" />
    <glyph glyph-name="uni2151" unicode="&#x2151;" horiz-adv-x="784" 
d="M529 711q11 0 18 -7t7 -17q0 -6 -6 -18l-354 -665q-8 -14 -22 -14q-11 0 -18 7t-7 17q0 6 6 18l354 665q8 14 22 14zM609 419q51 0 84.5 -32.5t33.5 -80.5v-128q0 -81 -36 -132.5t-120 -51.5q-20 0 -40 5q-18 5 -18 22q0 9 6.5 15.5t15.5 6.5q3 0 14 -2t22 -2q59 0 84 35
t25 103v8q-31 -29 -74 -29q-49 0 -82 32t-33 81v37q0 48 34 80.5t84 32.5zM609 374q-30 0 -50.5 -19.5t-20.5 -48.5v-38q0 -29 20.5 -48t50.5 -19q31 0 50.5 19t19.5 48v38q0 29 -19.5 48.5t-50.5 19.5zM143 711q12 0 19.5 -7.5t7.5 -19.5v-375q0 -10 -6.5 -16.5t-16.5 -6.5
t-17 6.5t-7 16.5v342l-63 -35q-7 -4 -13 -4q-10 0 -17 6t-7 16q0 14 13 20l93 53q7 4 14 4z" />
    <glyph glyph-name="uni2152" unicode="&#x2152;" horiz-adv-x="1058" 
d="M529 711q11 0 18 -7t7 -17q0 -6 -6 -18l-354 -665q-8 -14 -22 -14q-11 0 -18 7t-7 17q0 6 6 18l354 665q8 14 22 14zM879 419q57 0 89.5 -32.5t32.5 -88.5v-183q0 -55 -32.5 -88t-89.5 -33q-56 0 -89 33t-33 88v183q0 55 32.5 88t89.5 33zM879 374q-35 0 -54.5 -19
t-19.5 -54v-190q0 -34 19.5 -53t54.5 -19t55 19t20 53v190q0 35 -20 54t-55 19zM592 419q12 0 19.5 -7.5t7.5 -19.5v-375q0 -10 -6.5 -16.5t-16.5 -6.5t-17 6.5t-7 16.5v342l-63 -35q-7 -4 -13 -4q-10 0 -17 6t-7 16q0 14 13 20l93 53q7 4 14 4zM143 711q12 0 19.5 -7.5
t7.5 -19.5v-375q0 -10 -6.5 -16.5t-16.5 -6.5t-17 6.5t-7 16.5v342l-63 -35q-7 -4 -13 -4q-10 0 -17 6t-7 16q0 14 13 20l93 53q7 4 14 4z" />
    <glyph glyph-name="onethird" unicode="&#x2153;" horiz-adv-x="769" 
d="M529 711q11 0 18 -7t7 -17q0 -6 -6 -18l-354 -665q-8 -14 -22 -14q-11 0 -18 7t-7 17q0 6 6 18l354 665q8 14 22 14zM588 419q54 0 85 -31.5t31 -80.5q0 -60 -51 -91q30 -13 46.5 -40.5t16.5 -60.5q0 -53 -34 -87t-92 -34q-56 0 -96 21q-14 7 -14 21q0 10 6.5 16t16.5 6
q5 0 11 -3q35 -16 76 -16q37 0 58 20t21 56q0 34 -24 55.5t-61 21.5h-12q-10 0 -16.5 6.5t-6.5 15.5t6.5 16t16.5 7h12q32 0 52.5 19.5t20.5 49.5q0 32 -18.5 50t-51.5 18q-35 0 -70 -16q-6 -3 -11 -3q-10 0 -16.5 6.5t-6.5 16.5q0 13 12 19q43 22 93 22zM143 711
q12 0 19.5 -7.5t7.5 -19.5v-375q0 -10 -6.5 -16.5t-16.5 -6.5t-17 6.5t-7 16.5v342l-63 -35q-7 -4 -13 -4q-10 0 -17 6t-7 16q0 14 13 20l93 53q7 4 14 4z" />
    <glyph glyph-name="twothirds" unicode="&#x2154;" horiz-adv-x="829" 
d="M589 711q11 0 18 -7t7 -17q0 -6 -6 -18l-354 -665q-8 -14 -22 -14q-11 0 -18 7t-7 17q0 6 6 18l354 665q8 14 22 14zM648 419q54 0 85 -31.5t31 -80.5q0 -60 -51 -91q30 -13 46.5 -40.5t16.5 -60.5q0 -53 -34 -87t-92 -34q-56 0 -96 21q-14 7 -14 21q0 10 6.5 16t16.5 6
q5 0 11 -3q35 -16 76 -16q37 0 58 20t21 56q0 34 -24 55.5t-61 21.5h-12q-10 0 -16.5 6.5t-6.5 15.5t6.5 16t16.5 7h12q32 0 52.5 19.5t20.5 49.5q0 32 -18.5 50t-51.5 18q-35 0 -70 -16q-6 -3 -11 -3q-10 0 -16.5 6.5t-6.5 16.5q0 13 12 19q43 22 93 22zM140 711
q54 0 87 -30t33 -80q0 -43 -38 -95l-122 -168h140q10 0 16.5 -7t6.5 -16q0 -10 -6.5 -16.5t-16.5 -6.5h-181q-12 0 -20 7.5t-8 18.5q0 10 8 20l143 192q30 42 30 69q0 32 -20 49.5t-52 17.5q-34 0 -69 -16q-6 -3 -11 -3q-10 0 -16 6.5t-6 16.5q0 12 12 19q40 22 90 22z" />
    <glyph glyph-name="uni2155" unicode="&#x2155;" horiz-adv-x="785" 
d="M529 711q11 0 18 -7t7 -17q0 -6 -6 -18l-354 -665q-8 -14 -22 -14q-11 0 -18 7t-7 17q0 6 6 18l354 665q8 14 22 14zM537 413h161q10 0 16.5 -7t6.5 -16t-6.5 -16t-16.5 -7h-142v-124q28 12 57 12q51 0 85 -32.5t34 -80.5v-35q0 -48 -34 -80.5t-85 -32.5q-54 0 -96 21
q-15 7 -15 21q0 9 6 15.5t16 6.5q4 0 11 -3q40 -16 78 -16q31 0 51 19.5t20 48.5v35q0 29 -20 48.5t-51 19.5q-28 0 -61 -15q-8 -3 -15 -3q-12 0 -20.5 8.5t-8.5 21.5v162q0 12 8.5 20.5t20.5 8.5zM143 711q12 0 19.5 -7.5t7.5 -19.5v-375q0 -10 -6.5 -16.5t-16.5 -6.5
t-17 6.5t-7 16.5v342l-63 -35q-7 -4 -13 -4q-10 0 -17 6t-7 16q0 14 13 20l93 53q7 4 14 4z" />
    <glyph glyph-name="uni2156" unicode="&#x2156;" horiz-adv-x="845" 
d="M589 711q11 0 18 -7t7 -17q0 -6 -6 -18l-354 -665q-8 -14 -22 -14q-11 0 -18 7t-7 17q0 6 6 18l354 665q8 14 22 14zM597 413h161q10 0 16.5 -7t6.5 -16t-6.5 -16t-16.5 -7h-142v-124q28 12 57 12q51 0 85 -32.5t34 -80.5v-35q0 -48 -34 -80.5t-85 -32.5q-54 0 -96 21
q-15 7 -15 21q0 9 6 15.5t16 6.5q4 0 11 -3q40 -16 78 -16q31 0 51 19.5t20 48.5v35q0 29 -20 48.5t-51 19.5q-28 0 -61 -15q-8 -3 -15 -3q-12 0 -20.5 8.5t-8.5 21.5v162q0 12 8.5 20.5t20.5 8.5zM140 711q54 0 87 -30t33 -80q0 -43 -38 -95l-122 -168h140q10 0 16.5 -7
t6.5 -16q0 -10 -6.5 -16.5t-16.5 -6.5h-181q-12 0 -20 7.5t-8 18.5q0 10 8 20l143 192q30 42 30 69q0 32 -20 49.5t-52 17.5q-34 0 -69 -16q-6 -3 -11 -3q-10 0 -16 6.5t-6 16.5q0 12 12 19q40 22 90 22z" />
    <glyph glyph-name="uni2157" unicode="&#x2157;" horiz-adv-x="853" 
d="M597 711q11 0 18 -7t7 -17q0 -6 -6 -18l-354 -665q-8 -14 -22 -14q-11 0 -18 7t-7 17q0 6 6 18l354 665q8 14 22 14zM605 413h161q10 0 16.5 -7t6.5 -16t-6.5 -16t-16.5 -7h-142v-124q28 12 57 12q51 0 85 -32.5t34 -80.5v-35q0 -48 -34 -80.5t-85 -32.5q-54 0 -96 21
q-15 7 -15 21q0 9 6 15.5t16 6.5q4 0 11 -3q40 -16 78 -16q31 0 51 19.5t20 48.5v35q0 29 -20 48.5t-51 19.5q-28 0 -61 -15q-8 -3 -15 -3q-12 0 -20.5 8.5t-8.5 21.5v162q0 12 8.5 20.5t20.5 8.5zM139 711q54 0 85 -31.5t31 -80.5q0 -60 -51 -91q30 -13 46.5 -40.5
t16.5 -60.5q0 -53 -34 -87t-92 -34q-56 0 -96 21q-14 7 -14 21q0 10 6.5 16t16.5 6q5 0 11 -3q35 -16 76 -16q37 0 58 20t21 56q0 34 -24 55.5t-61 21.5h-12q-10 0 -16.5 6.5t-6.5 15.5t6.5 16t16.5 7h12q32 0 52.5 19.5t20.5 49.5q0 32 -18.5 50t-51.5 18q-35 0 -70 -16
q-6 -3 -11 -3q-10 0 -16.5 6.5t-6.5 16.5q0 13 12 19q43 22 93 22z" />
    <glyph glyph-name="uni2158" unicode="&#x2158;" horiz-adv-x="844" 
d="M588 711q11 0 18 -7t7 -17q0 -6 -6 -18l-354 -665q-8 -14 -22 -14q-11 0 -18 7t-7 17q0 6 6 18l354 665q8 14 22 14zM596 413h161q10 0 16.5 -7t6.5 -16t-6.5 -16t-16.5 -7h-142v-124q28 12 57 12q51 0 85 -32.5t34 -80.5v-35q0 -48 -34 -80.5t-85 -32.5q-54 0 -96 21
q-15 7 -15 21q0 9 6 15.5t16 6.5q3 0 11 -3q40 -16 78 -16q31 0 51 19.5t20 48.5v35q0 29 -20 48.5t-51 19.5q-28 0 -61 -15q-7 -3 -15 -3q-12 0 -20.5 8.5t-8.5 21.5v162q0 12 8.5 20.5t20.5 8.5zM147 711q10 0 16.5 -6.5t6.5 -15.5q0 -6 -2 -12l-86 -243h99v79q0 10 7 17
t17 7q9 0 16 -7t7 -17v-79h48q9 0 15.5 -6.5t6.5 -16.5q0 -9 -6.5 -16t-15.5 -7h-48v-79q0 -10 -7 -16.5t-16 -6.5q-10 0 -17 6.5t-7 16.5v79h-126q-13 0 -20.5 8t-7.5 20q0 7 3 15l96 266q5 14 21 14z" />
    <glyph glyph-name="uni2159" unicode="&#x2159;" horiz-adv-x="784" 
d="M529 711q11 0 18 -7t7 -17q0 -6 -6 -18l-354 -665q-8 -14 -22 -14q-11 0 -18 7t-7 17q0 6 6 18l354 665q8 14 22 14zM661 419q20 0 40 -5q19 -4 19 -22q0 -9 -6.5 -15.5t-16.5 -6.5q-3 0 -14 2t-22 2q-58 0 -83 -35t-25 -103v-8q29 29 74 29q49 0 82 -32t33 -81v-37
q0 -48 -34.5 -80.5t-84.5 -32.5t-84 32.5t-34 80.5v128q0 81 36.5 132.5t119.5 51.5zM623 212q-31 0 -50.5 -19t-19.5 -48v-38q0 -29 20 -48.5t50 -19.5q31 0 51 19.5t20 48.5v38q0 29 -20 48t-51 19zM143 711q12 0 19.5 -7.5t7.5 -19.5v-375q0 -10 -6.5 -16.5t-16.5 -6.5
t-17 6.5t-7 16.5v342l-63 -35q-7 -4 -13 -4q-10 0 -17 6t-7 16q0 14 13 20l93 53q7 4 14 4z" />
    <glyph glyph-name="uni215A" unicode="&#x215a;" horiz-adv-x="868" 
d="M613 711q11 0 18 -7t7 -17q0 -6 -6 -18l-354 -665q-8 -14 -22 -14q-11 0 -18 7t-7 17q0 6 6 18l354 665q8 14 22 14zM745 419q20 0 40 -5q19 -4 19 -22q0 -9 -6.5 -15.5t-16.5 -6.5q-3 0 -14 2t-22 2q-58 0 -83 -35t-25 -103v-8q29 29 74 29q49 0 82 -32t33 -81v-37
q0 -48 -34.5 -80.5t-84.5 -32.5t-84 32.5t-34 80.5v128q0 81 36.5 132.5t119.5 51.5zM707 212q-31 0 -50.5 -19t-19.5 -48v-38q0 -29 20 -48.5t50 -19.5q31 0 51 19.5t20 48.5v38q0 29 -20 48t-51 19zM88 705h161q10 0 16.5 -7t6.5 -16t-6.5 -16t-16.5 -7h-142v-124
q28 12 57 12q51 0 85 -32.5t34 -80.5v-35q0 -48 -34 -80.5t-85 -32.5q-54 0 -96 21q-15 7 -15 21q0 9 6 15.5t16 6.5q3 0 11 -3q40 -16 78 -16q31 0 51 19.5t20 48.5v35q0 29 -20 48.5t-51 19.5q-28 0 -61 -15q-7 -3 -15 -3q-12 0 -20.5 8.5t-8.5 21.5v162q0 12 8.5 20.5
t20.5 8.5z" />
    <glyph glyph-name="oneeighth" unicode="&#x215b;" horiz-adv-x="801" 
d="M529 711q11 0 18 -7t7 -17q0 -6 -6 -18l-354 -665q-8 -14 -22 -14q-11 0 -18 7t-7 17q0 6 6 18l354 665q8 14 22 14zM625 419q50 0 82 -31.5t32 -79.5q0 -60 -51 -90q60 -31 60 -102q0 -55 -34.5 -88.5t-88.5 -33.5t-88.5 33.5t-34.5 88.5q0 70 60 102q-50 32 -50 90
q0 48 31.5 79.5t81.5 31.5zM625 194q-34 0 -54.5 -21.5t-20.5 -56.5q0 -36 20.5 -56.5t54.5 -20.5t54.5 20.5t20.5 56.5q0 35 -20.5 56.5t-54.5 21.5zM625 374q-29 0 -47 -18t-18 -48t19 -49.5t46 -19.5q28 0 47 19.5t19 49.5t-18.5 48t-47.5 18zM143 711q12 0 19.5 -7.5
t7.5 -19.5v-375q0 -10 -6.5 -16.5t-16.5 -6.5t-17 6.5t-7 16.5v342l-63 -35q-7 -4 -13 -4q-10 0 -17 6t-7 16q0 14 13 20l93 53q7 4 14 4z" />
    <glyph glyph-name="threeeighths" unicode="&#x215c;" horiz-adv-x="869" 
d="M597 711q11 0 18 -7t7 -17q0 -6 -6 -18l-354 -665q-8 -14 -22 -14q-11 0 -18 7t-7 17q0 6 6 18l354 665q8 14 22 14zM693 419q50 0 82 -31.5t32 -79.5q0 -60 -51 -90q60 -31 60 -102q0 -55 -34.5 -88.5t-88.5 -33.5t-88.5 33.5t-34.5 88.5q0 70 60 102q-50 32 -50 90
q0 48 31.5 79.5t81.5 31.5zM693 194q-34 0 -54.5 -21.5t-20.5 -56.5q0 -36 20.5 -56.5t54.5 -20.5t54.5 20.5t20.5 56.5q0 35 -20.5 56.5t-54.5 21.5zM693 374q-29 0 -47 -18t-18 -48t19 -49.5t46 -19.5q28 0 47 19.5t19 49.5t-18.5 48t-47.5 18zM139 711q54 0 85 -31.5
t31 -80.5q0 -60 -51 -91q30 -13 46.5 -40.5t16.5 -60.5q0 -53 -34 -87t-92 -34q-56 0 -96 21q-14 7 -14 21q0 10 6.5 16t16.5 6q5 0 11 -3q35 -16 76 -16q37 0 58 20t21 56q0 34 -24 55.5t-61 21.5h-12q-10 0 -16.5 6.5t-6.5 15.5t6.5 16t16.5 7h12q32 0 52.5 19.5
t20.5 49.5q0 32 -18.5 50t-51.5 18q-35 0 -70 -16q-6 -3 -11 -3q-10 0 -16.5 6.5t-6.5 16.5q0 13 12 19q43 22 93 22z" />
    <glyph glyph-name="fiveeighths" unicode="&#x215d;" horiz-adv-x="885" 
d="M613 711q11 0 18 -7t7 -17q0 -6 -6 -18l-354 -665q-8 -14 -22 -14q-11 0 -18 7t-7 17q0 6 6 18l354 665q8 14 22 14zM709 419q50 0 82 -31.5t32 -79.5q0 -60 -51 -90q60 -31 60 -102q0 -55 -34.5 -88.5t-88.5 -33.5t-88.5 33.5t-34.5 88.5q0 70 60 102q-50 32 -50 90
q0 48 31.5 79.5t81.5 31.5zM709 194q-34 0 -54.5 -21.5t-20.5 -56.5q0 -36 20.5 -56.5t54.5 -20.5t54.5 20.5t20.5 56.5q0 35 -20.5 56.5t-54.5 21.5zM709 374q-29 0 -47 -18t-18 -48t19 -49.5t46 -19.5q28 0 47 19.5t19 49.5t-18.5 48t-47.5 18zM88 705h161q10 0 16.5 -7
t6.5 -16t-6.5 -16t-16.5 -7h-142v-124q28 12 57 12q51 0 85 -32.5t34 -80.5v-35q0 -48 -34 -80.5t-85 -32.5q-54 0 -96 21q-15 7 -15 21q0 9 6 15.5t16 6.5q3 0 11 -3q40 -16 78 -16q31 0 51 19.5t20 48.5v35q0 29 -20 48.5t-51 19.5q-28 0 -61 -15q-7 -3 -15 -3
q-12 0 -20.5 8.5t-8.5 21.5v162q0 12 8.5 20.5t20.5 8.5z" />
    <glyph glyph-name="seveneighths" unicode="&#x215e;" horiz-adv-x="806" 
d="M534 711q11 0 18 -7t7 -17q0 -6 -6 -18l-354 -665q-8 -14 -22 -14q-11 0 -18 7t-7 17q0 6 6 18l354 665q8 14 22 14zM630 419q50 0 82 -31.5t32 -79.5q0 -60 -51 -90q60 -31 60 -102q0 -55 -34.5 -88.5t-88.5 -33.5t-88.5 33.5t-34.5 88.5q0 70 60 102q-50 32 -50 90
q0 48 31.5 79.5t81.5 31.5zM630 194q-34 0 -54.5 -21.5t-20.5 -56.5q0 -36 20.5 -56.5t54.5 -20.5t54.5 20.5t20.5 56.5q0 35 -20.5 56.5t-54.5 21.5zM630 374q-29 0 -47 -18t-18 -48t19 -49.5t46 -19.5q28 0 47 19.5t19 49.5t-18.5 48t-47.5 18zM40 705h191q13 0 21.5 -8
t8.5 -21q0 -5 -4 -16l-142 -358q-6 -16 -22 -16q-10 0 -17 6.5t-7 16.5q0 5 3 13l133 337h-165q-10 0 -16.5 7t-6.5 16q0 10 6.5 16.5t16.5 6.5z" />
    <glyph glyph-name="uni215F" unicode="&#x215f;" horiz-adv-x="449" 
d="M529 711q11 0 18 -7t7 -17q0 -6 -6 -18l-354 -665q-8 -14 -22 -14q-11 0 -18 7t-7 17q0 6 6 18l354 665q8 14 22 14zM143 711q12 0 19.5 -7.5t7.5 -19.5v-375q0 -10 -6.5 -16.5t-16.5 -6.5t-17 6.5t-7 16.5v342l-63 -35q-7 -4 -13 -4q-10 0 -17 6t-7 16q0 14 13 20l93 53
q7 4 14 4z" />
    <glyph glyph-name="uni2189" unicode="&#x2189;" horiz-adv-x="874" 
d="M178 713q57 0 89.5 -32.5t32.5 -88.5v-183q0 -55 -32.5 -88t-89.5 -33q-56 0 -89 33t-33 88v183q0 55 32.5 88t89.5 33zM178 668q-35 0 -54.5 -19t-19.5 -54v-190q0 -34 19.5 -53t54.5 -19t55 19t20 53v190q0 35 -20 54t-55 19zM634 711q11 0 18 -7t7 -17q0 -6 -6 -18
l-354 -665q-8 -14 -22 -14q-11 0 -18 7t-7 17q0 6 6 18l354 665q8 14 22 14zM693 419q54 0 85 -31.5t31 -80.5q0 -60 -51 -91q30 -13 46.5 -40.5t16.5 -60.5q0 -53 -34 -87t-92 -34q-56 0 -96 21q-14 7 -14 21q0 10 6.5 16t16.5 6q5 0 11 -3q35 -16 76 -16q37 0 58 20t21 56
q0 34 -24 55.5t-61 21.5h-12q-10 0 -16.5 6.5t-6.5 15.5t6.5 16t16.5 7h12q32 0 52.5 19.5t20.5 49.5q0 32 -18.5 50t-51.5 18q-35 0 -70 -16q-6 -3 -11 -3q-10 0 -16.5 6.5t-6.5 16.5q0 13 12 19q43 22 93 22z" />
    <glyph glyph-name="arrowleft" unicode="&#x2190;" horiz-adv-x="1310" 
d="M527 711q15 0 24 -9.5t9 -23.5q0 -15 -9 -24l-275 -270h836q15 0 24 -9.5t9 -23.5t-9 -23.5t-24 -9.5h-836l275 -270q9 -9 9 -24q0 -14 -9 -23.5t-24 -9.5q-13 0 -24 10l-326 325q-11 11 -11 25t11 25l326 325q11 10 24 10z" />
    <glyph glyph-name="arrowup" unicode="&#x2191;" horiz-adv-x="1310" 
d="M655 812q14 0 25 -11l326 -326q10 -10 10 -24q0 -15 -9.5 -24t-23.5 -9q-15 0 -26 11l-269 273v-837q0 -15 -9.5 -24t-23.5 -9t-23.5 9t-9.5 24v837l-271 -274q-10 -10 -24 -10t-23.5 9t-9.5 24q0 14 10 24l326 326q11 11 25 11z" />
    <glyph glyph-name="arrowright" unicode="&#x2192;" horiz-adv-x="1310" 
d="M783 711q13 0 24 -10l326 -325q11 -11 11 -25t-11 -25l-326 -325q-11 -10 -24 -10q-15 0 -24 9.5t-9 23.5q0 15 9 24l275 270h-836q-15 0 -24 9.5t-9 23.5t9 23.5t24 9.5h836l-275 270q-9 9 -9 24q0 14 9 23.5t24 9.5z" />
    <glyph glyph-name="arrowdown" unicode="&#x2193;" horiz-adv-x="1310" 
d="M655 812q14 0 23.5 -9t9.5 -24v-837l269 273q11 11 26 11q14 0 23.5 -9t9.5 -24q0 -14 -10 -24l-326 -326q-11 -11 -25 -11t-25 11l-326 326q-10 10 -10 24q0 15 9.5 24t23.5 9t24 -10l271 -274v837q0 15 9.5 24t23.5 9z" />
    <glyph glyph-name="uni2196" unicode="&#x2196;" horiz-adv-x="1310" 
d="M335 701h458q14 0 23.5 -9.5t9.5 -23.5t-9.5 -23.5t-23.5 -9.5h-381l589 -588q10 -10 10 -24q0 -15 -9.5 -24t-23.5 -9t-23 10l-589 589v-381q0 -14 -9.5 -23.5t-23.5 -9.5t-23.5 9.5t-9.5 23.5v458q0 15 9.5 25t25.5 10z" />
    <glyph glyph-name="uni2197" unicode="&#x2197;" horiz-adv-x="1310" 
d="M517 701h458q16 0 25.5 -10t9.5 -25v-458q0 -14 -9.5 -23.5t-23.5 -9.5t-23.5 9.5t-9.5 23.5v381l-589 -589q-9 -10 -23 -10t-23.5 9t-9.5 24q0 14 10 24l589 588h-381q-14 0 -23.5 9.5t-9.5 23.5t9.5 23.5t23.5 9.5z" />
    <glyph glyph-name="uni2198" unicode="&#x2198;" horiz-adv-x="1310" 
d="M332 711q14 0 23 -10l589 -589v381q0 14 9.5 23.5t23.5 9.5t23.5 -9.5t9.5 -23.5v-458q0 -15 -9.5 -25t-25.5 -10h-458q-14 0 -23.5 9.5t-9.5 23.5t9.5 23.5t23.5 9.5h381l-589 588q-10 10 -10 24q0 15 9.5 24t23.5 9z" />
    <glyph glyph-name="uni2199" unicode="&#x2199;" horiz-adv-x="1310" 
d="M977 711q14 0 23.5 -9t9.5 -24q0 -14 -10 -24l-589 -588h381q14 0 23.5 -9.5t9.5 -23.5t-9.5 -23.5t-23.5 -9.5h-458q-16 0 -25.5 10t-9.5 25v458q0 14 9.5 23.5t23.5 9.5t23.5 -9.5t9.5 -23.5v-381l589 589q9 10 23 10z" />
    <glyph glyph-name="uni21AA" unicode="&#x21aa;" horiz-adv-x="1100" 
d="M106 711q15 0 24.5 -9.5t9.5 -24.5v-223q0 -59 34.5 -92t91.5 -33h510l-220 216q-9 9 -9 23t9 23.5t24 9.5t24 -9l271 -271q11 -11 11 -25q0 -13 -11 -24l-271 -272q-10 -10 -24 -10q-15 0 -24 9.5t-9 23.5q0 15 9 24l220 216h-510q-89 0 -141.5 51t-52.5 142v221
q0 15 10 24.5t24 9.5z" />
    <glyph glyph-name="partialdiff" unicode="&#x2202;" 
d="M190 711q8 0 26 -5q234 -65 243 -376v-148q0 -89 -51.5 -140.5t-142.5 -51.5q-89 0 -141.5 51t-52.5 141v135q0 90 52 141.5t142 51.5q63 0 97 -45q-36 149 -180 183q-25 5 -25 31q0 14 9.5 23t23.5 9zM265 447q-57 0 -91.5 -33t-34.5 -92v-145q0 -58 34.5 -91t91.5 -33
t91.5 33t34.5 91v145q0 59 -34.5 92t-91.5 33z" />
    <glyph glyph-name="Delta" unicode="&#x2206;" horiz-adv-x="547" 
d="M274 711q29 0 38 -26l208 -627q3 -11 3 -18q0 -18 -11 -29t-29 -11h-419q-17 0 -28.5 11t-11.5 29q0 8 3 18l208 627q9 26 39 26zM274 600l-176 -534h351z" />
    <glyph glyph-name="product" unicode="&#x220f;" horiz-adv-x="643" 
d="M139 701h364q16 0 27 -11t11 -26v-853q0 -15 -10 -24.5t-24 -9.5q-15 0 -24.5 9.5t-9.5 24.5v825h-303v-825q0 -15 -10 -24.5t-24 -9.5t-24 9.5t-10 24.5v853q0 15 11 26t26 11z" />
    <glyph glyph-name="summation" unicode="&#x2211;" horiz-adv-x="689" 
d="M110 701h477q14 0 23 -9t9 -23t-9 -23.5t-23 -9.5h-425l228 -365q8 -12 8 -27t-8 -27l-228 -365h425q14 0 23 -9.5t9 -23.5t-9 -23t-23 -9h-477q-16 0 -27.5 11.5t-11.5 27.5q0 13 8 24l246 394l-246 394q-8 11 -8 24q0 16 11.5 27.5t27.5 11.5z" />
    <glyph glyph-name="minus" unicode="&#x2212;" 
d="M66 284h400q14 0 23 -9t9 -23t-9 -23.5t-23 -9.5h-400q-14 0 -23.5 9.5t-9.5 23.5t9.5 23t23.5 9z" />
    <glyph glyph-name="uni2219" unicode="&#x2219;" 
d="M265 400q35 0 60.5 -25t25.5 -61t-25.5 -61t-60.5 -25q-36 0 -61 25t-25 61t25 61t61 25z" />
    <glyph glyph-name="radical" unicode="&#x221a;" horiz-adv-x="556" 
d="M401 840h107q14 0 23 -9t9 -23t-9 -23.5t-23 -9.5h-86l-206 -756q-9 -29 -39 -29q-13 0 -24 8t-14 20l-120 442q-4 14 -4 19q0 13 9.5 22t24.5 9q26 0 33 -25l95 -371l184 695q8 31 40 31z" />
    <glyph glyph-name="infinity" unicode="&#x221e;" horiz-adv-x="788" 
d="M563 406q66 0 110.5 -45t44.5 -111q0 -65 -44.5 -110.5t-110.5 -45.5q-46 0 -90.5 29t-78.5 72q-33 -43 -78 -72t-90 -29q-67 0 -111 45.5t-44 110.5q0 66 44 111t111 45q45 0 90 -29t78 -72q34 43 78.5 72t90.5 29zM226 346q-38 0 -64.5 -28t-26.5 -68t26.5 -68
t64.5 -28q66 0 133 96q-67 96 -133 96zM563 346q-64 0 -134 -96q70 -96 134 -96q37 0 63.5 28t26.5 68t-26.5 68t-63.5 28z" />
    <glyph glyph-name="integral" unicode="&#x222b;" 
d="M377 779q15 0 24.5 -9t9.5 -23t-9.5 -23t-24.5 -9q-36 0 -56.5 -20.5t-20.5 -56.5v-717q0 -68 -38.5 -106t-107.5 -38q-15 0 -24.5 9t-9.5 23t9.5 23t24.5 9q36 0 57 20.5t21 55.5v718q0 68 38.5 106t106.5 38z" />
    <glyph glyph-name="approxequal" unicode="&#x2248;" 
d="M166 404q45 0 103 -30q64 -31 90 -31q47 0 85 43q9 10 23 10t22.5 -8.5t8.5 -21.5q0 -12 -8 -23q-47 -65 -124 -65q-44 0 -104 30q-3 2 -16.5 8.5t-19 9t-16 6.5t-20 5.5t-18.5 1.5q-47 0 -85 -43q-9 -10 -23 -10t-22.5 8.5t-8.5 21.5t7 22q48 66 126 66zM166 226
q45 0 103 -30q64 -31 90 -31q47 0 85 43q9 10 23 10t22.5 -8.5t8.5 -21.5q0 -12 -8 -23q-47 -65 -124 -65q-44 0 -104 30q-3 2 -16.5 8.5t-19 9t-16 6.5t-20 5.5t-18.5 1.5q-47 0 -85 -43q-9 -10 -23 -10t-22.5 8.5t-8.5 21.5t7 22q48 66 126 66z" />
    <glyph glyph-name="notequal" unicode="&#x2260;" 
d="M395 510q13 0 23 -8t10 -22q0 -10 -6 -21l-49 -85h93q14 0 23 -9t9 -23t-9.5 -23.5t-22.5 -9.5h-130l-67 -118h197q14 0 23 -9.5t9 -22.5q0 -14 -9.5 -23.5t-22.5 -9.5h-234l-67 -118q-10 -18 -29 -18q-13 0 -23 8t-10 22q0 8 5 17l50 89h-92q-14 0 -23.5 9.5t-9.5 23.5
t9.5 23t23.5 9h129l67 118h-196q-14 0 -23.5 9.5t-9.5 23.5t9.5 23t23.5 9h233l67 118q10 18 29 18z" />
    <glyph glyph-name="lessequal" unicode="&#x2264;" 
d="M468 510q14 0 22.5 -9.5t8.5 -23.5q0 -21 -24 -31l-313 -122l313 -121q24 -9 24 -32q0 -13 -8.5 -22.5t-22.5 -9.5q-7 0 -13 2l-391 146q-28 10 -28 37q0 29 28 38l388 144q11 4 16 4zM68 65h399q14 0 23 -9.5t9 -23.5t-9.5 -23t-22.5 -9h-399q-14 0 -23 9t-9 23t9 23.5
t23 9.5z" />
    <glyph glyph-name="greaterequal" unicode="&#x2265;" 
d="M65 510q5 0 16 -4l388 -144q28 -9 28 -38q0 -27 -28 -37l-391 -146q-6 -2 -13 -2q-14 0 -22.5 9.5t-8.5 22.5q0 23 24 32l313 121l-313 122q-24 10 -24 31q0 14 8.5 23.5t22.5 9.5zM66 65h399q14 0 23 -9.5t9 -23.5t-9.5 -23t-22.5 -9h-399q-14 0 -23 9t-9 23t9 23.5
t23 9.5z" />
    <glyph glyph-name="uni2296" unicode="&#x2296;" horiz-adv-x="840" 
d="M421 711q149 0 254.5 -105.5t105.5 -254.5q0 -150 -105.5 -255.5t-254.5 -105.5q-150 0 -255.5 105.5t-105.5 255.5q0 149 105.5 254.5t255.5 105.5zM709 318h-577q11 -112 93.5 -187.5t195.5 -75.5t195 75.5t93 187.5zM421 646q-114 0 -196.5 -76t-92.5 -187h577
q-10 111 -92.5 187t-195.5 76z" />
    <glyph glyph-name="uni229F" unicode="&#x229f;" horiz-adv-x="840" 
d="M123 701h594q21 0 33.5 -12t12.5 -32v-613q0 -20 -12.5 -32t-33.5 -12h-594q-21 0 -33.5 12t-12.5 32v613q0 20 12.5 32t33.5 12zM695 318h-550v-253h550v253zM695 636h-550v-254h550v254z" />
    <glyph glyph-name="dotmath" unicode="&#x22c5;" 
d="M265 349q20 0 34.5 -14.5t14.5 -34.5t-14.5 -34.5t-34.5 -14.5t-34.5 14.5t-14.5 34.5t14.5 34.5t34.5 14.5z" />
    <glyph glyph-name="filledbox" unicode="&#x25a0;" horiz-adv-x="840" 
d="M123 701h594q21 0 33.5 -12t12.5 -32v-613q0 -20 -12.5 -32t-33.5 -12h-594q-21 0 -33.5 12t-12.5 32v613q0 20 12.5 32t33.5 12z" />
    <glyph glyph-name="uni25BB" unicode="&#x25bb;" horiz-adv-x="955" 
d="M579 601q14 0 24 -10l270 -269q11 -11 11 -25t-11 -25l-270 -269q-10 -10 -24 -10q-15 0 -24 9.5t-9 23.5q0 15 9 24l220 213h-671q-15 0 -24 9.5t-9 23.5t9 23.5t24 9.5h671l-220 215q-9 9 -9 24q0 14 9 23.5t24 9.5z" />
    <glyph glyph-name="uni25C5" unicode="&#x25c5;" horiz-adv-x="955" 
d="M376 601q15 0 24 -9.5t9 -23.5q0 -15 -9 -24l-220 -215h671q15 0 24 -9.5t9 -23.5t-9 -23.5t-24 -9.5h-671l220 -213q9 -9 9 -24q0 -14 -9 -23.5t-24 -9.5q-14 0 -24 10l-270 269q-11 11 -11 25t11 25l270 269q10 10 24 10z" />
    <glyph glyph-name="lozenge" unicode="&#x25ca;" 
d="M266 711q21 0 34 -19l194 -317q7 -11 7 -24q0 -14 -6 -24l-195 -318q-12 -19 -34 -19q-23 0 -35 19l-194 317q-7 11 -7 25q0 15 6 24l195 317q11 19 35 19zM266 625l-167 -274l167 -275l166 275z" />
    <glyph glyph-name="circle" unicode="&#x25cb;" horiz-adv-x="840" 
d="M421 711q149 0 254.5 -105.5t105.5 -254.5q0 -150 -105.5 -255.5t-254.5 -105.5q-150 0 -255.5 105.5t-105.5 255.5q0 149 105.5 254.5t255.5 105.5zM421 646q-122 0 -207.5 -86.5t-85.5 -208.5q0 -123 85.5 -209.5t207.5 -86.5q121 0 206.5 86.5t85.5 209.5
q0 122 -85.5 208.5t-206.5 86.5z" />
    <glyph glyph-name="H18533" unicode="&#x25cf;" horiz-adv-x="840" 
d="M421 711q149 0 254.5 -105.5t105.5 -254.5q0 -150 -105.5 -255.5t-254.5 -105.5q-150 0 -255.5 105.5t-105.5 255.5q0 149 105.5 254.5t255.5 105.5z" />
    <glyph glyph-name="uni2610" unicode="&#x2610;" horiz-adv-x="840" 
d="M123 701h594q21 0 33.5 -12t12.5 -32v-613q0 -20 -12.5 -32t-33.5 -12h-594q-21 0 -33.5 12t-12.5 32v613q0 20 12.5 32t33.5 12zM695 636h-550v-571h550v571z" />
    <glyph glyph-name="uni2611" unicode="&#x2611;" horiz-adv-x="840" 
d="M123 701h401q15 0 24 -9t9 -23t-9 -23.5t-24 -9.5h-379v-571h550v350q0 15 10 24.5t24 9.5t24 -9.5t10 -24.5v-371q0 -20 -12.5 -32t-33.5 -12h-594q-21 0 -33.5 12t-12.5 32v613q0 20 12.5 32t33.5 12zM774 779q14 0 23.5 -8.5t9.5 -23.5q0 -11 -7 -22l-339 -516
q-13 -19 -35 -19q-21 0 -33 19l-164 248q-6 9 -6 20q0 14 9.5 23.5t22.5 9.5q19 0 29 -15l142 -217l320 485q11 16 28 16z" />
    <glyph glyph-name="uni2713" unicode="&#x2713;" horiz-adv-x="768" 
d="M614 711q14 0 24 -9t10 -23q0 -8 -7 -25l-265 -640q-9 -24 -37 -24q-25 0 -36 21l-177 347q-6 12 -6 23q0 15 9.5 24t23.5 9q21 0 31 -19l153 -311l246 606q8 21 31 21z" />
    <glyph glyph-name="uni2B13" unicode="&#x2b13;" horiz-adv-x="840" 
d="M123 701h594q21 0 33.5 -12t12.5 -32v-613q0 -20 -12.5 -32t-33.5 -12h-594q-21 0 -33.5 12t-12.5 32v613q0 20 12.5 32t33.5 12zM695 636h-550v-285h550v285z" />
    <glyph glyph-name="fi" unicode="&#xfb01;" horiz-adv-x="527" 
d="M216 711q28 0 56 -5q28 -7 28 -31q0 -13 -9 -21t-22 -8q-5 0 -20 2.5t-30 2.5q-31 0 -50.5 -19.5t-19.5 -47.5v-84h117q16 0 25 -9t9 -24q0 -14 -9.5 -23t-24.5 -9h-117v-411q0 -15 -9.5 -24.5t-24.5 -9.5q-14 0 -24 9.5t-10 24.5v553q0 62 37 98t98 36zM412 510
q14 0 24 -9.5t10 -24.5v-452q0 -15 -10 -24.5t-24 -9.5q-15 0 -24.5 9.5t-9.5 24.5v452q0 15 9.5 24.5t24.5 9.5zM412 689q17 0 30 -12.5t13 -30.5q0 -17 -13 -30t-30 -13q-18 0 -31 13t-13 30q0 18 13 30.5t31 12.5z" />
    <glyph glyph-name="fl" unicode="&#xfb02;" horiz-adv-x="538" 
d="M216 711q28 0 56 -5q28 -7 28 -31q0 -13 -9 -21t-22 -8q-5 0 -20 2.5t-30 2.5q-31 0 -50.5 -19.5t-19.5 -47.5v-84h117q16 0 25 -9t9 -24q0 -14 -9.5 -23t-24.5 -9h-117v-411q0 -15 -9.5 -24.5t-24.5 -9.5q-14 0 -24 9.5t-10 24.5v553q0 62 37 98t98 36zM423 711
q15 0 24.5 -9.5t9.5 -24.5v-653q0 -15 -9.5 -24.5t-24.5 -9.5q-14 0 -24 9.5t-10 24.5v653q0 15 10 24.5t24 9.5z" />
    <glyph glyph-name="uniFEFF" unicode="&#xfeff;" horiz-adv-x="0" 
 />
    <glyph glyph-name="uni030C.alt001" horiz-adv-x="1" 
d="M-143 711q35 0 35 -32q0 -6 -1 -14l-19 -153q-3 -31 -33 -31q-35 0 -35 32q0 6 1 14l19 153q3 31 33 31z" />
    <glyph glyph-name="zero.numr" horiz-adv-x="357" 
d="M178 713q57 0 89.5 -32.5t32.5 -88.5v-183q0 -55 -32.5 -88t-89.5 -33q-56 0 -89 33t-33 88v183q0 55 32.5 88t89.5 33zM178 668q-35 0 -54.5 -19t-19.5 -54v-190q0 -34 19.5 -53t54.5 -19t55 19t20 53v190q0 35 -20 54t-55 19z" />
    <glyph glyph-name="one.numr" horiz-adv-x="252" 
d="M143 711q12 0 19.5 -7.5t7.5 -19.5v-375q0 -10 -6.5 -16.5t-16.5 -6.5t-17 6.5t-7 16.5v342l-63 -35q-7 -4 -13 -4q-10 0 -17 6t-7 16q0 14 13 20l93 53q7 4 14 4z" />
    <glyph glyph-name="two.numr" horiz-adv-x="312" 
d="M140 711q54 0 87 -30t33 -80q0 -43 -38 -95l-122 -168h140q10 0 16.5 -7t6.5 -16q0 -10 -6.5 -16.5t-16.5 -6.5h-181q-12 0 -20 7.5t-8 18.5q0 10 8 20l143 192q30 42 30 69q0 32 -20 49.5t-52 17.5q-34 0 -69 -16q-6 -3 -11 -3q-10 0 -16 6.5t-6 16.5q0 12 12 19
q40 22 90 22z" />
    <glyph glyph-name="three.numr" horiz-adv-x="320" 
d="M139 711q54 0 85 -31.5t31 -80.5q0 -60 -51 -91q30 -13 46.5 -40.5t16.5 -60.5q0 -53 -34 -87t-92 -34q-56 0 -96 21q-14 7 -14 21q0 10 6.5 16t16.5 6q5 0 11 -3q35 -16 76 -16q37 0 58 20t21 56q0 34 -24 55.5t-61 21.5h-12q-10 0 -16.5 6.5t-6.5 15.5t6.5 16t16.5 7
h12q32 0 52.5 19.5t20.5 49.5q0 32 -18.5 50t-51.5 18q-35 0 -70 -16q-6 -3 -11 -3q-10 0 -16.5 6.5t-6.5 16.5q0 13 12 19q43 22 93 22z" />
    <glyph glyph-name="four.numr" horiz-adv-x="311" 
d="M147 711q10 0 16.5 -6.5t6.5 -15.5q0 -6 -2 -12l-86 -243h99v79q0 10 7 17t17 7q9 0 16 -7t7 -17v-79h48q9 0 15.5 -6.5t6.5 -16.5q0 -9 -6.5 -16t-15.5 -7h-48v-79q0 -10 -7 -16.5t-16 -6.5q-10 0 -17 6.5t-7 16.5v79h-126q-13 0 -20.5 8t-7.5 20q0 7 3 15l96 266
q5 14 21 14z" />
    <glyph glyph-name="five.numr" horiz-adv-x="336" 
d="M88 705h161q10 0 16.5 -7t6.5 -16t-6.5 -16t-16.5 -7h-142v-124q28 12 57 12q51 0 85 -32.5t34 -80.5v-35q0 -48 -34 -80.5t-85 -32.5q-54 0 -96 21q-15 7 -15 21q0 9 6 15.5t16 6.5q3 0 11 -3q40 -16 78 -16q31 0 51 19.5t20 48.5v35q0 29 -20 48.5t-51 19.5
q-28 0 -61 -15q-7 -3 -15 -3q-12 0 -20.5 8.5t-8.5 21.5v162q0 12 8.5 20.5t20.5 8.5z" />
    <glyph glyph-name="six.numr" horiz-adv-x="335" 
d="M212 711q20 0 40 -5q19 -4 19 -22q0 -9 -6.5 -15.5t-16.5 -6.5q-3 0 -14 2t-22 2q-58 0 -83 -35t-25 -103v-8q29 29 74 29q49 0 82 -32t33 -81v-37q0 -48 -34.5 -80.5t-84.5 -32.5t-84 32.5t-34 80.5v128q0 81 36.5 132.5t119.5 51.5zM174 504q-31 0 -50.5 -19t-19.5 -48
v-38q0 -29 20 -48.5t50 -19.5q31 0 51 19.5t20 48.5v38q0 29 -20 48t-51 19z" />
    <glyph glyph-name="seven.numr" horiz-adv-x="287" 
d="M40 705h191q13 0 21.5 -8t8.5 -21q0 -5 -4 -16l-142 -358q-6 -16 -22 -16q-10 0 -17 6.5t-7 16.5q0 5 3 13l133 337h-165q-10 0 -16.5 7t-6.5 16q0 10 6.5 16.5t16.5 6.5z" />
    <glyph glyph-name="eight.numr" horiz-adv-x="352" 
d="M176 711q50 0 82 -31.5t32 -79.5q0 -60 -51 -90q60 -31 60 -102q0 -55 -34.5 -88.5t-88.5 -33.5t-88.5 33.5t-34.5 88.5q0 70 60 102q-50 32 -50 90q0 48 31.5 79.5t81.5 31.5zM176 486q-34 0 -54.5 -21.5t-20.5 -56.5q0 -36 20.5 -56.5t54.5 -20.5t54.5 20.5t20.5 56.5
q0 35 -20.5 56.5t-54.5 21.5zM176 666q-29 0 -47 -18t-18 -48t19 -49.5t46 -19.5q28 0 47 19.5t19 49.5t-18.5 48t-47.5 18z" />
    <glyph glyph-name="nine.numr" horiz-adv-x="335" 
d="M160 711q51 0 84.5 -32.5t33.5 -80.5v-128q0 -81 -36 -132.5t-120 -51.5q-20 0 -40 5q-18 5 -18 22q0 9 6.5 15.5t15.5 6.5q3 0 14 -2t22 -2q59 0 84 35t25 103v8q-31 -29 -74 -29q-49 0 -82 32t-33 81v37q0 48 34 80.5t84 32.5zM160 666q-30 0 -50.5 -19.5t-20.5 -48.5
v-38q0 -29 20.5 -48t50.5 -19q31 0 50.5 19t19.5 48v38q0 29 -19.5 48.5t-50.5 19.5z" />
    <glyph glyph-name="zero.dnom" horiz-adv-x="357" 
d="M178 419q57 0 89.5 -32.5t32.5 -88.5v-183q0 -55 -32.5 -88t-89.5 -33q-56 0 -89 33t-33 88v183q0 55 32.5 88t89.5 33zM178 374q-35 0 -54.5 -19t-19.5 -54v-190q0 -34 19.5 -53t54.5 -19t55 19t20 53v190q0 35 -20 54t-55 19z" />
    <glyph glyph-name="one.dnom" horiz-adv-x="252" 
d="M143 419q12 0 19.5 -7.5t7.5 -19.5v-375q0 -10 -6.5 -16.5t-16.5 -6.5t-17 6.5t-7 16.5v342l-63 -35q-7 -4 -13 -4q-10 0 -17 6t-7 16q0 14 13 20l93 53q7 4 14 4z" />
    <glyph glyph-name="two.dnom" horiz-adv-x="312" 
d="M140 419q54 0 87 -30t33 -80q0 -43 -38 -95l-122 -168h140q10 0 16.5 -7t6.5 -16q0 -10 -6.5 -16.5t-16.5 -6.5h-181q-12 0 -20 7.5t-8 18.5q0 10 8 20l143 192q30 42 30 69q0 32 -20 49.5t-52 17.5q-34 0 -69 -16q-6 -3 -11 -3q-10 0 -16 6.5t-6 16.5q0 12 12 19
q40 22 90 22z" />
    <glyph glyph-name="three.dnom" horiz-adv-x="320" 
d="M139 419q54 0 85 -31.5t31 -80.5q0 -60 -51 -91q30 -13 46.5 -40.5t16.5 -60.5q0 -53 -34 -87t-92 -34q-56 0 -96 21q-14 7 -14 21q0 10 6.5 16t16.5 6q5 0 11 -3q35 -16 76 -16q37 0 58 20t21 56q0 34 -24 55.5t-61 21.5h-12q-10 0 -16.5 6.5t-6.5 15.5t6.5 16t16.5 7
h12q32 0 52.5 19.5t20.5 49.5q0 32 -18.5 50t-51.5 18q-35 0 -70 -16q-6 -3 -11 -3q-10 0 -16.5 6.5t-6.5 16.5q0 13 12 19q43 22 93 22z" />
    <glyph glyph-name="four.dnom" horiz-adv-x="311" 
d="M147 419q10 0 16.5 -6.5t6.5 -15.5q0 -6 -2 -12l-86 -243h99v79q0 10 7 17t17 7q9 0 16 -7t7 -17v-79h48q9 0 15.5 -6.5t6.5 -16.5q0 -9 -6.5 -16t-15.5 -7h-48v-79q0 -10 -7 -16.5t-16 -6.5q-10 0 -17 6.5t-7 16.5v79h-126q-13 0 -20.5 8t-7.5 20q0 7 3 15l96 266
q5 14 21 14z" />
    <glyph glyph-name="five.dnom" horiz-adv-x="336" 
d="M88 413h161q10 0 16.5 -7t6.5 -16t-6.5 -16t-16.5 -7h-142v-124q28 12 57 12q51 0 85 -32.5t34 -80.5v-35q0 -48 -34 -80.5t-85 -32.5q-54 0 -96 21q-15 7 -15 21q0 9 6 15.5t16 6.5q3 0 11 -3q40 -16 78 -16q31 0 51 19.5t20 48.5v35q0 29 -20 48.5t-51 19.5
q-28 0 -61 -15q-7 -3 -15 -3q-12 0 -20.5 8.5t-8.5 21.5v162q0 12 8.5 20.5t20.5 8.5z" />
    <glyph glyph-name="six.dnom" horiz-adv-x="335" 
d="M212 419q20 0 40 -5q19 -4 19 -22q0 -9 -6.5 -15.5t-16.5 -6.5q-3 0 -14 2t-22 2q-58 0 -83 -35t-25 -103v-8q29 29 74 29q49 0 82 -32t33 -81v-37q0 -48 -34.5 -80.5t-84.5 -32.5t-84 32.5t-34 80.5v128q0 81 36.5 132.5t119.5 51.5zM174 212q-31 0 -50.5 -19t-19.5 -48
v-38q0 -29 20 -48.5t50 -19.5q31 0 51 19.5t20 48.5v38q0 29 -20 48t-51 19z" />
    <glyph glyph-name="seven.dnom" horiz-adv-x="287" 
d="M40 413h191q13 0 21.5 -8t8.5 -21q0 -5 -4 -16l-142 -358q-6 -16 -22 -16q-10 0 -17 6.5t-7 16.5q0 5 3 13l133 337h-165q-10 0 -16.5 7t-6.5 16q0 10 6.5 16.5t16.5 6.5z" />
    <glyph glyph-name="eight.dnom" horiz-adv-x="352" 
d="M176 419q50 0 82 -31.5t32 -79.5q0 -60 -51 -90q60 -31 60 -102q0 -55 -34.5 -88.5t-88.5 -33.5t-88.5 33.5t-34.5 88.5q0 70 60 102q-50 32 -50 90q0 48 31.5 79.5t81.5 31.5zM176 194q-34 0 -54.5 -21.5t-20.5 -56.5q0 -36 20.5 -56.5t54.5 -20.5t54.5 20.5t20.5 56.5
q0 35 -20.5 56.5t-54.5 21.5zM176 374q-29 0 -47 -18t-18 -48t19 -49.5t46 -19.5q28 0 47 19.5t19 49.5t-18.5 48t-47.5 18z" />
    <glyph glyph-name="nine.dnom" horiz-adv-x="335" 
d="M160 419q51 0 84.5 -32.5t33.5 -80.5v-128q0 -81 -36 -132.5t-120 -51.5q-20 0 -40 5q-18 5 -18 22q0 9 6.5 15.5t15.5 6.5q3 0 14 -2t22 -2q59 0 84 35t25 103v8q-31 -29 -74 -29q-49 0 -82 32t-33 81v37q0 48 34 80.5t84 32.5zM160 374q-30 0 -50.5 -19.5t-20.5 -48.5
v-38q0 -29 20.5 -48t50.5 -19q31 0 50.5 19t19.5 48v38q0 29 -19.5 48.5t-50.5 19.5z" />
    <glyph glyph-name="space.frac" horiz-adv-x="52" 
 />
    <glyph glyph-name="zero.tf" 
d="M266 711q95 0 149.5 -53.5t54.5 -148.5v-317q0 -92 -54.5 -147t-149.5 -55q-94 0 -149 54t-55 148v317q0 92 54.5 147t149.5 55zM266 648q-64 0 -100 -35t-36 -98v-329q0 -63 36 -98t100 -35t100 35t36 98v329q0 63 -36 98t-100 35z" />
    <glyph glyph-name="one.tf" 
d="M292 711q17 0 28 -11.5t11 -28.5v-647q0 -15 -9.5 -24.5t-23.5 -9.5q-15 0 -25 9.5t-10 24.5v602l-118 -67q-10 -5 -19 -5q-15 0 -24 9t-9 23q0 19 17 28l161 91q11 6 21 6z" />
    <glyph glyph-name="two.tf" 
d="M243 711q91 0 145.5 -49t54.5 -133q0 -79 -68 -166l-216 -298h257q14 0 23.5 -9.5t9.5 -23.5t-9.5 -23t-23.5 -9h-314q-17 0 -28.5 11t-11.5 28q0 14 11 29l248 332q53 73 53 125q0 58 -36 90.5t-95 32.5t-124 -29q-7 -4 -14 -4q-14 0 -22.5 9t-8.5 23q0 19 17 28
q69 36 152 36z" />
    <glyph glyph-name="three.tf" 
d="M242 711q90 0 142.5 -52.5t52.5 -134.5q0 -52 -28 -95t-73 -63q57 -21 89 -69t32 -105q0 -91 -57 -146.5t-154 -55.5t-165 35q-20 10 -20 30q0 13 9 22t22 9q6 0 14 -3q65 -30 140 -30q67 0 105 37.5t38 102.5q0 60 -43.5 99.5t-110.5 39.5h-22q-13 0 -22 9t-9 22t9 22
t22 9h22q58 0 96 36.5t38 92.5q0 57 -34.5 91t-94.5 34q-62 0 -127 -31q-7 -3 -14 -3q-13 0 -22 9t-9 23q0 20 16 27q72 38 158 38z" />
    <glyph glyph-name="four.tf" 
d="M252 711q14 0 23.5 -9t9.5 -23q0 -7 -3 -15l-153 -432h190v143q0 15 9.5 24t23.5 9t23.5 -9t9.5 -24v-143h78q14 0 23 -9.5t9 -23.5t-9 -23t-23 -9h-78v-144q0 -14 -9.5 -23.5t-23.5 -9.5t-23.5 9.5t-9.5 23.5v144h-228q-17 0 -28.5 11t-11.5 28q0 6 3 14l168 471
q8 20 30 20z" />
    <glyph glyph-name="five.tf" 
d="M130 701h279q14 0 23 -9.5t9 -22.5q0 -14 -9 -23.5t-23 -9.5h-253v-232q54 23 107 23q84 0 140.5 -54t56.5 -134v-60q0 -81 -56.5 -135t-140.5 -54q-95 0 -165 35q-20 9 -20 30q0 13 8.5 22t22.5 9q5 0 13 -3q68 -30 141 -30q55 0 92 36t37 90v60q0 54 -37 89.5t-94 35.5
q-49 0 -116 -29q-7 -3 -17 -3q-17 0 -28.5 11.5t-11.5 28.5v286q0 19 11.5 31t30.5 12z" />
    <glyph glyph-name="six.tf" 
d="M329 711q37 0 68 -7q25 -6 25 -32q0 -14 -8.5 -22t-22.5 -8q-1 0 -13 2q-24 4 -49 4q-105 0 -150.5 -62t-45.5 -185v-33q22 30 59 46.5t74 16.5q82 0 138.5 -54t56.5 -135v-63q0 -81 -56.5 -135t-141.5 -54t-141 54t-56 135v220q0 65 13 118.5t41.5 98.5t81.5 70t127 25z
M263 368q-55 0 -92 -35.5t-37 -88.5v-67q0 -53 37 -88.5t92 -35.5t92.5 35.5t37.5 88.5v67q0 53 -37 88.5t-93 35.5z" />
    <glyph glyph-name="seven.tf" 
d="M91 701h336q17 0 29 -11.5t12 -29.5q0 -8 -3 -17l-249 -628q-10 -25 -33 -25q-34 0 -34 34q0 7 4 16l235 596h-297q-15 0 -24 9.5t-9 23.5t9 23t24 9z" />
    <glyph glyph-name="eight.tf" 
d="M266 711q84 0 136 -52t52 -134q0 -51 -25.5 -92t-69.5 -63q53 -23 82.5 -70t29.5 -105q0 -93 -57 -149t-148 -56t-148 56t-57 149q0 58 29 105t82 70q-43 22 -68.5 63.5t-25.5 91.5q0 82 52 134t136 52zM266 336q-61 0 -99.5 -39.5t-38.5 -102.5q0 -65 38 -103t100 -38
t99.5 38t37.5 103q0 63 -38 102.5t-99 39.5zM266 648q-54 0 -87.5 -34t-33.5 -89q0 -53 35 -89.5t86 -36.5q50 0 85.5 36.5t35.5 89.5q0 55 -34 89t-87 34z" />
    <glyph glyph-name="nine.tf" 
d="M266 711q85 0 141.5 -54t56.5 -135v-220q0 -65 -13 -118.5t-42 -98.5t-82 -70t-126 -25q-37 0 -69 7q-25 7 -25 32q0 13 8.5 21.5t22.5 8.5q4 0 14 -2q26 -4 49 -4q105 0 150 62t45 185v32q-22 -30 -59.5 -46t-73.5 -16q-82 0 -138 54t-56 135v63q0 81 56.5 135t140.5 54
zM266 648q-55 0 -92 -35.5t-37 -88.5v-67q0 -53 37 -88.5t92 -35.5q56 0 93 35.5t37 88.5v67q0 53 -37.5 88.5t-92.5 35.5z" />
    <glyph glyph-name="uni2007.tf" 
 />
    <glyph glyph-name="parenleft.case" horiz-adv-x="309" 
d="M199 817q15 0 24.5 -9t9.5 -25q0 -7 -4 -15q-96 -190 -96 -413t96 -413q4 -8 4 -15q0 -34 -34 -34q-22 0 -31 20q-103 211 -103 442t103 442q9 20 31 20z" />
    <glyph glyph-name="parenright.case" horiz-adv-x="309" 
d="M110 817q22 0 31 -20q103 -211 103 -442t-103 -442q-9 -20 -31 -20q-15 0 -24.5 9t-9.5 25q0 7 4 15q96 190 96 413t-96 413q-4 8 -4 15q0 34 34 34z" />
    <glyph glyph-name="hyphen.case" horiz-adv-x="434" 
d="M103 387h228q14 0 23 -9t9 -23t-9 -23.5t-23 -9.5h-228q-14 0 -23 9.5t-9 23.5t9 23t23 9z" />
    <glyph glyph-name="bracketleft.case" horiz-adv-x="362" 
d="M114 817h134q15 0 24 -9t9 -23t-9 -23.5t-24 -9.5h-104v-794h104q15 0 24 -9.5t9 -23.5t-9 -23t-24 -9h-134q-15 0 -26.5 10.5t-11.5 26.5v849q0 15 11 26.5t27 11.5z" />
    <glyph glyph-name="bracketright.case" horiz-adv-x="362" 
d="M114 817h134q15 0 26.5 -10.5t11.5 -26.5v-849q0 -15 -11 -26.5t-27 -11.5h-134q-15 0 -24 9t-9 23t9 23.5t24 9.5h104v794h-104q-15 0 -24 9.5t-9 23.5t9 23t24 9z" />
    <glyph glyph-name="braceleft.case" horiz-adv-x="416" 
d="M317 817q15 0 24.5 -9t9.5 -23t-9.5 -23.5t-24.5 -9.5q-33 0 -56 -22.5t-23 -54.5v-196q0 -84 -76 -124q76 -39 76 -124v-196q0 -32 23 -54.5t56 -22.5q15 0 24.5 -9.5t9.5 -23.5t-9.5 -23t-24.5 -9q-63 0 -105 40.5t-42 103.5v194q0 34 -22.5 58.5t-56.5 31.5
q-14 2 -22.5 11.5t-8.5 22.5t8.5 22.5t22.5 11.5q34 7 56.5 31.5t22.5 58.5v194q0 62 41.5 103t105.5 41z" />
    <glyph glyph-name="braceright.case" horiz-adv-x="416" 
d="M99 817q63 0 105 -40.5t42 -103.5v-194q0 -34 22.5 -58.5t56.5 -31.5q14 -2 22.5 -11.5t8.5 -22.5t-8.5 -22.5t-22.5 -11.5q-34 -7 -56.5 -31.5t-22.5 -58.5v-194q0 -62 -41.5 -103t-105.5 -41q-15 0 -24.5 9t-9.5 23t9.5 23.5t24.5 9.5q33 0 56 22.5t23 54.5v196
q0 84 76 124q-76 39 -76 124v196q0 32 -23 54.5t-56 22.5q-15 0 -24.5 9.5t-9.5 23.5t9.5 23t24.5 9z" />
    <glyph glyph-name="exclamdown.case" horiz-adv-x="385" 
d="M195 -10q-14 0 -24 9.5t-10 24.5v452q0 14 10 23.5t24 9.5q15 0 24.5 -9.5t9.5 -23.5v-452q0 -15 -9.5 -24.5t-24.5 -9.5zM195 613q-20 0 -34.5 14.5t-14.5 34.5t14.5 34.5t34.5 14.5t34.5 -14.5t14.5 -34.5t-14.5 -34.5t-34.5 -14.5z" />
    <glyph glyph-name="guillemotleft.case" horiz-adv-x="523" 
d="M419 563q15 0 24 -9.5t9 -24.5q0 -11 -7 -21l-109 -153l109 -153q7 -10 7 -21q0 -15 -9 -24.5t-24 -9.5q-17 0 -28 16l-118 165q-10 13 -10 27t10 27l117 166q11 15 29 15zM227 563q15 0 24 -9.5t9 -24.5q0 -11 -7 -21l-109 -153l109 -153q7 -10 7 -21q0 -15 -9 -24.5
t-24 -9.5q-17 0 -28 16l-118 165q-10 13 -10 27t10 27l117 166q11 15 29 15z" />
    <glyph glyph-name="uni00AD.case" horiz-adv-x="434" 
d="M103 387h228q14 0 23 -9t9 -23t-9 -23.5t-23 -9.5h-228q-14 0 -23 9.5t-9 23.5t9 23t23 9z" />
    <glyph glyph-name="guillemotright.case" horiz-adv-x="523" 
d="M296 562q17 0 28 -16l118 -165q10 -13 10 -27t-10 -27l-117 -166q-11 -15 -29 -15q-15 0 -24 9.5t-9 24.5q0 11 7 21l109 153l-109 153q-7 10 -7 21q0 15 9 24.5t24 9.5zM104 562q17 0 28 -16l118 -165q10 -13 10 -27t-10 -27l-117 -166q-11 -15 -29 -15q-15 0 -24 9.5
t-9 24.5q0 11 7 21l109 153l-109 153q-7 10 -7 21q0 15 9 24.5t24 9.5z" />
    <glyph glyph-name="questiondown.case" horiz-adv-x="481" 
d="M251 -10q-86 0 -138.5 47.5t-52.5 122.5q0 52 21 85.5t59 65.5q41 33 59.5 61t18.5 65v47q0 14 10 24t24 10t24 -10t10 -24v-46q0 -94 -90 -168q-32 -26 -50 -51.5t-18 -60.5q0 -47 35 -76t94 -29q48 0 103 26q10 5 19 5q14 0 22.5 -8.5t8.5 -22.5q0 -22 -20 -31
q-72 -32 -139 -32zM254 613q-20 0 -34.5 14.5t-14.5 34.5t14.5 34.5t34.5 14.5t34.5 -14.5t14.5 -34.5t-14.5 -34.5t-34.5 -14.5z" />
    <glyph glyph-name="gravecomb.case" horiz-adv-x="1" 
d="M-380 915q6 0 16 -5l120 -60q21 -10 21 -29q0 -13 -9 -21.5t-22 -8.5q-5 0 -13 4l-121 60q-21 11 -21 29q0 13 8.5 22t20.5 9z" />
    <glyph glyph-name="acutecomb.case" horiz-adv-x="1" 
d="M-177 915q13 0 21.5 -9t8.5 -22q0 -18 -21 -29l-121 -60q-8 -4 -13 -4q-13 0 -22 8.5t-9 21.5q0 19 21 29l121 61q9 4 14 4z" />
    <glyph glyph-name="uni0302.case" horiz-adv-x="1" 
d="M-296 915q10 0 19 -5l95 -60q18 -10 18 -28q0 -13 -8.5 -22t-21.5 -9q-8 0 -15 5l-87 56l-87 -56q-8 -5 -15 -5q-13 0 -22 9t-9 22q0 15 19 28l95 60q9 5 19 5z" />
    <glyph glyph-name="tildecomb.case" horiz-adv-x="1" 
d="M-185 883q14 0 22 -9t8 -20t-8 -22q-31 -41 -85 -41q-27 0 -54 14.5t-41 14.5q-22 0 -47 -23q-8 -6 -17 -6q-13 0 -21.5 8.5t-8.5 19.5q0 12 8 23q31 41 85 41q27 0 54 -15t41 -15q20 0 47 23q8 7 17 7z" />
    <glyph glyph-name="uni0304.case" horiz-adv-x="1" 
d="M-255 861h156q14 0 23 -8.5t9 -22.5t-9 -22.5t-23 -8.5h-156q-14 0 -23 8.5t-9 22.5t9 22.5t23 8.5z" />
    <glyph glyph-name="uni0306.case" horiz-adv-x="1" 
d="M-88 892q14 0 22.5 -8.5t8.5 -21.5q0 -10 -8 -20q-43 -55 -108 -55t-109 55q-7 8 -7 20q0 13 8.5 21.5t21.5 8.5q15 0 25 -12q30 -33 61 -33t61 33q10 12 24 12z" />
    <glyph glyph-name="uni0307.case" horiz-adv-x="1" 
d="M-254 881q18 0 30.5 -12.5t12.5 -30.5t-12.5 -30.5t-30.5 -12.5t-30.5 12.5t-12.5 30.5t12.5 30.5t30.5 12.5z" />
    <glyph glyph-name="uni0308.case" horiz-adv-x="1" 
d="M-208 881q18 0 30.5 -12.5t12.5 -30.5q0 -17 -12.5 -30t-30.5 -13t-30.5 13t-12.5 30q0 18 12.5 30.5t30.5 12.5zM-384 881q18 0 30.5 -12.5t12.5 -30.5q0 -17 -12.5 -30t-30.5 -13t-30.5 13t-12.5 30q0 18 12.5 30.5t30.5 12.5z" />
    <glyph glyph-name="uni030A.case" horiz-adv-x="1" 
d="M-296 962q39 0 66.5 -28t27.5 -67t-27.5 -67t-66.5 -28q-40 0 -67.5 28t-27.5 67t27.5 67t67.5 28zM-296 918q-22 0 -37 -14.5t-15 -36.5t15 -37t37 -15t36.5 15t14.5 37t-14.5 36.5t-36.5 14.5z" />
    <glyph glyph-name="uni030B.case" horiz-adv-x="1" 
d="M-48 924q13 0 21.5 -9t8.5 -21q0 -18 -18 -30l-79 -56q-11 -8 -20 -8q-13 0 -21.5 9t-8.5 21q0 17 17 29l80 57q11 8 20 8zM-213 924q13 0 21.5 -9t8.5 -21q0 -18 -18 -30l-79 -56q-11 -8 -20 -8q-13 0 -21.5 9t-8.5 21q0 17 17 29l80 57q11 8 20 8z" />
    <glyph glyph-name="uni030C.case" horiz-adv-x="1" 
d="M-194 915q13 0 21.5 -9t8.5 -22q0 -17 -18 -28l-95 -60q-9 -5 -19 -5q-11 0 -19 5l-95 60q-19 12 -19 28q0 13 9 22t22 9q8 0 15 -5l87 -56l87 56q7 5 15 5z" />
    <glyph glyph-name="uni0326.case" horiz-adv-x="1" 
d="M-138 -34q16 0 24.5 -10t8.5 -21q0 -7 -3 -16l-39 -116q-10 -27 -35 -27q-16 0 -24.5 10t-8.5 21q0 7 3 16l39 116q10 27 35 27z" />
    <glyph glyph-name="uni0327.case" horiz-adv-x="1" 
d="M-300 33q11 0 18 -7t7 -17q0 -6 -2 -14l-9 -38q55 -25 55 -68q0 -36 -26.5 -63.5t-70.5 -40.5q-28 -8 -41 -8q-25 0 -25 25q0 22 24 25q27 3 55.5 18t28.5 40q0 26 -37 38q-20 7 -20 24q0 5 3 19l10 44q5 23 30 23z" />
    <glyph glyph-name="uni0328.case" horiz-adv-x="1" 
d="M-229 44q8 0 14.5 -6t6.5 -14q0 -15 -14 -31q-54 -63 -54 -118q0 -22 12.5 -32.5t30.5 -10.5q13 0 27.5 6t19.5 6q11 0 18 -8t7 -19q0 -16 -18 -26q-26 -14 -60 -14q-38 0 -64 24t-26 65q0 75 70 161q14 17 30 17z" />
    <glyph glyph-name="endash.case" horiz-adv-x="772" 
d="M165 387h441q14 0 23 -9t9 -23t-9 -23.5t-23 -9.5h-441q-14 0 -23 9.5t-9 23.5t9 23t23 9z" />
    <glyph glyph-name="emdash.case" horiz-adv-x="1200" 
d="M165 387h870q14 0 23 -9t9 -23t-9 -23.5t-23 -9.5h-870q-14 0 -23 9.5t-9 23.5t9 23t23 9z" />
    <glyph glyph-name="bullet.case" 
d="M266 440q35 0 60.5 -25t25.5 -61t-25.5 -61t-60.5 -25q-36 0 -61 25t-25 61t25 61t61 25z" />
    <glyph glyph-name="guilsinglleft.case" horiz-adv-x="331" 
d="M227 563q15 0 24 -9.5t9 -24.5q0 -11 -7 -21l-109 -153l109 -153q7 -10 7 -21q0 -15 -9 -24.5t-24 -9.5q-17 0 -28 16l-118 165q-10 13 -10 27t10 27l117 166q11 15 29 15z" />
    <glyph glyph-name="guilsinglright.case" horiz-adv-x="331" 
d="M104 563q17 0 28 -16l118 -165q10 -13 10 -27t-10 -27l-117 -166q-11 -15 -29 -15q-15 0 -24 9.5t-9 24.5q0 11 7 21l109 153l-109 153q-7 10 -7 21q0 15 9 24.5t24 9.5z" />
    <glyph glyph-name="l.ss01" horiz-adv-x="257" 
d="M113 711q15 0 24.5 -9.5t9.5 -23.5v-574q0 -51 41 -51q7 0 14 1t9 1q14 0 23.5 -9t9.5 -22q0 -22 -22 -29q-14 -5 -40 -5q-49 0 -76 29.5t-27 82.5v576q0 14 9.5 23.5t24.5 9.5z" />
    <glyph glyph-name="lslash.ss01" horiz-adv-x="314" 
d="M154 711q15 0 24.5 -9.5t9.5 -23.5v-261l53 35q17 11 28 11q13 0 22.5 -9.5t9.5 -22.5q0 -18 -14 -28l-99 -65v-234q0 -51 41 -51q7 0 14 1t9 1q14 0 23.5 -9t9.5 -22q0 -22 -22 -29q-14 -5 -40 -5q-49 0 -76 29.5t-27 82.5v191l-37 -24q-17 -11 -28 -11q-13 0 -22.5 9.5
t-9.5 23.5q0 16 15 27l82 54v306q0 14 9.5 23.5t24.5 9.5z" />
    <glyph glyph-name="uni2611.ss01" horiz-adv-x="840" 
d="M421 711q60 0 110 -22q27 -13 27 -32q0 -13 -9.5 -22.5t-22.5 -9.5q-8 0 -17 4q-39 17 -88 17q-122 0 -207.5 -86.5t-85.5 -208.5q0 -123 85.5 -209.5t207.5 -86.5t207 87t85 209q0 21 -2.5 42.5t-2.5 26.5q0 16 9.5 25t24.5 9q30 0 34 -31q5 -33 5 -72
q0 -150 -105.5 -255.5t-254.5 -105.5q-150 0 -255.5 105.5t-105.5 255.5q0 149 105.5 254.5t255.5 105.5zM774 779q14 0 23.5 -8.5t9.5 -23.5q0 -12 -6 -22l-343 -521q-13 -19 -34 -19t-34 19l-144 218q-6 8 -6 20q0 15 9 24t23 9q18 0 28 -15l124 -187l322 490q11 16 28 16
z" />
    <glyph glyph-name="fl.ss01" horiz-adv-x="567" 
d="M216 711q28 0 56 -5q28 -7 28 -31q0 -13 -9 -21t-22 -8q-5 0 -20 2.5t-30 2.5q-31 0 -50.5 -19.5t-19.5 -47.5v-84h117q16 0 25 -9t9 -24q0 -14 -9.5 -23t-24.5 -9h-117v-411q0 -15 -9.5 -24.5t-24.5 -9.5q-14 0 -24 9.5t-10 24.5v553q0 62 37 98t98 36zM423 711
q15 0 24.5 -9.5t9.5 -23.5v-574q0 -51 41 -51q7 0 14 1t9 1q14 0 23.5 -9t9.5 -22q0 -22 -22 -29q-14 -5 -40 -5q-49 0 -76 29.5t-27 82.5v576q0 14 9.5 23.5t24.5 9.5z" />
    <glyph glyph-name="ampersand.ss02" horiz-adv-x="700" 
d="M332 711q64 0 109 -19q18 -8 18 -29q0 -14 -9 -22.5t-23 -8.5q-5 0 -14 3q-43 13 -82 13q-67 0 -105 -33t-38 -94q0 -51 40 -88t99 -37h307q14 0 23 -9t9 -23t-9 -23t-23 -9h-90v-291q0 -17 -11.5 -29t-29.5 -12h-195q-93 0 -149.5 54t-56.5 144q0 53 30.5 98.5
t89.5 69.5q-50 23 -76 64.5t-26 88.5q0 87 56 139.5t156 52.5zM476 331h-158q-63 0 -105.5 -39t-42.5 -95q0 -61 37 -97.5t101 -36.5h168v268z" />
    </font>
</defs>
</svg>
