<svg width="139" height="20" viewBox="0 0 139 20" fill="none" xmlns="http://www.w3.org/2000/svg">
<path fill-rule="evenodd" clip-rule="evenodd" d="M8.00322 11.226C8.18344 11.0171 8.29248 10.7469 8.29248 10.4524V8.21825H10.5468C10.6298 8.21825 10.7108 8.20992 10.7893 8.19381C10.9462 8.16159 11.0923 8.09936 11.2206 8.01325C11.5421 7.79742 11.7543 7.4327 11.7543 7.02131V4.6277C11.7543 4.21631 11.5421 3.85159 11.2206 3.63603C11.0923 3.54992 10.9462 3.48742 10.7893 3.4552C10.7108 3.43936 10.6298 3.43103 10.5468 3.43103H9.40241C8.99908 3.70075 8.6305 4.0177 8.30397 4.37325C7.32493 5.43992 6.72736 6.85659 6.72736 8.40881C6.72736 8.83686 6.77276 9.25436 6.85909 9.65742C6.91683 9.92575 6.99251 10.188 7.085 10.4419C7.17778 10.696 7.28709 10.9421 7.4121 11.1791C7.47432 11.2977 7.54075 11.4138 7.61082 11.5274C7.66099 11.503 7.70948 11.4752 7.75545 11.4446C7.84766 11.383 7.93119 11.3094 8.00322 11.226Z" fill="#585A51" fill-opacity="0.5"/>
<path fill-rule="evenodd" clip-rule="evenodd" d="M17.1223 12.5957C16.9704 12.7504 16.81 12.8968 16.6421 13.0346L15.2533 11.1723C14.9826 10.809 14.4654 10.7321 14.0985 11.001C13.8695 11.1685 13.7532 11.4318 13.7647 11.694C13.7692 11.799 13.7939 11.904 13.8401 12.0023C13.8634 12.0518 13.8917 12.0996 13.9256 12.1451L15.2331 13.8982C14.4839 14.2276 13.656 14.4123 12.7851 14.4123C10.5964 14.4123 8.67527 13.256 7.61074 11.5273C7.54067 11.4137 7.47452 11.2976 7.41202 11.179C7.28701 10.9421 7.1777 10.696 7.08492 10.4418C6.99243 10.1879 6.91675 9.92596 6.85929 9.65734C6.77297 9.25457 6.72756 8.83679 6.72756 8.40901C6.72756 6.85651 7.32485 5.44012 8.30417 4.37318C8.63042 4.01762 8.99928 3.70096 9.40233 3.43096C10.369 2.78373 11.5334 2.4054 12.7851 2.4054C16.1253 2.4054 18.8427 5.09873 18.8427 8.40901C18.8427 8.98984 18.7589 9.55179 18.6027 10.0837C18.5405 10.2962 18.4662 10.5043 18.3816 10.7062C18.2964 10.9087 18.2008 11.1054 18.0949 11.296C17.9889 11.4865 17.8732 11.6707 17.7476 11.8479C17.6848 11.9365 17.6198 12.0232 17.5525 12.1082C17.418 12.2782 17.2742 12.441 17.1223 12.5957ZM17.6234 14.3501C19.3724 12.9487 20.4936 10.8065 20.4936 8.40901C20.4936 4.19623 17.0354 0.769011 12.7851 0.769011C11.1096 0.769011 9.55845 1.30318 8.29268 2.20651V1.19679C8.29268 0.538455 7.7492 0.00012207 7.08492 0.00012207H4.6697C4.00542 0.00012207 3.46194 0.538455 3.46194 1.19679V3.43096H1.2076C0.543598 3.43096 0.00012207 3.96957 0.00012207 4.62762V7.02151C0.00012207 7.67957 0.543598 8.21818 1.2076 8.21818H3.46194V10.4523C3.46194 11.1104 4.00542 11.6493 4.6697 11.6493H5.80598C7.03868 14.2457 9.7028 16.0487 12.7851 16.0487C14.024 16.0487 15.1945 15.7557 16.2329 15.239L19.4002 19.4857C19.5622 19.7026 19.8116 19.8173 20.0647 19.8173C20.2351 19.8173 20.4072 19.7654 20.5547 19.6573C20.9213 19.3887 20.9989 18.8762 20.7279 18.5132L17.6234 14.3501Z" fill="#101010"/>
<path fill-rule="evenodd" clip-rule="evenodd" d="M32.7226 4.3822C32.203 4.3822 31.9089 4.67331 31.9089 5.16637V10.3625C31.9089 12.8039 29.8522 14.5961 27.6601 14.5961C25.8295 14.5961 24.1568 13.1625 24.1568 11.1019V5.16637C24.1568 4.67331 23.8179 4.3822 23.321 4.3822C22.801 4.3822 22.507 4.67331 22.507 5.16637V11.1019C22.507 14.3272 25.0159 16.1189 27.6374 16.1189C29.4001 16.1189 31.1404 15.4022 31.9541 13.7672V15.1783C31.9541 16.2533 33.5814 16.2311 33.5814 15.2005V5.16637C33.5814 4.67331 33.2423 4.3822 32.7226 4.3822Z" fill="#101010"/>
<path fill-rule="evenodd" clip-rule="evenodd" d="M42.1017 4.29285C40.3387 4.29285 38.5987 4.98729 37.785 6.62201V5.2334C37.785 4.1584 36.1577 4.18062 36.1577 5.21118V15.2453C36.1577 15.7384 36.4968 16.0295 37.0165 16.0295C37.5364 16.0295 37.8301 15.7384 37.8301 15.2453V10.0492C37.8301 7.60785 39.8869 5.8159 42.079 5.8159C43.9098 5.8159 45.582 7.24924 45.582 9.30979V15.2453C45.582 15.7384 45.9212 16.0295 46.4184 16.0295C46.9383 16.0295 47.2321 15.7384 47.2321 15.2453V9.30979C47.2321 6.08479 44.7235 4.29285 42.1017 4.29285Z" fill="#101010"/>
<path fill-rule="evenodd" clip-rule="evenodd" d="M58.0353 13.0953C57.2441 13.9914 56.0013 14.5734 54.7807 14.5734C53.5379 14.5734 52.3399 14.0361 51.549 13.0953C50.8707 12.3114 50.5545 11.2586 50.5545 10.2509C50.5545 8.23475 51.6619 6.48781 53.5603 5.99475C53.8994 5.90531 54.3288 5.83836 54.7582 5.83836C55.1876 5.83836 55.6397 5.90531 56.0013 5.99475C57.9224 6.48781 59.0298 8.25725 59.0298 10.2956C59.0298 11.2586 58.668 12.3336 58.0353 13.0953ZM60.6572 9.78031C60.4534 7.2717 58.9166 5.21114 56.4531 4.5167C55.8657 4.36003 55.3233 4.31531 54.7807 4.31531C54.2159 4.31531 53.6057 4.36003 53.0631 4.5167C50.5772 5.21114 49.1079 7.29392 48.882 9.78031C48.8142 11.46 49.2436 12.8936 50.2608 14.0809C51.3682 15.4023 52.9728 16.0967 54.7807 16.0967C56.5661 16.0967 58.1934 15.4023 59.3008 14.0809C60.2953 12.8936 60.7474 11.46 60.6572 9.78031Z" fill="#101010"/>
<path fill-rule="evenodd" clip-rule="evenodd" d="M74.7193 4.74911C73.1444 4.74911 71.7539 5.54578 70.9355 6.75356C70.1173 5.54578 68.7268 4.74911 67.1516 4.74911C65.989 4.74911 64.927 5.18383 64.1214 5.89717V5.24106C64.1214 4.82717 63.7826 4.49133 63.3647 4.49133C62.9467 4.49133 62.6079 4.82717 62.6079 5.24106V8.97022C62.6017 9.06717 62.5972 9.16467 62.5972 9.263V15.2455C62.5972 15.6597 62.9361 15.9955 63.354 15.9955C63.356 15.9955 63.3576 15.9952 63.3593 15.9952C63.3613 15.9952 63.363 15.9955 63.3647 15.9955C63.7826 15.9955 64.1214 15.6597 64.1214 15.2455V9.02161C64.2459 7.47244 65.5571 6.24911 67.1516 6.24911C68.7229 6.24911 70.0192 7.43578 70.1767 8.95244C70.1697 9.05522 70.1647 9.15856 70.1647 9.263V15.2455C70.1647 15.6597 70.5038 15.9955 70.9215 15.9955C70.9262 15.9955 70.9307 15.9949 70.9355 15.9947C70.9405 15.9949 70.9447 15.9955 70.9498 15.9955C71.3674 15.9955 71.7063 15.6597 71.7063 15.2455V9.263C71.7063 9.15856 71.7015 9.05522 71.6945 8.95244C71.8517 7.43578 73.1483 6.24911 74.7193 6.24911C76.396 6.24911 77.7604 7.60106 77.7604 9.263V15.2455C77.7604 15.6597 78.0993 15.9955 78.5172 15.9955C78.9348 15.9955 79.2737 15.6597 79.2737 15.2455V9.263C79.2737 6.77411 77.2307 4.74911 74.7193 4.74911Z" fill="#101010"/>
<path fill-rule="evenodd" clip-rule="evenodd" d="M82.6796 9.80317C82.8152 7.98872 83.8772 6.48817 85.6857 6.01761C86.4539 5.79345 87.3805 5.79345 88.1264 5.99539H88.104C89.8667 6.44317 91.0419 7.89928 91.2 9.80317H82.6796ZM92.7819 10.1615C92.7368 7.29428 91.1549 5.23372 88.6009 4.53956H88.5785C87.4711 4.24817 86.2504 4.22567 85.1881 4.53956C80.9844 5.704 79.9224 10.8557 82.3631 14.0365C83.4254 15.3579 85.1881 16.0298 86.9511 16.0298C87.2306 16.034 87.5114 16.0176 87.7909 15.9901C88.6006 15.9104 89.3936 15.6971 90.0833 15.3201C90.1105 15.3037 90.1383 15.2893 90.1652 15.2726C90.2075 15.2482 90.247 15.2198 90.2885 15.1946C90.5848 14.999 90.8623 14.7726 91.117 14.5162C91.2264 14.4059 91.3337 14.2923 91.4338 14.1704C92.1987 13.3012 90.8603 12.4334 90.2902 13.1754L90.2919 13.1712C90.0702 13.4351 89.9382 13.5498 89.8857 13.5907C89.0048 14.2607 87.9215 14.529 86.8833 14.529C84.6234 14.529 83.0411 13.0059 82.7474 11.1693H91.6748C92.6012 11.1693 92.8274 10.6318 92.7819 10.139V10.1615Z" fill="#101010"/>
<path fill-rule="evenodd" clip-rule="evenodd" d="M103.837 11.1244C103.837 13.3194 102.097 14.6183 100.04 14.6183C99.1818 14.5513 98.3679 14.2824 97.7126 13.7674C96.4922 12.7594 96.0177 11.4155 96.0404 9.95965C96.0628 9.37715 96.1982 8.77243 96.3792 8.30215C97.0346 6.75659 98.6392 5.90548 100.244 5.90548C102.301 5.99493 103.837 7.38381 103.837 9.35493V11.1244ZM104.668 0.944092C104.232 0.944092 103.877 1.28131 103.851 1.70687C103.843 1.75381 103.837 1.8027 103.837 1.8552V6.17409C103.159 4.98715 101.69 4.35993 100.176 4.35993C96.7859 4.35993 94.4806 6.75659 94.3903 9.93715C94.3225 12.5355 95.5653 14.753 98.0287 15.7608L98.0063 15.7383C98.707 16.0296 99.4753 16.1638 100.176 16.1638C101.532 16.1638 103.114 15.5816 103.883 14.193V15.2455C103.883 15.7383 104.131 16.0296 104.651 16.0296C105.171 16.0296 105.487 15.7383 105.487 15.2455V1.8552C105.487 1.83798 105.485 1.82215 105.485 1.80548C105.486 1.78909 105.487 1.77298 105.487 1.75631C105.487 1.3077 105.12 0.944092 104.668 0.944092Z" fill="#101010"/>
<path fill-rule="evenodd" clip-rule="evenodd" d="M108.728 4.88367C108.299 4.88367 107.948 5.21033 107.912 5.62617C107.908 5.65867 107.905 5.69144 107.905 5.72617V15.3128C107.905 16.2759 109.555 16.2981 109.555 15.3128V5.70394C109.555 5.59867 109.535 5.50589 109.5 5.42422C109.387 5.10922 109.084 4.88367 108.728 4.88367Z" fill="#101010"/>
<path fill-rule="evenodd" clip-rule="evenodd" d="M108.728 2.56826C109.18 2.56826 109.547 2.20465 109.547 1.75631C109.547 1.3077 109.18 0.944092 108.728 0.944092C108.276 0.944092 107.908 1.3077 107.908 1.75631C107.908 2.20465 108.276 2.56826 108.728 2.56826Z" fill="#101010"/>
<path fill-rule="evenodd" clip-rule="evenodd" d="M120.773 13.1849C119.982 14.2602 118.671 14.6632 117.473 14.6632C116.253 14.6632 115.01 14.148 114.219 13.1849C113.541 12.3785 113.247 11.236 113.247 10.2285C113.247 7.67491 114.919 5.68158 117.382 5.68158C118.513 5.68158 119.665 6.06241 120.524 7.04769C121.157 7.78686 122.377 6.8463 121.722 6.10714C120.502 4.74102 119.191 4.20325 117.564 4.20325C114.128 4.20325 111.755 6.46547 111.574 9.78047C111.484 11.4155 111.959 13.0055 112.908 14.1705C114.038 15.4696 115.756 16.1638 117.45 16.1638C119.123 16.1638 120.818 15.5146 121.925 14.1705C122.694 13.2969 121.338 12.4235 120.773 13.1849Z" fill="#101010"/>
<path fill-rule="evenodd" clip-rule="evenodd" d="M128.995 14.6728C126.782 14.6728 124.982 12.6847 124.982 10.2411C124.982 7.7975 126.782 5.80945 128.995 5.80945C131.208 5.80945 133.008 7.7975 133.008 10.2411C133.008 12.6847 131.208 14.6728 128.995 14.6728ZM133.839 4.37778C133.421 4.37778 133.082 4.71361 133.082 5.12778V6.25278C132.071 5.05973 130.613 4.30945 128.995 4.30945C125.948 4.30945 123.469 6.97028 123.469 10.2411C123.469 13.5117 125.948 16.1725 128.995 16.1725C130.613 16.1725 132.071 15.4225 133.082 14.2292V15.2864C133.082 15.7006 133.421 16.0364 133.839 16.0364C134.257 16.0364 134.596 15.7006 134.596 15.2864V5.12778C134.596 4.71361 134.257 4.37778 133.839 4.37778Z" fill="#101010"/>
<mask id="mask0_6_1453" style="mask-type:luminance" maskUnits="userSpaceOnUse" x="136" y="1" width="3" height="16">
<path fill-rule="evenodd" clip-rule="evenodd" d="M136.665 1.0813H138.314V16.0435H136.665V1.0813Z" fill="white"/>
</mask>
<g mask="url(#mask0_6_1453)">
<path fill-rule="evenodd" clip-rule="evenodd" d="M137.501 1.0813C137.004 1.0813 136.665 1.41713 136.665 1.84269V15.2819C136.665 15.7074 137.004 16.0435 137.501 16.0435C137.953 16.0435 138.315 15.7074 138.315 15.2819V1.84269C138.315 1.41713 137.953 1.0813 137.501 1.0813Z" fill="#101010"/>
</g>
</svg>
