<svg width="24" height="25" viewBox="0 0 24 25" fill="none" xmlns="http://www.w3.org/2000/svg">
<path d="M11.1827 20.1427C11.4194 20.3793 11.7375 20.5112 12.0712 20.5112C12.401 20.5112 12.7269 20.3754 12.9597 20.1427L19.9317 13.1727C20.9909 12.1138 21.5729 10.7058 21.5768 9.21248C21.5768 7.7153 20.9948 6.30732 19.9356 5.24843C18.8764 4.18954 17.4719 3.60773 15.9743 3.60773C14.5038 3.60773 13.1187 4.17015 12.0673 5.19413C11.012 4.16627 9.62299 3.59998 8.14865 3.59998C6.65492 3.59998 5.25042 4.18178 4.19122 5.23679C3.13202 6.29568 2.55005 7.70366 2.55005 9.20085C2.55005 10.6942 3.1359 12.1021 4.1951 13.161L11.1827 20.1427Z" fill="#2A2A2A"/>
<mask id="mask0_850_432" style="mask-type:luminance" maskUnits="userSpaceOnUse" x="2" y="3" width="20" height="18">
<path d="M11.1827 20.1427C11.4194 20.3793 11.7375 20.5112 12.0712 20.5112C12.401 20.5112 12.7269 20.3754 12.9597 20.1427L19.9317 13.1727C20.9909 12.1138 21.5729 10.7058 21.5768 9.21248C21.5768 7.7153 20.9948 6.30732 19.9356 5.24843C18.8764 4.18954 17.4719 3.60773 15.9743 3.60773C14.5038 3.60773 13.1187 4.17015 12.0673 5.19413C11.012 4.16627 9.62299 3.59998 8.14865 3.59998C6.65492 3.59998 5.25042 4.18178 4.19122 5.23679C3.13202 6.29568 2.55005 7.70366 2.55005 9.20085C2.55005 10.6942 3.1359 12.1021 4.1951 13.161L11.1827 20.1427Z" fill="white"/>
</mask>
<g mask="url(#mask0_850_432)">
<rect x="6.10352e-05" width="24" height="24" fill="#FFCA58"/>
</g>
</svg>
