<svg width="22" height="22" viewBox="0 0 22 22" fill="none" xmlns="http://www.w3.org/2000/svg">
<path fill-rule="evenodd" clip-rule="evenodd" d="M9.42863 0.00389571C9.51837 0 9.612 0 9.70174 0C13.9505 0 17.4072 3.45159 17.415 7.69012C17.415 8.18098 17.3682 8.67184 17.2746 9.15101C17.2629 9.22503 17.2473 9.30294 17.2239 9.39644C17.1068 9.91847 16.9312 10.4327 16.705 10.9197C15.9169 12.7779 14.1807 15.6685 10.4157 18.789C10.2167 18.9526 9.96704 19.0422 9.70954 19.0422C9.45204 19.0422 9.20234 18.9526 9.00337 18.789C5.2345 15.6646 3.49833 12.7779 2.70632 10.9041C2.48393 10.4288 2.30837 9.91847 2.19132 9.39255C2.1484 9.22503 2.1367 9.13543 2.1367 9.13543C2.00015 8.42641 1.96503 7.68233 2.03526 6.94215C2.402 3.12046 5.58174 0.13635 9.42863 0.00389571ZM6.67026 7.77972C6.67026 9.44709 8.02799 10.8067 9.70174 10.8067C11.3755 10.8067 12.7332 9.44709 12.7332 7.77972C12.7332 6.11236 11.3716 4.75276 9.70174 4.75276C8.03189 4.75276 6.67026 6.11236 6.67026 7.77972Z" fill="#FFCA58"/>
</svg>
