<svg xmlns="http://www.w3.org/2000/svg" viewBox="0 0 493.5 71.3"><path opacity=".5" fill="#585A51" d="M28.6,40.4c0.6-0.8,1-1.7,1-2.8v-8h0h8c0.3,0,0.6,0,0.9-0.1c0.6-0.1,1.1-0.3,1.5-0.7 c1.1-0.8,1.9-2.1,1.9-3.6v-8.6c0-1.5-0.8-2.8-1.9-3.6c-0.5-0.3-1-0.5-1.5-0.7c-0.3-0.1-0.6-0.1-0.9-0.1h-4.1 c-1.4,1-2.8,2.1-3.9,3.4c-3.5,3.8-5.6,8.9-5.6,14.5c0,1.5,0.2,3,0.5,4.5c0.2,1,0.5,1.9,0.8,2.8c0.3,0.9,0.7,1.8,1.2,2.7 c0.2,0.4,0.5,0.8,0.7,1.3c0.2-0.1,0.4-0.2,0.5-0.3C28,41,28.3,40.7,28.6,40.4z"></path><path fill="#585A51" d="M62.9 51.7c6.2-5 10.2-12.8 10.2-21.4 0-15.2-12.3-27.5-27.5-27.5-6 0-11.5 1.9-16 5.2V4.3c0-2.4-1.9-4.3-4.3-4.3h-8.6c-2.4 0-4.3 1.9-4.3 4.3v8h-8c-2.4 0-4.3 1.9-4.3 4.3v8.6c0 2.4 1.9 4.3 4.3 4.3h8v8c0 2.4 1.9 4.3 4.3 4.3h4.1c4.4 9.3 13.9 15.8 24.9 15.8 4.4 0 8.6-1.1 12.3-2.9l11.3 15.3c.6.8 1.5 1.2 2.4 1.2.6 0 1.2-.2 1.7-.6 1.3-1 1.6-2.8.6-4.1L62.9 51.7zM61.1 45.3c-.5.6-1.1 1.1-1.7 1.6l-5-6.7c-1-1.3-2.8-1.6-4.1-.6-.8.6-1.2 1.6-1.2 2.5 0 .4.1.8.3 1.1.1.2.2.3.3.5l4.7 6.3c-2.7 1.2-5.6 1.9-8.7 1.9-7.8 0-14.7-4.2-18.5-10.4-.2-.4-.5-.8-.7-1.3-.4-.9-.8-1.7-1.2-2.7-.3-.9-.6-1.9-.8-2.8-.3-1.5-.5-3-.5-4.5 0-5.6 2.1-10.7 5.6-14.5 1.2-1.3 2.5-2.4 3.9-3.4C37 10 41.1 8.7 45.6 8.7c11.9 0 21.6 9.7 21.6 21.6 0 2.1-.3 4.1-.9 6-.2.8-.5 1.5-.8 2.2-.3.7-.6 1.4-1 2.1-.4.7-.8 1.3-1.2 2-.2.3-.5.6-.7.9C62.1 44.2 61.6 44.8 61.1 45.3zM116.7 15.8c-1.9 0-2.9 1-2.9 2.8v18.7c0 8.8-7.3 15.2-15.2 15.2-6.5 0-12.5-5.2-12.5-12.6V18.6c0-1.8-1.2-2.8-3-2.8-1.9 0-2.9 1-2.9 2.8V40c0 11.6 9 18.1 18.3 18.1 6.3 0 12.5-2.6 15.4-8.5v5.1c0 3.9 5.8 3.8 5.8.1V18.6C119.8 16.8 118.6 15.8 116.7 15.8zM150.2 15.5c-6.3 0-12.5 2.5-15.4 8.4v-5c0-3.9-5.8-3.8-5.8-.1v36.1c0 1.8 1.2 2.8 3.1 2.8 1.9 0 2.9-1 2.9-2.8V36.2c0-8.8 7.3-15.2 15.2-15.2 6.5 0 12.5 5.2 12.5 12.6v21.4c0 1.8 1.2 2.8 3 2.8 1.9 0 2.9-1 2.9-2.8V33.5C168.5 21.9 159.6 15.5 150.2 15.5zM216.4 35.2c-.7-9-6.2-16.4-15-18.9-2.1-.6-4-.7-6-.7-2 0-4.2.2-6.1.7-8.9 2.5-14.1 10-14.9 18.9-.2 6 1.3 11.2 4.9 15.5 4 4.8 9.7 7.3 16.1 7.3 6.4 0 12.2-2.5 16.1-7.3C215.1 46.4 216.7 41.3 216.4 35.2zM207.1 47.1c-2.8 3.2-7.3 5.3-11.6 5.3-4.4 0-8.7-1.9-11.5-5.3-2.4-2.8-3.5-6.6-3.5-10.2 0-7.3 4-13.5 10.7-15.3 1.2-.3 2.7-.6 4.3-.6s3.1.2 4.4.6c6.9 1.8 10.8 8.1 10.8 15.5C210.6 40.5 209.3 44.4 207.1 47.1zM373.4 3.4c-1.6 0-2.8 1.2-2.9 2.7 0 .2 0 .3 0 .5v15.5c-2.4-4.3-7.7-6.5-13.1-6.5-12.1 0-20.3 8.6-20.6 20.1-.2 9.4 4.2 17.3 13 21l-.1-.1c2.5 1 5.2 1.5 7.7 1.5 4.8 0 10.5-2.1 13.2-7.1v3.8c0 1.8.9 2.8 2.7 2.8 1.9 0 3-1 3-2.8V6.7c0-.1 0-.1 0-.2 0-.1 0-.1 0-.2C376.4 4.7 375 3.4 373.4 3.4zM370.5 40c0 7.9-6.2 12.6-13.5 12.6-3.1-.2-6-1.2-8.3-3.1-4.4-3.6-6-8.5-6-13.7.1-2.1.6-4.3 1.2-6 2.3-5.6 8.1-8.6 13.8-8.6 7.3.3 12.8 5.3 12.8 12.4V40zM430.9 47.5c-2.8 3.9-7.5 5.3-11.8 5.3-4.4 0-8.8-1.9-11.6-5.3-2.4-2.9-3.5-7-3.5-10.6 0-9.2 6-16.4 14.8-16.4 4 0 8.1 1.4 11.2 4.9 2.3 2.7 6.6-.7 4.3-3.4-4.4-4.9-9-6.9-14.8-6.9-12.3 0-20.7 8.1-21.4 20.1-.3 5.9 1.4 11.6 4.8 15.8 4 4.7 10.2 7.2 16.2 7.2 6 0 12-2.3 16-7.2C437.7 47.9 432.9 44.7 430.9 47.5zM490.6 3.9c-1.8 0-3 1.2-3 2.7V55c0 1.5 1.2 2.7 3 2.7 1.6 0 2.9-1.2 2.9-2.7V6.6C493.5 5.1 492.2 3.9 490.6 3.9zM477.5 15.8c-1.5 0-2.7 1.2-2.7 2.7v4.1c-3.6-4.3-8.8-7-14.6-7-10.9 0-19.7 9.6-19.7 21.4s8.8 21.4 19.7 21.4c5.8 0 11-2.7 14.6-7V55c0 1.5 1.2 2.7 2.7 2.7s2.7-1.2 2.7-2.7V18.5C480.2 17 479 15.8 477.5 15.8zM460.2 52.8c-7.9 0-14.3-7.2-14.3-16 0-8.8 6.4-16 14.3-16 7.9 0 14.3 7.2 14.3 16C474.5 45.7 468.1 52.8 460.2 52.8zM387.9 9.2c1.6 0 2.9-1.3 2.9-2.9 0-1.6-1.3-2.9-2.9-2.9-1.6 0-2.9 1.3-2.9 2.9C385 7.9 386.3 9.2 387.9 9.2zM387.9 17.6c-1.5 0-2.8 1.2-2.9 2.7 0 .1 0 .2 0 .4v34.5c0 3.5 5.9 3.5 5.9 0V20.5c0-.4-.1-.7-.2-1C390.3 18.4 389.2 17.6 387.9 17.6zM266.6 17.1c-5.6 0-10.6 2.9-13.5 7.2-2.9-4.3-7.9-7.2-13.5-7.2-4.1 0-7.9 1.6-10.8 4.1v-2.4c0-1.5-1.2-2.7-2.7-2.7s-2.7 1.2-2.7 2.7v13.4c0 .3 0 .7 0 1.1v21.5c0 1.5 1.2 2.7 2.7 2.7 0 0 0 0 0 0s0 0 0 0c1.5 0 2.7-1.2 2.7-2.7V32.5c.4-5.6 5.1-10 10.8-10 5.6 0 10.2 4.3 10.8 9.7 0 .4 0 .7 0 1.1v21.5c0 1.5 1.2 2.7 2.7 2.7 0 0 0 0 .1 0 0 0 0 0 .1 0 1.5 0 2.7-1.2 2.7-2.7V33.3c0-.4 0-.7 0-1.1.6-5.5 5.2-9.7 10.8-9.7 6 0 10.8 4.9 10.8 10.8v21.5c0 1.5 1.2 2.7 2.7 2.7s2.7-1.2 2.7-2.7V33.3C282.8 24.4 275.5 17.1 266.6 17.1zM331 36.6c-.2-10.3-5.8-17.7-14.9-20.2H316c-4-1-8.3-1.1-12.1 0-15 4.2-18.8 22.7-10.1 34.2 3.8 4.8 10.1 7.2 16.4 7.2 1 0 2 0 3-.1 2.9-.3 5.7-1.1 8.2-2.4.1-.1.2-.1.3-.2.2-.1.3-.2.4-.3 1.1-.7 2-1.5 3-2.4.4-.4.8-.8 1.1-1.2 2.7-3.1-2-6.3-4.1-3.6l0 0c-.8.9-1.3 1.4-1.4 1.5-3.1 2.4-7 3.4-10.7 3.4-8.1 0-13.7-5.5-14.8-12.1h31.9C330.4 40.2 331.2 38.3 331 36.6L331 36.6zM295 35.3c.5-6.5 4.3-11.9 10.7-13.6 2.7-.8 6-.8 8.7-.1h-.1c6.3 1.6 10.5 6.9 11 13.7H295z"></path></svg>